<svg width="1796pt" height="2040pt"
 viewBox="0.00 0.00 1795.50 2040.00" xmlns="http://www.w3.org/2000/svg" xmlns:xlink="http://www.w3.org/1999/xlink">
<g id="graph0" class="graph" transform="scale(1 1) rotate(0) translate(4 2036)">
<title>Perl</title>
<polygon fill="#ffffff" stroke="transparent" points="-4,4 -4,-2036 1791.5,-2036 1791.5,4 -4,4"/>
<!-- diagnosis -->
<g id="node1" class="node">
<title>diagnosis</title>
<path fill="none" stroke="#000000" d="M245,-1168.5C245,-1168.5 559,-1168.5 559,-1168.5 565,-1168.5 571,-1174.5 571,-1180.5 571,-1180.5 571,-1547.5 571,-1547.5 571,-1553.5 565,-1559.5 559,-1559.5 559,-1559.5 245,-1559.5 245,-1559.5 239,-1559.5 233,-1553.5 233,-1547.5 233,-1547.5 233,-1180.5 233,-1180.5 233,-1174.5 239,-1168.5 245,-1168.5"/>
<text text-anchor="middle" x="275" y="-1360.3" font-family="Times,serif" font-size="14.00" fill="#000000">diagnosis</text>
<polyline fill="none" stroke="#000000" points="317,-1168.5 317,-1559.5 "/>
<text text-anchor="middle" x="327.5" y="-1360.3" font-family="Times,serif" font-size="14.00" fill="#000000"> </text>
<polyline fill="none" stroke="#000000" points="338,-1168.5 338,-1559.5 "/>
<text text-anchor="middle" x="444" y="-1544.3" font-family="Times,serif" font-size="14.00" fill="#000000">age_at_diagnosis</text>
<polyline fill="none" stroke="#000000" points="338,-1536.5 550,-1536.5 "/>
<text text-anchor="middle" x="444" y="-1521.3" font-family="Times,serif" font-size="14.00" fill="#000000">days_to_last_followup</text>
<polyline fill="none" stroke="#000000" points="338,-1513.5 550,-1513.5 "/>
<text text-anchor="middle" x="444" y="-1498.3" font-family="Times,serif" font-size="14.00" fill="#000000">days_to_last_known_status</text>
<polyline fill="none" stroke="#000000" points="338,-1490.5 550,-1490.5 "/>
<text text-anchor="middle" x="444" y="-1475.3" font-family="Times,serif" font-size="14.00" fill="#000000">days_to_recurrence</text>
<polyline fill="none" stroke="#000000" points="338,-1467.5 550,-1467.5 "/>
<text text-anchor="middle" x="444" y="-1452.3" font-family="Times,serif" font-size="14.00" fill="#000000">diagnosis_id</text>
<polyline fill="none" stroke="#000000" points="338,-1444.5 550,-1444.5 "/>
<text text-anchor="middle" x="444" y="-1429.3" font-family="Times,serif" font-size="14.00" fill="#000000">disease_type</text>
<polyline fill="none" stroke="#000000" points="338,-1421.5 550,-1421.5 "/>
<text text-anchor="middle" x="444" y="-1406.3" font-family="Times,serif" font-size="14.00" fill="#000000">incidence_type</text>
<polyline fill="none" stroke="#000000" points="338,-1398.5 550,-1398.5 "/>
<text text-anchor="middle" x="444" y="-1383.3" font-family="Times,serif" font-size="14.00" fill="#000000">last_known_disease_status</text>
<polyline fill="none" stroke="#000000" points="338,-1375.5 550,-1375.5 "/>
<text text-anchor="middle" x="444" y="-1360.3" font-family="Times,serif" font-size="14.00" fill="#000000">morphology</text>
<polyline fill="none" stroke="#000000" points="338,-1352.5 550,-1352.5 "/>
<text text-anchor="middle" x="444" y="-1337.3" font-family="Times,serif" font-size="14.00" fill="#000000">primary_diagnosis</text>
<polyline fill="none" stroke="#000000" points="338,-1329.5 550,-1329.5 "/>
<text text-anchor="middle" x="444" y="-1314.3" font-family="Times,serif" font-size="14.00" fill="#000000">primary_site</text>
<polyline fill="none" stroke="#000000" points="338,-1306.5 550,-1306.5 "/>
<text text-anchor="middle" x="444" y="-1291.3" font-family="Times,serif" font-size="14.00" fill="#000000">progression_or_recurrence</text>
<polyline fill="none" stroke="#000000" points="338,-1283.5 550,-1283.5 "/>
<text text-anchor="middle" x="444" y="-1268.3" font-family="Times,serif" font-size="14.00" fill="#000000">tumor_grade</text>
<polyline fill="none" stroke="#000000" points="338,-1260.5 550,-1260.5 "/>
<text text-anchor="middle" x="444" y="-1245.3" font-family="Times,serif" font-size="14.00" fill="#000000">tumor_stage_clinical_m</text>
<polyline fill="none" stroke="#000000" points="338,-1237.5 550,-1237.5 "/>
<text text-anchor="middle" x="444" y="-1222.3" font-family="Times,serif" font-size="14.00" fill="#000000">tumor_stage_clinical_n</text>
<polyline fill="none" stroke="#000000" points="338,-1214.5 550,-1214.5 "/>
<text text-anchor="middle" x="444" y="-1199.3" font-family="Times,serif" font-size="14.00" fill="#000000">tumor_stage_clinical_t</text>
<polyline fill="none" stroke="#000000" points="338,-1191.5 550,-1191.5 "/>
<text text-anchor="middle" x="444" y="-1176.3" font-family="Times,serif" font-size="14.00" fill="#000000">vital_status</text>
<polyline fill="none" stroke="#000000" points="550,-1168.5 550,-1559.5 "/>
<text text-anchor="middle" x="560.5" y="-1360.3" font-family="Times,serif" font-size="14.00" fill="#000000"> </text>
</g>
<!-- participant -->
<g id="node5" class="node">
<title>participant</title>
<path fill="none" stroke="#000000" d="M401.5,-1001.5C401.5,-1001.5 660.5,-1001.5 660.5,-1001.5 666.5,-1001.5 672.5,-1007.5 672.5,-1013.5 672.5,-1013.5 672.5,-1104.5 672.5,-1104.5 672.5,-1110.5 666.5,-1116.5 660.5,-1116.5 660.5,-1116.5 401.5,-1116.5 401.5,-1116.5 395.5,-1116.5 389.5,-1110.5 389.5,-1104.5 389.5,-1104.5 389.5,-1013.5 389.5,-1013.5 389.5,-1007.5 395.5,-1001.5 401.5,-1001.5"/>
<text text-anchor="middle" x="437.5" y="-1055.3" font-family="Times,serif" font-size="14.00" fill="#000000">participant</text>
<polyline fill="none" stroke="#000000" points="485.5,-1001.5 485.5,-1116.5 "/>
<text text-anchor="middle" x="496" y="-1055.3" font-family="Times,serif" font-size="14.00" fill="#000000"> </text>
<polyline fill="none" stroke="#000000" points="506.5,-1001.5 506.5,-1116.5 "/>
<text text-anchor="middle" x="579" y="-1101.3" font-family="Times,serif" font-size="14.00" fill="#000000">dbGaP_subject_id</text>
<polyline fill="none" stroke="#000000" points="506.5,-1093.5 651.5,-1093.5 "/>
<text text-anchor="middle" x="579" y="-1078.3" font-family="Times,serif" font-size="14.00" fill="#000000">ethnicity</text>
<polyline fill="none" stroke="#000000" points="506.5,-1070.5 651.5,-1070.5 "/>
<text text-anchor="middle" x="579" y="-1055.3" font-family="Times,serif" font-size="14.00" fill="#000000">gender</text>
<polyline fill="none" stroke="#000000" points="506.5,-1047.5 651.5,-1047.5 "/>
<text text-anchor="middle" x="579" y="-1032.3" font-family="Times,serif" font-size="14.00" fill="#000000">participant_id</text>
<polyline fill="none" stroke="#000000" points="506.5,-1024.5 651.5,-1024.5 "/>
<text text-anchor="middle" x="579" y="-1009.3" font-family="Times,serif" font-size="14.00" fill="#000000">race</text>
<polyline fill="none" stroke="#000000" points="651.5,-1001.5 651.5,-1116.5 "/>
<text text-anchor="middle" x="662" y="-1055.3" font-family="Times,serif" font-size="14.00" fill="#000000"> </text>
</g>
<!-- diagnosis&#45;&gt;participant -->
<g id="edge2" class="edge">
<title>diagnosis&#45;&gt;participant</title>
<path fill="none" stroke="#000000" d="M478.4549,-1168.3298C483.2803,-1157.0124 488.1489,-1145.8353 493,-1135 494.3262,-1132.0379 495.705,-1129.0237 497.1177,-1125.9881"/>
<polygon fill="#000000" stroke="#000000" points="500.3288,-1127.3847 501.4386,-1116.8482 494.0004,-1124.3929 500.3288,-1127.3847"/>
<text text-anchor="middle" x="543.5" y="-1138.8" font-family="Times,serif" font-size="14.00" fill="#000000">of_participant</text>
</g>
<!-- file -->
<g id="node2" class="node">
<title>file</title>
<path fill="none" stroke="#000000" d="M1002,-1847.5C1002,-1847.5 1382,-1847.5 1382,-1847.5 1388,-1847.5 1394,-1853.5 1394,-1859.5 1394,-1859.5 1394,-2019.5 1394,-2019.5 1394,-2025.5 1388,-2031.5 1382,-2031.5 1382,-2031.5 1002,-2031.5 1002,-2031.5 996,-2031.5 990,-2025.5 990,-2019.5 990,-2019.5 990,-1859.5 990,-1859.5 990,-1853.5 996,-1847.5 1002,-1847.5"/>
<text text-anchor="middle" x="1009.5" y="-1935.8" font-family="Times,serif" font-size="14.00" fill="#000000">file</text>
<polyline fill="none" stroke="#000000" points="1029,-1847.5 1029,-2031.5 "/>
<text text-anchor="middle" x="1039.5" y="-1935.8" font-family="Times,serif" font-size="14.00" fill="#000000"> </text>
<polyline fill="none" stroke="#000000" points="1050,-1847.5 1050,-2031.5 "/>
<text text-anchor="middle" x="1211.5" y="-2016.3" font-family="Times,serif" font-size="14.00" fill="#000000">experimental_strategy_and_data_subtypes</text>
<polyline fill="none" stroke="#000000" points="1050,-2008.5 1373,-2008.5 "/>
<text text-anchor="middle" x="1211.5" y="-1993.3" font-family="Times,serif" font-size="14.00" fill="#000000">file_description</text>
<polyline fill="none" stroke="#000000" points="1050,-1985.5 1373,-1985.5 "/>
<text text-anchor="middle" x="1211.5" y="-1970.3" font-family="Times,serif" font-size="14.00" fill="#000000">file_id</text>
<polyline fill="none" stroke="#000000" points="1050,-1962.5 1373,-1962.5 "/>
<text text-anchor="middle" x="1211.5" y="-1947.3" font-family="Times,serif" font-size="14.00" fill="#000000">file_name</text>
<polyline fill="none" stroke="#000000" points="1050,-1939.5 1373,-1939.5 "/>
<text text-anchor="middle" x="1211.5" y="-1924.3" font-family="Times,serif" font-size="14.00" fill="#000000">file_size</text>
<polyline fill="none" stroke="#000000" points="1050,-1916.5 1373,-1916.5 "/>
<text text-anchor="middle" x="1211.5" y="-1901.3" font-family="Times,serif" font-size="14.00" fill="#000000">file_type</text>
<polyline fill="none" stroke="#000000" points="1050,-1893.5 1373,-1893.5 "/>
<text text-anchor="middle" x="1211.5" y="-1878.3" font-family="Times,serif" font-size="14.00" fill="#000000">file_url_in_cds</text>
<polyline fill="none" stroke="#000000" points="1050,-1870.5 1373,-1870.5 "/>
<text text-anchor="middle" x="1211.5" y="-1855.3" font-family="Times,serif" font-size="14.00" fill="#000000">md5sum</text>
<polyline fill="none" stroke="#000000" points="1373,-1847.5 1373,-2031.5 "/>
<text text-anchor="middle" x="1383.5" y="-1935.8" font-family="Times,serif" font-size="14.00" fill="#000000"> </text>
</g>
<!-- methylation -->
<g id="node4" class="node">
<title>methylation</title>
<path fill="none" stroke="#000000" d="M989.5,-1341C989.5,-1341 1280.5,-1341 1280.5,-1341 1286.5,-1341 1292.5,-1347 1292.5,-1353 1292.5,-1353 1292.5,-1375 1292.5,-1375 1292.5,-1381 1286.5,-1387 1280.5,-1387 1280.5,-1387 989.5,-1387 989.5,-1387 983.5,-1387 977.5,-1381 977.5,-1375 977.5,-1375 977.5,-1353 977.5,-1353 977.5,-1347 983.5,-1341 989.5,-1341"/>
<text text-anchor="middle" x="1028.5" y="-1360.3" font-family="Times,serif" font-size="14.00" fill="#000000">methylation</text>
<polyline fill="none" stroke="#000000" points="1079.5,-1341 1079.5,-1387 "/>
<text text-anchor="middle" x="1090" y="-1360.3" font-family="Times,serif" font-size="14.00" fill="#000000"> </text>
<polyline fill="none" stroke="#000000" points="1100.5,-1341 1100.5,-1387 "/>
<text text-anchor="middle" x="1186" y="-1371.8" font-family="Times,serif" font-size="14.00" fill="#000000">methylation_platform</text>
<polyline fill="none" stroke="#000000" points="1100.5,-1364 1271.5,-1364 "/>
<text text-anchor="middle" x="1186" y="-1348.8" font-family="Times,serif" font-size="14.00" fill="#000000">reporter_label</text>
<polyline fill="none" stroke="#000000" points="1271.5,-1341 1271.5,-1387 "/>
<text text-anchor="middle" x="1282" y="-1360.3" font-family="Times,serif" font-size="14.00" fill="#000000"> </text>
</g>
<!-- file&#45;&gt;methylation -->
<g id="edge5" class="edge">
<title>file&#45;&gt;methylation</title>
<path fill="none" stroke="#000000" d="M1232.5814,-1847.2318C1259.4581,-1773.6445 1285.612,-1668.3102 1261,-1578 1241.5262,-1506.5437 1191.4532,-1434.6272 1160.6148,-1395.0427"/>
<polygon fill="#000000" stroke="#000000" points="1163.2872,-1392.7792 1154.3441,-1387.0983 1157.7926,-1397.1162 1163.2872,-1392.7792"/>
<text text-anchor="middle" x="1333.5" y="-1699.8" font-family="Times,serif" font-size="14.00" fill="#000000">from_methylation</text>
</g>
<!-- genomic_info -->
<g id="node8" class="node">
<title>genomic_info</title>
<path fill="none" stroke="#000000" d="M1322.5,-1191.5C1322.5,-1191.5 1775.5,-1191.5 1775.5,-1191.5 1781.5,-1191.5 1787.5,-1197.5 1787.5,-1203.5 1787.5,-1203.5 1787.5,-1524.5 1787.5,-1524.5 1787.5,-1530.5 1781.5,-1536.5 1775.5,-1536.5 1775.5,-1536.5 1322.5,-1536.5 1322.5,-1536.5 1316.5,-1536.5 1310.5,-1530.5 1310.5,-1524.5 1310.5,-1524.5 1310.5,-1203.5 1310.5,-1203.5 1310.5,-1197.5 1316.5,-1191.5 1322.5,-1191.5"/>
<text text-anchor="middle" x="1366.5" y="-1360.3" font-family="Times,serif" font-size="14.00" fill="#000000">genomic_info</text>
<polyline fill="none" stroke="#000000" points="1422.5,-1191.5 1422.5,-1536.5 "/>
<text text-anchor="middle" x="1433" y="-1360.3" font-family="Times,serif" font-size="14.00" fill="#000000"> </text>
<polyline fill="none" stroke="#000000" points="1443.5,-1191.5 1443.5,-1536.5 "/>
<text text-anchor="middle" x="1605" y="-1521.3" font-family="Times,serif" font-size="14.00" fill="#000000">avg_read_length</text>
<polyline fill="none" stroke="#000000" points="1443.5,-1513.5 1766.5,-1513.5 "/>
<text text-anchor="middle" x="1605" y="-1498.3" font-family="Times,serif" font-size="14.00" fill="#000000">bases</text>
<polyline fill="none" stroke="#000000" points="1443.5,-1490.5 1766.5,-1490.5 "/>
<text text-anchor="middle" x="1605" y="-1475.3" font-family="Times,serif" font-size="14.00" fill="#000000">coverage</text>
<polyline fill="none" stroke="#000000" points="1443.5,-1467.5 1766.5,-1467.5 "/>
<text text-anchor="middle" x="1605" y="-1452.3" font-family="Times,serif" font-size="14.00" fill="#000000">custom_assembly_fasta_file_for_alignment</text>
<polyline fill="none" stroke="#000000" points="1443.5,-1444.5 1766.5,-1444.5 "/>
<text text-anchor="middle" x="1605" y="-1429.3" font-family="Times,serif" font-size="14.00" fill="#000000">design_description</text>
<polyline fill="none" stroke="#000000" points="1443.5,-1421.5 1766.5,-1421.5 "/>
<text text-anchor="middle" x="1605" y="-1406.3" font-family="Times,serif" font-size="14.00" fill="#000000">instrument_model</text>
<polyline fill="none" stroke="#000000" points="1443.5,-1398.5 1766.5,-1398.5 "/>
<text text-anchor="middle" x="1605" y="-1383.3" font-family="Times,serif" font-size="14.00" fill="#000000">library_id</text>
<polyline fill="none" stroke="#000000" points="1443.5,-1375.5 1766.5,-1375.5 "/>
<text text-anchor="middle" x="1605" y="-1360.3" font-family="Times,serif" font-size="14.00" fill="#000000">library_layout</text>
<polyline fill="none" stroke="#000000" points="1443.5,-1352.5 1766.5,-1352.5 "/>
<text text-anchor="middle" x="1605" y="-1337.3" font-family="Times,serif" font-size="14.00" fill="#000000">library_selection</text>
<polyline fill="none" stroke="#000000" points="1443.5,-1329.5 1766.5,-1329.5 "/>
<text text-anchor="middle" x="1605" y="-1314.3" font-family="Times,serif" font-size="14.00" fill="#000000">library_source</text>
<polyline fill="none" stroke="#000000" points="1443.5,-1306.5 1766.5,-1306.5 "/>
<text text-anchor="middle" x="1605" y="-1291.3" font-family="Times,serif" font-size="14.00" fill="#000000">library_strategy</text>
<polyline fill="none" stroke="#000000" points="1443.5,-1283.5 1766.5,-1283.5 "/>
<text text-anchor="middle" x="1605" y="-1268.3" font-family="Times,serif" font-size="14.00" fill="#000000">number_of_reads</text>
<polyline fill="none" stroke="#000000" points="1443.5,-1260.5 1766.5,-1260.5 "/>
<text text-anchor="middle" x="1605" y="-1245.3" font-family="Times,serif" font-size="14.00" fill="#000000">platform</text>
<polyline fill="none" stroke="#000000" points="1443.5,-1237.5 1766.5,-1237.5 "/>
<text text-anchor="middle" x="1605" y="-1222.3" font-family="Times,serif" font-size="14.00" fill="#000000">reference_genome_assembly</text>
<polyline fill="none" stroke="#000000" points="1443.5,-1214.5 1766.5,-1214.5 "/>
<text text-anchor="middle" x="1605" y="-1199.3" font-family="Times,serif" font-size="14.00" fill="#000000">sequence_alignment_software</text>
<polyline fill="none" stroke="#000000" points="1766.5,-1191.5 1766.5,-1536.5 "/>
<text text-anchor="middle" x="1777" y="-1360.3" font-family="Times,serif" font-size="14.00" fill="#000000"> </text>
</g>
<!-- file&#45;&gt;genomic_info -->
<g id="edge14" class="edge">
<title>file&#45;&gt;genomic_info</title>
<path fill="none" stroke="#000000" d="M1355.1294,-1847.3055C1372.5967,-1832.0348 1388.5161,-1814.9198 1401,-1796 1447.1803,-1726.0122 1412.4309,-1690.857 1438,-1611 1444.806,-1589.7438 1452.905,-1567.8768 1461.5835,-1546.3567"/>
<polygon fill="#000000" stroke="#000000" points="1464.9338,-1547.41 1465.472,-1536.8288 1458.4528,-1544.7649 1464.9338,-1547.41"/>
<text text-anchor="middle" x="1506.5" y="-1699.8" font-family="Times,serif" font-size="14.00" fill="#000000">from_genomic_info</text>
</g>
<!-- study -->
<g id="node9" class="node">
<title>study</title>
<path fill="none" stroke="#000000" d="M12,-190.5C12,-190.5 328,-190.5 328,-190.5 334,-190.5 340,-196.5 340,-202.5 340,-202.5 340,-937.5 340,-937.5 340,-943.5 334,-949.5 328,-949.5 328,-949.5 12,-949.5 12,-949.5 6,-949.5 0,-943.5 0,-937.5 0,-937.5 0,-202.5 0,-202.5 0,-196.5 6,-190.5 12,-190.5"/>
<text text-anchor="middle" x="28" y="-566.3" font-family="Times,serif" font-size="14.00" fill="#000000">study</text>
<polyline fill="none" stroke="#000000" points="56,-190.5 56,-949.5 "/>
<text text-anchor="middle" x="66.5" y="-566.3" font-family="Times,serif" font-size="14.00" fill="#000000"> </text>
<polyline fill="none" stroke="#000000" points="77,-190.5 77,-949.5 "/>
<text text-anchor="middle" x="198" y="-934.3" font-family="Times,serif" font-size="14.00" fill="#000000">acl</text>
<polyline fill="none" stroke="#000000" points="77,-926.5 319,-926.5 "/>
<text text-anchor="middle" x="198" y="-911.3" font-family="Times,serif" font-size="14.00" fill="#000000">adult_or_childhood_study</text>
<polyline fill="none" stroke="#000000" points="77,-903.5 319,-903.5 "/>
<text text-anchor="middle" x="198" y="-888.3" font-family="Times,serif" font-size="14.00" fill="#000000">bioproject_accession</text>
<polyline fill="none" stroke="#000000" points="77,-880.5 319,-880.5 "/>
<text text-anchor="middle" x="198" y="-865.3" font-family="Times,serif" font-size="14.00" fill="#000000">cds_primary_bucket</text>
<polyline fill="none" stroke="#000000" points="77,-857.5 319,-857.5 "/>
<text text-anchor="middle" x="198" y="-842.3" font-family="Times,serif" font-size="14.00" fill="#000000">cds_requestor</text>
<polyline fill="none" stroke="#000000" points="77,-834.5 319,-834.5 "/>
<text text-anchor="middle" x="198" y="-819.3" font-family="Times,serif" font-size="14.00" fill="#000000">cds_secondary_bucket</text>
<polyline fill="none" stroke="#000000" points="77,-811.5 319,-811.5 "/>
<text text-anchor="middle" x="198" y="-796.3" font-family="Times,serif" font-size="14.00" fill="#000000">cds_tertiary_bucket</text>
<polyline fill="none" stroke="#000000" points="77,-788.5 319,-788.5 "/>
<text text-anchor="middle" x="198" y="-773.3" font-family="Times,serif" font-size="14.00" fill="#000000">clinical_trial_arm</text>
<polyline fill="none" stroke="#000000" points="77,-765.5 319,-765.5 "/>
<text text-anchor="middle" x="198" y="-750.3" font-family="Times,serif" font-size="14.00" fill="#000000">clinical_trial_identifier</text>
<polyline fill="none" stroke="#000000" points="77,-742.5 319,-742.5 "/>
<text text-anchor="middle" x="198" y="-727.3" font-family="Times,serif" font-size="14.00" fill="#000000">clinical_trial_system</text>
<polyline fill="none" stroke="#000000" points="77,-719.5 319,-719.5 "/>
<text text-anchor="middle" x="198" y="-704.3" font-family="Times,serif" font-size="14.00" fill="#000000">co_investigator_email</text>
<polyline fill="none" stroke="#000000" points="77,-696.5 319,-696.5 "/>
<text text-anchor="middle" x="198" y="-681.3" font-family="Times,serif" font-size="14.00" fill="#000000">co_investigator_name</text>
<polyline fill="none" stroke="#000000" points="77,-673.5 319,-673.5 "/>
<text text-anchor="middle" x="198" y="-658.3" font-family="Times,serif" font-size="14.00" fill="#000000">data_access_level</text>
<polyline fill="none" stroke="#000000" points="77,-650.5 319,-650.5 "/>
<text text-anchor="middle" x="198" y="-635.3" font-family="Times,serif" font-size="14.00" fill="#000000">data_types</text>
<polyline fill="none" stroke="#000000" points="77,-627.5 319,-627.5 "/>
<text text-anchor="middle" x="198" y="-612.3" font-family="Times,serif" font-size="14.00" fill="#000000">file_types</text>
<polyline fill="none" stroke="#000000" points="77,-604.5 319,-604.5 "/>
<text text-anchor="middle" x="198" y="-589.3" font-family="Times,serif" font-size="14.00" fill="#000000">file_types_and_format</text>
<polyline fill="none" stroke="#000000" points="77,-581.5 319,-581.5 "/>
<text text-anchor="middle" x="198" y="-566.3" font-family="Times,serif" font-size="14.00" fill="#000000">funding_agency</text>
<polyline fill="none" stroke="#000000" points="77,-558.5 319,-558.5 "/>
<text text-anchor="middle" x="198" y="-543.3" font-family="Times,serif" font-size="14.00" fill="#000000">funding_source_program_name</text>
<polyline fill="none" stroke="#000000" points="77,-535.5 319,-535.5 "/>
<text text-anchor="middle" x="198" y="-520.3" font-family="Times,serif" font-size="14.00" fill="#000000">grant_id</text>
<polyline fill="none" stroke="#000000" points="77,-512.5 319,-512.5 "/>
<text text-anchor="middle" x="198" y="-497.3" font-family="Times,serif" font-size="14.00" fill="#000000">index_date</text>
<polyline fill="none" stroke="#000000" points="77,-489.5 319,-489.5 "/>
<text text-anchor="middle" x="198" y="-474.3" font-family="Times,serif" font-size="14.00" fill="#000000">number_of_participants</text>
<polyline fill="none" stroke="#000000" points="77,-466.5 319,-466.5 "/>
<text text-anchor="middle" x="198" y="-451.3" font-family="Times,serif" font-size="14.00" fill="#000000">number_of_samples</text>
<polyline fill="none" stroke="#000000" points="77,-443.5 319,-443.5 "/>
<text text-anchor="middle" x="198" y="-428.3" font-family="Times,serif" font-size="14.00" fill="#000000">organism_species</text>
<polyline fill="none" stroke="#000000" points="77,-420.5 319,-420.5 "/>
<text text-anchor="middle" x="198" y="-405.3" font-family="Times,serif" font-size="14.00" fill="#000000">phs_accession</text>
<polyline fill="none" stroke="#000000" points="77,-397.5 319,-397.5 "/>
<text text-anchor="middle" x="198" y="-382.3" font-family="Times,serif" font-size="14.00" fill="#000000">primary_investigator_email</text>
<polyline fill="none" stroke="#000000" points="77,-374.5 319,-374.5 "/>
<text text-anchor="middle" x="198" y="-359.3" font-family="Times,serif" font-size="14.00" fill="#000000">primary_investigator_name</text>
<polyline fill="none" stroke="#000000" points="77,-351.5 319,-351.5 "/>
<text text-anchor="middle" x="198" y="-336.3" font-family="Times,serif" font-size="14.00" fill="#000000">short_description</text>
<polyline fill="none" stroke="#000000" points="77,-328.5 319,-328.5 "/>
<text text-anchor="middle" x="198" y="-313.3" font-family="Times,serif" font-size="14.00" fill="#000000">size_of_data_being_uploaded</text>
<polyline fill="none" stroke="#000000" points="77,-305.5 319,-305.5 "/>
<text text-anchor="middle" x="198" y="-290.3" font-family="Times,serif" font-size="14.00" fill="#000000">study_acronym</text>
<polyline fill="none" stroke="#000000" points="77,-282.5 319,-282.5 "/>
<text text-anchor="middle" x="198" y="-267.3" font-family="Times,serif" font-size="14.00" fill="#000000">study_data_types</text>
<polyline fill="none" stroke="#000000" points="77,-259.5 319,-259.5 "/>
<text text-anchor="middle" x="198" y="-244.3" font-family="Times,serif" font-size="14.00" fill="#000000">study_description</text>
<polyline fill="none" stroke="#000000" points="77,-236.5 319,-236.5 "/>
<text text-anchor="middle" x="198" y="-221.3" font-family="Times,serif" font-size="14.00" fill="#000000">study_external_url</text>
<polyline fill="none" stroke="#000000" points="77,-213.5 319,-213.5 "/>
<text text-anchor="middle" x="198" y="-198.3" font-family="Times,serif" font-size="14.00" fill="#000000">study_name</text>
<polyline fill="none" stroke="#000000" points="319,-190.5 319,-949.5 "/>
<text text-anchor="middle" x="329.5" y="-566.3" font-family="Times,serif" font-size="14.00" fill="#000000"> </text>
</g>
<!-- file&#45;&gt;study -->
<g id="edge11" class="edge">
<title>file&#45;&gt;study</title>
<path fill="none" stroke="#000000" d="M989.7076,-1913.8777C687.6854,-1872.834 154,-1788.3093 154,-1703.5 154,-1703.5 154,-1703.5 154,-1059 154,-1026.8617 154.3495,-993.5416 154.9452,-960.0911"/>
<polygon fill="#000000" stroke="#000000" points="158.4517,-959.7701 155.1379,-949.7069 151.4529,-959.6402 158.4517,-959.7701"/>
<text text-anchor="middle" x="184.5" y="-1360.3" font-family="Times,serif" font-size="14.00" fill="#000000">of_study</text>
</g>
<!-- sample -->
<g id="node10" class="node">
<title>sample</title>
<path fill="none" stroke="#000000" d="M653.5,-1611.5C653.5,-1611.5 1062.5,-1611.5 1062.5,-1611.5 1068.5,-1611.5 1074.5,-1617.5 1074.5,-1623.5 1074.5,-1623.5 1074.5,-1783.5 1074.5,-1783.5 1074.5,-1789.5 1068.5,-1795.5 1062.5,-1795.5 1062.5,-1795.5 653.5,-1795.5 653.5,-1795.5 647.5,-1795.5 641.5,-1789.5 641.5,-1783.5 641.5,-1783.5 641.5,-1623.5 641.5,-1623.5 641.5,-1617.5 647.5,-1611.5 653.5,-1611.5"/>
<text text-anchor="middle" x="675.5" y="-1699.8" font-family="Times,serif" font-size="14.00" fill="#000000">sample</text>
<polyline fill="none" stroke="#000000" points="709.5,-1611.5 709.5,-1795.5 "/>
<text text-anchor="middle" x="720" y="-1699.8" font-family="Times,serif" font-size="14.00" fill="#000000"> </text>
<polyline fill="none" stroke="#000000" points="730.5,-1611.5 730.5,-1795.5 "/>
<text text-anchor="middle" x="892" y="-1780.3" font-family="Times,serif" font-size="14.00" fill="#000000">biosample_accession</text>
<polyline fill="none" stroke="#000000" points="730.5,-1772.5 1053.5,-1772.5 "/>
<text text-anchor="middle" x="892" y="-1757.3" font-family="Times,serif" font-size="14.00" fill="#000000">derived_from_specimen</text>
<polyline fill="none" stroke="#000000" points="730.5,-1749.5 1053.5,-1749.5 "/>
<text text-anchor="middle" x="892" y="-1734.3" font-family="Times,serif" font-size="14.00" fill="#000000">experimental_strategy_and_data_subtypes</text>
<polyline fill="none" stroke="#000000" points="730.5,-1726.5 1053.5,-1726.5 "/>
<text text-anchor="middle" x="892" y="-1711.3" font-family="Times,serif" font-size="14.00" fill="#000000">sample_age_at_collection</text>
<polyline fill="none" stroke="#000000" points="730.5,-1703.5 1053.5,-1703.5 "/>
<text text-anchor="middle" x="892" y="-1688.3" font-family="Times,serif" font-size="14.00" fill="#000000">sample_anatomic_site</text>
<polyline fill="none" stroke="#000000" points="730.5,-1680.5 1053.5,-1680.5 "/>
<text text-anchor="middle" x="892" y="-1665.3" font-family="Times,serif" font-size="14.00" fill="#000000">sample_id</text>
<polyline fill="none" stroke="#000000" points="730.5,-1657.5 1053.5,-1657.5 "/>
<text text-anchor="middle" x="892" y="-1642.3" font-family="Times,serif" font-size="14.00" fill="#000000">sample_tumor_status</text>
<polyline fill="none" stroke="#000000" points="730.5,-1634.5 1053.5,-1634.5 "/>
<text text-anchor="middle" x="892" y="-1619.3" font-family="Times,serif" font-size="14.00" fill="#000000">sample_type</text>
<polyline fill="none" stroke="#000000" points="1053.5,-1611.5 1053.5,-1795.5 "/>
<text text-anchor="middle" x="1064" y="-1699.8" font-family="Times,serif" font-size="14.00" fill="#000000"> </text>
</g>
<!-- file&#45;&gt;sample -->
<g id="edge7" class="edge">
<title>file&#45;&gt;sample</title>
<path fill="none" stroke="#000000" d="M1029.8818,-1847.4172C1020.6759,-1841.3558 1011.654,-1835.1945 1003,-1829 991.3419,-1820.6552 979.5031,-1811.5667 967.8741,-1802.2209"/>
<polygon fill="#000000" stroke="#000000" points="969.8312,-1799.3015 959.8616,-1795.7155 965.419,-1804.7359 969.8312,-1799.3015"/>
<text text-anchor="middle" x="1049.5" y="-1817.8" font-family="Times,serif" font-size="14.00" fill="#000000">from_sample</text>
</g>
<!-- program -->
<g id="node3" class="node">
<title>program</title>
<path fill="none" stroke="#000000" d="M16,-.5C16,-.5 324,-.5 324,-.5 330,-.5 336,-6.5 336,-12.5 336,-12.5 336,-126.5 336,-126.5 336,-132.5 330,-138.5 324,-138.5 324,-138.5 16,-138.5 16,-138.5 10,-138.5 4,-132.5 4,-126.5 4,-126.5 4,-12.5 4,-12.5 4,-6.5 10,-.5 16,-.5"/>
<text text-anchor="middle" x="43" y="-65.8" font-family="Times,serif" font-size="14.00" fill="#000000">program</text>
<polyline fill="none" stroke="#000000" points="82,-.5 82,-138.5 "/>
<text text-anchor="middle" x="92.5" y="-65.8" font-family="Times,serif" font-size="14.00" fill="#000000"> </text>
<polyline fill="none" stroke="#000000" points="103,-.5 103,-138.5 "/>
<text text-anchor="middle" x="209" y="-123.3" font-family="Times,serif" font-size="14.00" fill="#000000">program_acronym</text>
<polyline fill="none" stroke="#000000" points="103,-115.5 315,-115.5 "/>
<text text-anchor="middle" x="209" y="-100.3" font-family="Times,serif" font-size="14.00" fill="#000000">program_external_url</text>
<polyline fill="none" stroke="#000000" points="103,-92.5 315,-92.5 "/>
<text text-anchor="middle" x="209" y="-77.3" font-family="Times,serif" font-size="14.00" fill="#000000">program_full_description</text>
<polyline fill="none" stroke="#000000" points="103,-69.5 315,-69.5 "/>
<text text-anchor="middle" x="209" y="-54.3" font-family="Times,serif" font-size="14.00" fill="#000000">program_name</text>
<polyline fill="none" stroke="#000000" points="103,-46.5 315,-46.5 "/>
<text text-anchor="middle" x="209" y="-31.3" font-family="Times,serif" font-size="14.00" fill="#000000">program_short_description</text>
<polyline fill="none" stroke="#000000" points="103,-23.5 315,-23.5 "/>
<text text-anchor="middle" x="209" y="-8.3" font-family="Times,serif" font-size="14.00" fill="#000000">program_sort_order</text>
<polyline fill="none" stroke="#000000" points="315,-.5 315,-138.5 "/>
<text text-anchor="middle" x="325.5" y="-65.8" font-family="Times,serif" font-size="14.00" fill="#000000"> </text>
</g>
<!-- methylation&#45;&gt;file -->
<g id="edge9" class="edge">
<title>methylation&#45;&gt;file</title>
<path fill="none" stroke="#000000" d="M1137.3027,-1387.2489C1144.7038,-1461.974 1168.1955,-1699.1579 1181.8661,-1837.1833"/>
<polygon fill="#000000" stroke="#000000" points="1178.4049,-1837.7489 1182.8736,-1847.3552 1185.3708,-1837.0589 1178.4049,-1837.7489"/>
<text text-anchor="middle" x="1199" y="-1699.8" font-family="Times,serif" font-size="14.00" fill="#000000">of_file</text>
</g>
<!-- participant&#45;&gt;study -->
<g id="edge12" class="edge">
<title>participant&#45;&gt;study</title>
<path fill="none" stroke="#000000" d="M488.5272,-1001.4675C452.8585,-953.1518 399.3526,-880.6743 346.3272,-808.8477"/>
<polygon fill="#000000" stroke="#000000" points="348.9548,-806.5139 340.1997,-800.5475 343.3232,-810.6714 348.9548,-806.5139"/>
<text text-anchor="middle" x="501.5" y="-971.8" font-family="Times,serif" font-size="14.00" fill="#000000">of_study</text>
</g>
<!-- specimen -->
<g id="node6" class="node">
<title>specimen</title>
<path fill="none" stroke="#000000" d="M600.5,-1346C600.5,-1346 809.5,-1346 809.5,-1346 815.5,-1346 821.5,-1352 821.5,-1358 821.5,-1358 821.5,-1370 821.5,-1370 821.5,-1376 815.5,-1382 809.5,-1382 809.5,-1382 600.5,-1382 600.5,-1382 594.5,-1382 588.5,-1376 588.5,-1370 588.5,-1370 588.5,-1358 588.5,-1358 588.5,-1352 594.5,-1346 600.5,-1346"/>
<text text-anchor="middle" x="631" y="-1360.3" font-family="Times,serif" font-size="14.00" fill="#000000">specimen</text>
<polyline fill="none" stroke="#000000" points="673.5,-1346 673.5,-1382 "/>
<text text-anchor="middle" x="684" y="-1360.3" font-family="Times,serif" font-size="14.00" fill="#000000"> </text>
<polyline fill="none" stroke="#000000" points="694.5,-1346 694.5,-1382 "/>
<text text-anchor="middle" x="747.5" y="-1360.3" font-family="Times,serif" font-size="14.00" fill="#000000">specimen_id</text>
<polyline fill="none" stroke="#000000" points="800.5,-1346 800.5,-1382 "/>
<text text-anchor="middle" x="811" y="-1360.3" font-family="Times,serif" font-size="14.00" fill="#000000"> </text>
</g>
<!-- specimen&#45;&gt;participant -->
<g id="edge3" class="edge">
<title>specimen&#45;&gt;participant</title>
<path fill="none" stroke="#000000" d="M698.0173,-1345.9935C682.2585,-1306.3016 641.5739,-1208.9375 594,-1135 591.87,-1131.6896 589.615,-1128.3614 587.2747,-1125.0453"/>
<polygon fill="#000000" stroke="#000000" points="590.0194,-1122.8687 581.304,-1116.8443 584.3603,-1126.9888 590.0194,-1122.8687"/>
<text text-anchor="middle" x="652.5" y="-1138.8" font-family="Times,serif" font-size="14.00" fill="#000000">of_participant</text>
</g>
<!-- treatment -->
<g id="node7" class="node">
<title>treatment</title>
<path fill="none" stroke="#000000" d="M1424.5,-1882C1424.5,-1882 1689.5,-1882 1689.5,-1882 1695.5,-1882 1701.5,-1888 1701.5,-1894 1701.5,-1894 1701.5,-1985 1701.5,-1985 1701.5,-1991 1695.5,-1997 1689.5,-1997 1689.5,-1997 1424.5,-1997 1424.5,-1997 1418.5,-1997 1412.5,-1991 1412.5,-1985 1412.5,-1985 1412.5,-1894 1412.5,-1894 1412.5,-1888 1418.5,-1882 1424.5,-1882"/>
<text text-anchor="middle" x="1457" y="-1935.8" font-family="Times,serif" font-size="14.00" fill="#000000">treatment</text>
<polyline fill="none" stroke="#000000" points="1501.5,-1882 1501.5,-1997 "/>
<text text-anchor="middle" x="1512" y="-1935.8" font-family="Times,serif" font-size="14.00" fill="#000000"> </text>
<polyline fill="none" stroke="#000000" points="1522.5,-1882 1522.5,-1997 "/>
<text text-anchor="middle" x="1601.5" y="-1981.8" font-family="Times,serif" font-size="14.00" fill="#000000">days_to_treatment</text>
<polyline fill="none" stroke="#000000" points="1522.5,-1974 1680.5,-1974 "/>
<text text-anchor="middle" x="1601.5" y="-1958.8" font-family="Times,serif" font-size="14.00" fill="#000000">therapeutic_agents</text>
<polyline fill="none" stroke="#000000" points="1522.5,-1951 1680.5,-1951 "/>
<text text-anchor="middle" x="1601.5" y="-1935.8" font-family="Times,serif" font-size="14.00" fill="#000000">treatment_id</text>
<polyline fill="none" stroke="#000000" points="1522.5,-1928 1680.5,-1928 "/>
<text text-anchor="middle" x="1601.5" y="-1912.8" font-family="Times,serif" font-size="14.00" fill="#000000">treatment_outcome</text>
<polyline fill="none" stroke="#000000" points="1522.5,-1905 1680.5,-1905 "/>
<text text-anchor="middle" x="1601.5" y="-1889.8" font-family="Times,serif" font-size="14.00" fill="#000000">treatment_type</text>
<polyline fill="none" stroke="#000000" points="1680.5,-1882 1680.5,-1997 "/>
<text text-anchor="middle" x="1691" y="-1935.8" font-family="Times,serif" font-size="14.00" fill="#000000"> </text>
</g>
<!-- genomic_info&#45;&gt;file -->
<g id="edge8" class="edge">
<title>genomic_info&#45;&gt;file</title>
<path fill="none" stroke="#000000" d="M1610.7123,-1536.7262C1629.8646,-1622.5334 1633.6455,-1723.156 1579,-1796 1530.3849,-1860.8053 1480.171,-1819.4112 1404,-1847 1403.8968,-1847.0374 1403.7935,-1847.0748 1403.6902,-1847.1123"/>
<polygon fill="#000000" stroke="#000000" points="1402.2062,-1843.9288 1394.0288,-1850.6653 1404.6224,-1850.4986 1402.2062,-1843.9288"/>
<text text-anchor="middle" x="1645" y="-1699.8" font-family="Times,serif" font-size="14.00" fill="#000000">of_file</text>
</g>
<!-- study&#45;&gt;program -->
<g id="edge10" class="edge">
<title>study&#45;&gt;program</title>
<path fill="none" stroke="#000000" d="M170,-190.338C170,-175.5265 170,-161.5495 170,-148.7219"/>
<polygon fill="#000000" stroke="#000000" points="173.5001,-148.6868 170,-138.6868 166.5001,-148.6869 173.5001,-148.6868"/>
<text text-anchor="middle" x="211.5" y="-160.8" font-family="Times,serif" font-size="14.00" fill="#000000">of_program</text>
</g>
<!-- sample&#45;&gt;methylation -->
<g id="edge6" class="edge">
<title>sample&#45;&gt;methylation</title>
<path fill="none" stroke="#000000" d="M933.3256,-1611.1786C992.0859,-1539.16 1070.1544,-1443.4768 1109.7125,-1394.9931"/>
<polygon fill="#000000" stroke="#000000" points="1112.5702,-1397.0271 1116.1801,-1387.0662 1107.1464,-1392.6018 1112.5702,-1397.0271"/>
<text text-anchor="middle" x="1009.5" y="-1581.8" font-family="Times,serif" font-size="14.00" fill="#000000">in_methylation</text>
</g>
<!-- sample&#45;&gt;participant -->
<g id="edge1" class="edge">
<title>sample&#45;&gt;participant</title>
<path fill="none" stroke="#000000" d="M858.6401,-1611.3481C858.8313,-1467.5729 855.6348,-1202.6663 830,-1168 810.7832,-1142.0129 746.6828,-1117.0131 682.7366,-1097.5257"/>
<polygon fill="#000000" stroke="#000000" points="683.4802,-1094.0946 672.896,-1094.5688 681.4657,-1100.7985 683.4802,-1094.0946"/>
<text text-anchor="middle" x="909.5" y="-1360.3" font-family="Times,serif" font-size="14.00" fill="#000000">of_participant</text>
</g>
<!-- sample&#45;&gt;specimen -->
<g id="edge13" class="edge">
<title>sample&#45;&gt;specimen</title>
<path fill="none" stroke="#000000" d="M764.9293,-1611.2142C760.9273,-1605.2697 757.2421,-1599.1828 754,-1593 719.202,-1526.6379 709.1116,-1437.1362 706.1891,-1392.209"/>
<polygon fill="#000000" stroke="#000000" points="709.6728,-1391.8247 705.6025,-1382.0429 702.6844,-1392.228 709.6728,-1391.8247"/>
<text text-anchor="middle" x="799" y="-1581.8" font-family="Times,serif" font-size="14.00" fill="#000000">of_specimen</text>
</g>
<!-- sample&#45;&gt;genomic_info -->
<g id="edge4" class="edge">
<title>sample&#45;&gt;genomic_info</title>
<path fill="none" stroke="#000000" d="M1074.6787,-1615.3395C1079.1473,-1613.8519 1083.5913,-1612.4033 1088,-1611 1181.1687,-1581.3438 1214.0599,-1602.7368 1302,-1560 1313.2667,-1554.5247 1324.4926,-1548.4622 1335.5952,-1541.9612"/>
<polygon fill="#000000" stroke="#000000" points="1337.683,-1544.7909 1344.4712,-1536.6564 1334.0918,-1538.7823 1337.683,-1544.7909"/>
<text text-anchor="middle" x="1312.5" y="-1581.8" font-family="Times,serif" font-size="14.00" fill="#000000">in_genomic_info</text>
</g>
</g>
</svg>
