<svg width="1372pt" height="2207pt"
 viewBox="0.00 0.00 1371.50 2207.00" xmlns="http://www.w3.org/2000/svg" xmlns:xlink="http://www.w3.org/1999/xlink">
<g id="graph0" class="graph" transform="scale(1 1) rotate(0) translate(4 2203)">
<title>Perl</title>
<polygon fill="#ffffff" stroke="transparent" points="-4,4 -4,-2203 1367.5,-2203 1367.5,4 -4,4"/>
<!-- treatment -->
<g id="node1" class="node">
<title>treatment</title>
<path fill="none" stroke="#000000" d="M12,-2083.5C12,-2083.5 277,-2083.5 277,-2083.5 283,-2083.5 289,-2089.5 289,-2095.5 289,-2095.5 289,-2186.5 289,-2186.5 289,-2192.5 283,-2198.5 277,-2198.5 277,-2198.5 12,-2198.5 12,-2198.5 6,-2198.5 0,-2192.5 0,-2186.5 0,-2186.5 0,-2095.5 0,-2095.5 0,-2089.5 6,-2083.5 12,-2083.5"/>
<text text-anchor="middle" x="44.5" y="-2137.3" font-family="Times,serif" font-size="14.00" fill="#000000">treatment</text>
<polyline fill="none" stroke="#000000" points="89,-2083.5 89,-2198.5 "/>
<text text-anchor="middle" x="99.5" y="-2137.3" font-family="Times,serif" font-size="14.00" fill="#000000"> </text>
<polyline fill="none" stroke="#000000" points="110,-2083.5 110,-2198.5 "/>
<text text-anchor="middle" x="189" y="-2183.3" font-family="Times,serif" font-size="14.00" fill="#000000">days_to_treatment</text>
<polyline fill="none" stroke="#000000" points="110,-2175.5 268,-2175.5 "/>
<text text-anchor="middle" x="189" y="-2160.3" font-family="Times,serif" font-size="14.00" fill="#000000">therapeutic_agents</text>
<polyline fill="none" stroke="#000000" points="110,-2152.5 268,-2152.5 "/>
<text text-anchor="middle" x="189" y="-2137.3" font-family="Times,serif" font-size="14.00" fill="#000000">treatment_id</text>
<polyline fill="none" stroke="#000000" points="110,-2129.5 268,-2129.5 "/>
<text text-anchor="middle" x="189" y="-2114.3" font-family="Times,serif" font-size="14.00" fill="#000000">treatment_outcome</text>
<polyline fill="none" stroke="#000000" points="110,-2106.5 268,-2106.5 "/>
<text text-anchor="middle" x="189" y="-2091.3" font-family="Times,serif" font-size="14.00" fill="#000000">treatment_type</text>
<polyline fill="none" stroke="#000000" points="268,-2083.5 268,-2198.5 "/>
<text text-anchor="middle" x="278.5" y="-2137.3" font-family="Times,serif" font-size="14.00" fill="#000000"> </text>
</g>
<!-- methylation -->
<g id="node2" class="node">
<title>methylation</title>
<path fill="none" stroke="#000000" d="M319,-2118C319,-2118 610,-2118 610,-2118 616,-2118 622,-2124 622,-2130 622,-2130 622,-2152 622,-2152 622,-2158 616,-2164 610,-2164 610,-2164 319,-2164 319,-2164 313,-2164 307,-2158 307,-2152 307,-2152 307,-2130 307,-2130 307,-2124 313,-2118 319,-2118"/>
<text text-anchor="middle" x="358" y="-2137.3" font-family="Times,serif" font-size="14.00" fill="#000000">methylation</text>
<polyline fill="none" stroke="#000000" points="409,-2118 409,-2164 "/>
<text text-anchor="middle" x="419.5" y="-2137.3" font-family="Times,serif" font-size="14.00" fill="#000000"> </text>
<polyline fill="none" stroke="#000000" points="430,-2118 430,-2164 "/>
<text text-anchor="middle" x="515.5" y="-2148.8" font-family="Times,serif" font-size="14.00" fill="#000000">methylation_platform</text>
<polyline fill="none" stroke="#000000" points="430,-2141 601,-2141 "/>
<text text-anchor="middle" x="515.5" y="-2125.8" font-family="Times,serif" font-size="14.00" fill="#000000">reporter_label</text>
<polyline fill="none" stroke="#000000" points="601,-2118 601,-2164 "/>
<text text-anchor="middle" x="611.5" y="-2137.3" font-family="Times,serif" font-size="14.00" fill="#000000"> </text>
</g>
<!-- file -->
<g id="node10" class="node">
<title>file</title>
<path fill="none" stroke="#000000" d="M207.5,-1847.5C207.5,-1847.5 587.5,-1847.5 587.5,-1847.5 593.5,-1847.5 599.5,-1853.5 599.5,-1859.5 599.5,-1859.5 599.5,-2019.5 599.5,-2019.5 599.5,-2025.5 593.5,-2031.5 587.5,-2031.5 587.5,-2031.5 207.5,-2031.5 207.5,-2031.5 201.5,-2031.5 195.5,-2025.5 195.5,-2019.5 195.5,-2019.5 195.5,-1859.5 195.5,-1859.5 195.5,-1853.5 201.5,-1847.5 207.5,-1847.5"/>
<text text-anchor="middle" x="215" y="-1935.8" font-family="Times,serif" font-size="14.00" fill="#000000">file</text>
<polyline fill="none" stroke="#000000" points="234.5,-1847.5 234.5,-2031.5 "/>
<text text-anchor="middle" x="245" y="-1935.8" font-family="Times,serif" font-size="14.00" fill="#000000"> </text>
<polyline fill="none" stroke="#000000" points="255.5,-1847.5 255.5,-2031.5 "/>
<text text-anchor="middle" x="417" y="-2016.3" font-family="Times,serif" font-size="14.00" fill="#000000">experimental_strategy_and_data_subtypes</text>
<polyline fill="none" stroke="#000000" points="255.5,-2008.5 578.5,-2008.5 "/>
<text text-anchor="middle" x="417" y="-1993.3" font-family="Times,serif" font-size="14.00" fill="#000000">file_description</text>
<polyline fill="none" stroke="#000000" points="255.5,-1985.5 578.5,-1985.5 "/>
<text text-anchor="middle" x="417" y="-1970.3" font-family="Times,serif" font-size="14.00" fill="#000000">file_id</text>
<polyline fill="none" stroke="#000000" points="255.5,-1962.5 578.5,-1962.5 "/>
<text text-anchor="middle" x="417" y="-1947.3" font-family="Times,serif" font-size="14.00" fill="#000000">file_name</text>
<polyline fill="none" stroke="#000000" points="255.5,-1939.5 578.5,-1939.5 "/>
<text text-anchor="middle" x="417" y="-1924.3" font-family="Times,serif" font-size="14.00" fill="#000000">file_size</text>
<polyline fill="none" stroke="#000000" points="255.5,-1916.5 578.5,-1916.5 "/>
<text text-anchor="middle" x="417" y="-1901.3" font-family="Times,serif" font-size="14.00" fill="#000000">file_type</text>
<polyline fill="none" stroke="#000000" points="255.5,-1893.5 578.5,-1893.5 "/>
<text text-anchor="middle" x="417" y="-1878.3" font-family="Times,serif" font-size="14.00" fill="#000000">file_url_in_cds</text>
<polyline fill="none" stroke="#000000" points="255.5,-1870.5 578.5,-1870.5 "/>
<text text-anchor="middle" x="417" y="-1855.3" font-family="Times,serif" font-size="14.00" fill="#000000">md5sum</text>
<polyline fill="none" stroke="#000000" points="578.5,-1847.5 578.5,-2031.5 "/>
<text text-anchor="middle" x="589" y="-1935.8" font-family="Times,serif" font-size="14.00" fill="#000000"> </text>
</g>
<!-- methylation&#45;&gt;file -->
<g id="edge2" class="edge">
<title>methylation&#45;&gt;file</title>
<path fill="none" stroke="#000000" d="M436.4097,-2117.7151C422.1431,-2104.0308 406.2264,-2085.4321 398.5,-2065 395.7093,-2057.6201 393.688,-2049.8169 392.2744,-2041.858"/>
<polygon fill="#000000" stroke="#000000" points="395.7017,-2041.1044 390.7966,-2031.7134 388.7748,-2042.1135 395.7017,-2041.1044"/>
<text text-anchor="middle" x="420.5" y="-2053.8" font-family="Times,serif" font-size="14.00" fill="#000000">of_file</text>
</g>
<!-- genomic_info -->
<g id="node3" class="node">
<title>genomic_info</title>
<path fill="none" stroke="#000000" d="M151,-1191.5C151,-1191.5 604,-1191.5 604,-1191.5 610,-1191.5 616,-1197.5 616,-1203.5 616,-1203.5 616,-1524.5 616,-1524.5 616,-1530.5 610,-1536.5 604,-1536.5 604,-1536.5 151,-1536.5 151,-1536.5 145,-1536.5 139,-1530.5 139,-1524.5 139,-1524.5 139,-1203.5 139,-1203.5 139,-1197.5 145,-1191.5 151,-1191.5"/>
<text text-anchor="middle" x="195" y="-1360.3" font-family="Times,serif" font-size="14.00" fill="#000000">genomic_info</text>
<polyline fill="none" stroke="#000000" points="251,-1191.5 251,-1536.5 "/>
<text text-anchor="middle" x="261.5" y="-1360.3" font-family="Times,serif" font-size="14.00" fill="#000000"> </text>
<polyline fill="none" stroke="#000000" points="272,-1191.5 272,-1536.5 "/>
<text text-anchor="middle" x="433.5" y="-1521.3" font-family="Times,serif" font-size="14.00" fill="#000000">avg_read_length</text>
<polyline fill="none" stroke="#000000" points="272,-1513.5 595,-1513.5 "/>
<text text-anchor="middle" x="433.5" y="-1498.3" font-family="Times,serif" font-size="14.00" fill="#000000">bases</text>
<polyline fill="none" stroke="#000000" points="272,-1490.5 595,-1490.5 "/>
<text text-anchor="middle" x="433.5" y="-1475.3" font-family="Times,serif" font-size="14.00" fill="#000000">coverage</text>
<polyline fill="none" stroke="#000000" points="272,-1467.5 595,-1467.5 "/>
<text text-anchor="middle" x="433.5" y="-1452.3" font-family="Times,serif" font-size="14.00" fill="#000000">custom_assembly_fasta_file_for_alignment</text>
<polyline fill="none" stroke="#000000" points="272,-1444.5 595,-1444.5 "/>
<text text-anchor="middle" x="433.5" y="-1429.3" font-family="Times,serif" font-size="14.00" fill="#000000">design_description</text>
<polyline fill="none" stroke="#000000" points="272,-1421.5 595,-1421.5 "/>
<text text-anchor="middle" x="433.5" y="-1406.3" font-family="Times,serif" font-size="14.00" fill="#000000">instrument_model</text>
<polyline fill="none" stroke="#000000" points="272,-1398.5 595,-1398.5 "/>
<text text-anchor="middle" x="433.5" y="-1383.3" font-family="Times,serif" font-size="14.00" fill="#000000">library_id</text>
<polyline fill="none" stroke="#000000" points="272,-1375.5 595,-1375.5 "/>
<text text-anchor="middle" x="433.5" y="-1360.3" font-family="Times,serif" font-size="14.00" fill="#000000">library_layout</text>
<polyline fill="none" stroke="#000000" points="272,-1352.5 595,-1352.5 "/>
<text text-anchor="middle" x="433.5" y="-1337.3" font-family="Times,serif" font-size="14.00" fill="#000000">library_selection</text>
<polyline fill="none" stroke="#000000" points="272,-1329.5 595,-1329.5 "/>
<text text-anchor="middle" x="433.5" y="-1314.3" font-family="Times,serif" font-size="14.00" fill="#000000">library_source</text>
<polyline fill="none" stroke="#000000" points="272,-1306.5 595,-1306.5 "/>
<text text-anchor="middle" x="433.5" y="-1291.3" font-family="Times,serif" font-size="14.00" fill="#000000">library_strategy</text>
<polyline fill="none" stroke="#000000" points="272,-1283.5 595,-1283.5 "/>
<text text-anchor="middle" x="433.5" y="-1268.3" font-family="Times,serif" font-size="14.00" fill="#000000">number_of_reads</text>
<polyline fill="none" stroke="#000000" points="272,-1260.5 595,-1260.5 "/>
<text text-anchor="middle" x="433.5" y="-1245.3" font-family="Times,serif" font-size="14.00" fill="#000000">platform</text>
<polyline fill="none" stroke="#000000" points="272,-1237.5 595,-1237.5 "/>
<text text-anchor="middle" x="433.5" y="-1222.3" font-family="Times,serif" font-size="14.00" fill="#000000">reference_genome_assembly</text>
<polyline fill="none" stroke="#000000" points="272,-1214.5 595,-1214.5 "/>
<text text-anchor="middle" x="433.5" y="-1199.3" font-family="Times,serif" font-size="14.00" fill="#000000">sequence_alignment_software</text>
<polyline fill="none" stroke="#000000" points="595,-1191.5 595,-1536.5 "/>
<text text-anchor="middle" x="605.5" y="-1360.3" font-family="Times,serif" font-size="14.00" fill="#000000"> </text>
</g>
<!-- genomic_info&#45;&gt;file -->
<g id="edge3" class="edge">
<title>genomic_info&#45;&gt;file</title>
<path fill="none" stroke="#000000" d="M379.6636,-1536.7007C381.1254,-1615.7663 383.541,-1710.6627 387.5,-1796 388.1193,-1809.3495 388.9166,-1823.3881 389.7905,-1837.2444"/>
<polygon fill="#000000" stroke="#000000" points="386.3019,-1837.5356 390.4389,-1847.2894 393.2874,-1837.0846 386.3019,-1837.5356"/>
<text text-anchor="middle" x="409.5" y="-1699.8" font-family="Times,serif" font-size="14.00" fill="#000000">of_file</text>
</g>
<!-- participant -->
<g id="node4" class="node">
<title>participant</title>
<path fill="none" stroke="#000000" d="M761,-1001.5C761,-1001.5 1020,-1001.5 1020,-1001.5 1026,-1001.5 1032,-1007.5 1032,-1013.5 1032,-1013.5 1032,-1104.5 1032,-1104.5 1032,-1110.5 1026,-1116.5 1020,-1116.5 1020,-1116.5 761,-1116.5 761,-1116.5 755,-1116.5 749,-1110.5 749,-1104.5 749,-1104.5 749,-1013.5 749,-1013.5 749,-1007.5 755,-1001.5 761,-1001.5"/>
<text text-anchor="middle" x="797" y="-1055.3" font-family="Times,serif" font-size="14.00" fill="#000000">participant</text>
<polyline fill="none" stroke="#000000" points="845,-1001.5 845,-1116.5 "/>
<text text-anchor="middle" x="855.5" y="-1055.3" font-family="Times,serif" font-size="14.00" fill="#000000"> </text>
<polyline fill="none" stroke="#000000" points="866,-1001.5 866,-1116.5 "/>
<text text-anchor="middle" x="938.5" y="-1101.3" font-family="Times,serif" font-size="14.00" fill="#000000">dbGaP_subject_id</text>
<polyline fill="none" stroke="#000000" points="866,-1093.5 1011,-1093.5 "/>
<text text-anchor="middle" x="938.5" y="-1078.3" font-family="Times,serif" font-size="14.00" fill="#000000">ethnicity</text>
<polyline fill="none" stroke="#000000" points="866,-1070.5 1011,-1070.5 "/>
<text text-anchor="middle" x="938.5" y="-1055.3" font-family="Times,serif" font-size="14.00" fill="#000000">gender</text>
<polyline fill="none" stroke="#000000" points="866,-1047.5 1011,-1047.5 "/>
<text text-anchor="middle" x="938.5" y="-1032.3" font-family="Times,serif" font-size="14.00" fill="#000000">participant_id</text>
<polyline fill="none" stroke="#000000" points="866,-1024.5 1011,-1024.5 "/>
<text text-anchor="middle" x="938.5" y="-1009.3" font-family="Times,serif" font-size="14.00" fill="#000000">race</text>
<polyline fill="none" stroke="#000000" points="1011,-1001.5 1011,-1116.5 "/>
<text text-anchor="middle" x="1021.5" y="-1055.3" font-family="Times,serif" font-size="14.00" fill="#000000"> </text>
</g>
<!-- study -->
<g id="node9" class="node">
<title>study</title>
<path fill="none" stroke="#000000" d="M732.5,-190.5C732.5,-190.5 1048.5,-190.5 1048.5,-190.5 1054.5,-190.5 1060.5,-196.5 1060.5,-202.5 1060.5,-202.5 1060.5,-937.5 1060.5,-937.5 1060.5,-943.5 1054.5,-949.5 1048.5,-949.5 1048.5,-949.5 732.5,-949.5 732.5,-949.5 726.5,-949.5 720.5,-943.5 720.5,-937.5 720.5,-937.5 720.5,-202.5 720.5,-202.5 720.5,-196.5 726.5,-190.5 732.5,-190.5"/>
<text text-anchor="middle" x="748.5" y="-566.3" font-family="Times,serif" font-size="14.00" fill="#000000">study</text>
<polyline fill="none" stroke="#000000" points="776.5,-190.5 776.5,-949.5 "/>
<text text-anchor="middle" x="787" y="-566.3" font-family="Times,serif" font-size="14.00" fill="#000000"> </text>
<polyline fill="none" stroke="#000000" points="797.5,-190.5 797.5,-949.5 "/>
<text text-anchor="middle" x="918.5" y="-934.3" font-family="Times,serif" font-size="14.00" fill="#000000">acl</text>
<polyline fill="none" stroke="#000000" points="797.5,-926.5 1039.5,-926.5 "/>
<text text-anchor="middle" x="918.5" y="-911.3" font-family="Times,serif" font-size="14.00" fill="#000000">adult_or_childhood_study</text>
<polyline fill="none" stroke="#000000" points="797.5,-903.5 1039.5,-903.5 "/>
<text text-anchor="middle" x="918.5" y="-888.3" font-family="Times,serif" font-size="14.00" fill="#000000">bioproject_accession</text>
<polyline fill="none" stroke="#000000" points="797.5,-880.5 1039.5,-880.5 "/>
<text text-anchor="middle" x="918.5" y="-865.3" font-family="Times,serif" font-size="14.00" fill="#000000">cds_primary_bucket</text>
<polyline fill="none" stroke="#000000" points="797.5,-857.5 1039.5,-857.5 "/>
<text text-anchor="middle" x="918.5" y="-842.3" font-family="Times,serif" font-size="14.00" fill="#000000">cds_requestor</text>
<polyline fill="none" stroke="#000000" points="797.5,-834.5 1039.5,-834.5 "/>
<text text-anchor="middle" x="918.5" y="-819.3" font-family="Times,serif" font-size="14.00" fill="#000000">cds_secondary_bucket</text>
<polyline fill="none" stroke="#000000" points="797.5,-811.5 1039.5,-811.5 "/>
<text text-anchor="middle" x="918.5" y="-796.3" font-family="Times,serif" font-size="14.00" fill="#000000">cds_tertiary_bucket</text>
<polyline fill="none" stroke="#000000" points="797.5,-788.5 1039.5,-788.5 "/>
<text text-anchor="middle" x="918.5" y="-773.3" font-family="Times,serif" font-size="14.00" fill="#000000">clinical_trial_arm</text>
<polyline fill="none" stroke="#000000" points="797.5,-765.5 1039.5,-765.5 "/>
<text text-anchor="middle" x="918.5" y="-750.3" font-family="Times,serif" font-size="14.00" fill="#000000">clinical_trial_identifier</text>
<polyline fill="none" stroke="#000000" points="797.5,-742.5 1039.5,-742.5 "/>
<text text-anchor="middle" x="918.5" y="-727.3" font-family="Times,serif" font-size="14.00" fill="#000000">clinical_trial_system</text>
<polyline fill="none" stroke="#000000" points="797.5,-719.5 1039.5,-719.5 "/>
<text text-anchor="middle" x="918.5" y="-704.3" font-family="Times,serif" font-size="14.00" fill="#000000">co_investigator_email</text>
<polyline fill="none" stroke="#000000" points="797.5,-696.5 1039.5,-696.5 "/>
<text text-anchor="middle" x="918.5" y="-681.3" font-family="Times,serif" font-size="14.00" fill="#000000">co_investigator_name</text>
<polyline fill="none" stroke="#000000" points="797.5,-673.5 1039.5,-673.5 "/>
<text text-anchor="middle" x="918.5" y="-658.3" font-family="Times,serif" font-size="14.00" fill="#000000">data_access_level</text>
<polyline fill="none" stroke="#000000" points="797.5,-650.5 1039.5,-650.5 "/>
<text text-anchor="middle" x="918.5" y="-635.3" font-family="Times,serif" font-size="14.00" fill="#000000">data_types</text>
<polyline fill="none" stroke="#000000" points="797.5,-627.5 1039.5,-627.5 "/>
<text text-anchor="middle" x="918.5" y="-612.3" font-family="Times,serif" font-size="14.00" fill="#000000">file_types</text>
<polyline fill="none" stroke="#000000" points="797.5,-604.5 1039.5,-604.5 "/>
<text text-anchor="middle" x="918.5" y="-589.3" font-family="Times,serif" font-size="14.00" fill="#000000">file_types_and_format</text>
<polyline fill="none" stroke="#000000" points="797.5,-581.5 1039.5,-581.5 "/>
<text text-anchor="middle" x="918.5" y="-566.3" font-family="Times,serif" font-size="14.00" fill="#000000">funding_agency</text>
<polyline fill="none" stroke="#000000" points="797.5,-558.5 1039.5,-558.5 "/>
<text text-anchor="middle" x="918.5" y="-543.3" font-family="Times,serif" font-size="14.00" fill="#000000">funding_source_program_name</text>
<polyline fill="none" stroke="#000000" points="797.5,-535.5 1039.5,-535.5 "/>
<text text-anchor="middle" x="918.5" y="-520.3" font-family="Times,serif" font-size="14.00" fill="#000000">grant_id</text>
<polyline fill="none" stroke="#000000" points="797.5,-512.5 1039.5,-512.5 "/>
<text text-anchor="middle" x="918.5" y="-497.3" font-family="Times,serif" font-size="14.00" fill="#000000">index_date</text>
<polyline fill="none" stroke="#000000" points="797.5,-489.5 1039.5,-489.5 "/>
<text text-anchor="middle" x="918.5" y="-474.3" font-family="Times,serif" font-size="14.00" fill="#000000">number_of_participants</text>
<polyline fill="none" stroke="#000000" points="797.5,-466.5 1039.5,-466.5 "/>
<text text-anchor="middle" x="918.5" y="-451.3" font-family="Times,serif" font-size="14.00" fill="#000000">number_of_samples</text>
<polyline fill="none" stroke="#000000" points="797.5,-443.5 1039.5,-443.5 "/>
<text text-anchor="middle" x="918.5" y="-428.3" font-family="Times,serif" font-size="14.00" fill="#000000">organism_species</text>
<polyline fill="none" stroke="#000000" points="797.5,-420.5 1039.5,-420.5 "/>
<text text-anchor="middle" x="918.5" y="-405.3" font-family="Times,serif" font-size="14.00" fill="#000000">phs_accession</text>
<polyline fill="none" stroke="#000000" points="797.5,-397.5 1039.5,-397.5 "/>
<text text-anchor="middle" x="918.5" y="-382.3" font-family="Times,serif" font-size="14.00" fill="#000000">primary_investigator_email</text>
<polyline fill="none" stroke="#000000" points="797.5,-374.5 1039.5,-374.5 "/>
<text text-anchor="middle" x="918.5" y="-359.3" font-family="Times,serif" font-size="14.00" fill="#000000">primary_investigator_name</text>
<polyline fill="none" stroke="#000000" points="797.5,-351.5 1039.5,-351.5 "/>
<text text-anchor="middle" x="918.5" y="-336.3" font-family="Times,serif" font-size="14.00" fill="#000000">short_description</text>
<polyline fill="none" stroke="#000000" points="797.5,-328.5 1039.5,-328.5 "/>
<text text-anchor="middle" x="918.5" y="-313.3" font-family="Times,serif" font-size="14.00" fill="#000000">size_of_data_being_uploaded</text>
<polyline fill="none" stroke="#000000" points="797.5,-305.5 1039.5,-305.5 "/>
<text text-anchor="middle" x="918.5" y="-290.3" font-family="Times,serif" font-size="14.00" fill="#000000">study_acronym</text>
<polyline fill="none" stroke="#000000" points="797.5,-282.5 1039.5,-282.5 "/>
<text text-anchor="middle" x="918.5" y="-267.3" font-family="Times,serif" font-size="14.00" fill="#000000">study_data_types</text>
<polyline fill="none" stroke="#000000" points="797.5,-259.5 1039.5,-259.5 "/>
<text text-anchor="middle" x="918.5" y="-244.3" font-family="Times,serif" font-size="14.00" fill="#000000">study_description</text>
<polyline fill="none" stroke="#000000" points="797.5,-236.5 1039.5,-236.5 "/>
<text text-anchor="middle" x="918.5" y="-221.3" font-family="Times,serif" font-size="14.00" fill="#000000">study_external_url</text>
<polyline fill="none" stroke="#000000" points="797.5,-213.5 1039.5,-213.5 "/>
<text text-anchor="middle" x="918.5" y="-198.3" font-family="Times,serif" font-size="14.00" fill="#000000">study_name</text>
<polyline fill="none" stroke="#000000" points="1039.5,-190.5 1039.5,-949.5 "/>
<text text-anchor="middle" x="1050" y="-566.3" font-family="Times,serif" font-size="14.00" fill="#000000"> </text>
</g>
<!-- participant&#45;&gt;study -->
<g id="edge13" class="edge">
<title>participant&#45;&gt;study</title>
<path fill="none" stroke="#000000" d="M890.5,-1001.4675C890.5,-989.0414 890.5,-975.0171 890.5,-959.8168"/>
<polygon fill="#000000" stroke="#000000" points="894.0001,-959.6631 890.5,-949.6632 887.0001,-959.6632 894.0001,-959.6631"/>
<text text-anchor="middle" x="921" y="-971.8" font-family="Times,serif" font-size="14.00" fill="#000000">of_study</text>
</g>
<!-- specimen -->
<g id="node5" class="node">
<title>specimen</title>
<path fill="none" stroke="#000000" d="M786,-1346C786,-1346 995,-1346 995,-1346 1001,-1346 1007,-1352 1007,-1358 1007,-1358 1007,-1370 1007,-1370 1007,-1376 1001,-1382 995,-1382 995,-1382 786,-1382 786,-1382 780,-1382 774,-1376 774,-1370 774,-1370 774,-1358 774,-1358 774,-1352 780,-1346 786,-1346"/>
<text text-anchor="middle" x="816.5" y="-1360.3" font-family="Times,serif" font-size="14.00" fill="#000000">specimen</text>
<polyline fill="none" stroke="#000000" points="859,-1346 859,-1382 "/>
<text text-anchor="middle" x="869.5" y="-1360.3" font-family="Times,serif" font-size="14.00" fill="#000000"> </text>
<polyline fill="none" stroke="#000000" points="880,-1346 880,-1382 "/>
<text text-anchor="middle" x="933" y="-1360.3" font-family="Times,serif" font-size="14.00" fill="#000000">specimen_id</text>
<polyline fill="none" stroke="#000000" points="986,-1346 986,-1382 "/>
<text text-anchor="middle" x="996.5" y="-1360.3" font-family="Times,serif" font-size="14.00" fill="#000000"> </text>
</g>
<!-- specimen&#45;&gt;participant -->
<g id="edge8" class="edge">
<title>specimen&#45;&gt;participant</title>
<path fill="none" stroke="#000000" d="M890.5,-1345.8343C890.5,-1303.6641 890.5,-1197.3488 890.5,-1126.676"/>
<polygon fill="#000000" stroke="#000000" points="894.0001,-1126.5193 890.5,-1116.5193 887.0001,-1126.5194 894.0001,-1126.5193"/>
<text text-anchor="middle" x="941" y="-1138.8" font-family="Times,serif" font-size="14.00" fill="#000000">of_participant</text>
</g>
<!-- sample -->
<g id="node6" class="node">
<title>sample</title>
<path fill="none" stroke="#000000" d="M452,-1611.5C452,-1611.5 861,-1611.5 861,-1611.5 867,-1611.5 873,-1617.5 873,-1623.5 873,-1623.5 873,-1783.5 873,-1783.5 873,-1789.5 867,-1795.5 861,-1795.5 861,-1795.5 452,-1795.5 452,-1795.5 446,-1795.5 440,-1789.5 440,-1783.5 440,-1783.5 440,-1623.5 440,-1623.5 440,-1617.5 446,-1611.5 452,-1611.5"/>
<text text-anchor="middle" x="474" y="-1699.8" font-family="Times,serif" font-size="14.00" fill="#000000">sample</text>
<polyline fill="none" stroke="#000000" points="508,-1611.5 508,-1795.5 "/>
<text text-anchor="middle" x="518.5" y="-1699.8" font-family="Times,serif" font-size="14.00" fill="#000000"> </text>
<polyline fill="none" stroke="#000000" points="529,-1611.5 529,-1795.5 "/>
<text text-anchor="middle" x="690.5" y="-1780.3" font-family="Times,serif" font-size="14.00" fill="#000000">biosample_accession</text>
<polyline fill="none" stroke="#000000" points="529,-1772.5 852,-1772.5 "/>
<text text-anchor="middle" x="690.5" y="-1757.3" font-family="Times,serif" font-size="14.00" fill="#000000">derived_from_specimen</text>
<polyline fill="none" stroke="#000000" points="529,-1749.5 852,-1749.5 "/>
<text text-anchor="middle" x="690.5" y="-1734.3" font-family="Times,serif" font-size="14.00" fill="#000000">experimental_strategy_and_data_subtypes</text>
<polyline fill="none" stroke="#000000" points="529,-1726.5 852,-1726.5 "/>
<text text-anchor="middle" x="690.5" y="-1711.3" font-family="Times,serif" font-size="14.00" fill="#000000">sample_age_at_collection</text>
<polyline fill="none" stroke="#000000" points="529,-1703.5 852,-1703.5 "/>
<text text-anchor="middle" x="690.5" y="-1688.3" font-family="Times,serif" font-size="14.00" fill="#000000">sample_anatomic_site</text>
<polyline fill="none" stroke="#000000" points="529,-1680.5 852,-1680.5 "/>
<text text-anchor="middle" x="690.5" y="-1665.3" font-family="Times,serif" font-size="14.00" fill="#000000">sample_id</text>
<polyline fill="none" stroke="#000000" points="529,-1657.5 852,-1657.5 "/>
<text text-anchor="middle" x="690.5" y="-1642.3" font-family="Times,serif" font-size="14.00" fill="#000000">sample_tumor_status</text>
<polyline fill="none" stroke="#000000" points="529,-1634.5 852,-1634.5 "/>
<text text-anchor="middle" x="690.5" y="-1619.3" font-family="Times,serif" font-size="14.00" fill="#000000">sample_type</text>
<polyline fill="none" stroke="#000000" points="852,-1611.5 852,-1795.5 "/>
<text text-anchor="middle" x="862.5" y="-1699.8" font-family="Times,serif" font-size="14.00" fill="#000000"> </text>
</g>
<!-- sample&#45;&gt;methylation -->
<g id="edge5" class="edge">
<title>sample&#45;&gt;methylation</title>
<path fill="none" stroke="#000000" d="M657.2687,-1795.8105C654.5272,-1864.0405 643.653,-1957.6111 608.5,-2032 591.6018,-2067.7591 556.3946,-2094.7426 525.0242,-2112.9167"/>
<polygon fill="#000000" stroke="#000000" points="523.3079,-2109.8663 516.2963,-2117.8091 526.7307,-2115.9724 523.3079,-2109.8663"/>
<text text-anchor="middle" x="707" y="-1935.8" font-family="Times,serif" font-size="14.00" fill="#000000">in_methylation</text>
</g>
<!-- sample&#45;&gt;genomic_info -->
<g id="edge12" class="edge">
<title>sample&#45;&gt;genomic_info</title>
<path fill="none" stroke="#000000" d="M540.8229,-1611.3521C534.7806,-1605.3298 528.9594,-1599.1925 523.5,-1593 510.3032,-1578.0309 497.4792,-1561.752 485.2656,-1545.0056"/>
<polygon fill="#000000" stroke="#000000" points="488.0045,-1542.8195 479.32,-1536.7508 482.3245,-1546.9107 488.0045,-1542.8195"/>
<text text-anchor="middle" x="582" y="-1581.8" font-family="Times,serif" font-size="14.00" fill="#000000">in_genomic_info</text>
</g>
<!-- sample&#45;&gt;participant -->
<g id="edge9" class="edge">
<title>sample&#45;&gt;participant</title>
<path fill="none" stroke="#000000" d="M646.5507,-1611.3596C634.0114,-1477.9094 619.159,-1239.0235 664.5,-1168 682.4499,-1139.8828 709.8836,-1118.8337 739.5211,-1103.1402"/>
<polygon fill="#000000" stroke="#000000" points="741.4487,-1106.0869 748.7817,-1098.4398 738.2804,-1099.8449 741.4487,-1106.0869"/>
<text text-anchor="middle" x="715" y="-1360.3" font-family="Times,serif" font-size="14.00" fill="#000000">of_participant</text>
</g>
<!-- sample&#45;&gt;specimen -->
<g id="edge11" class="edge">
<title>sample&#45;&gt;specimen</title>
<path fill="none" stroke="#000000" d="M723.4445,-1611.1898C735.5449,-1594.2341 747.9739,-1576.6374 759.5,-1560 801.0373,-1500.0429 848.2275,-1428.5785 873.0704,-1390.6845"/>
<polygon fill="#000000" stroke="#000000" points="876.0492,-1392.5244 878.6,-1382.2412 870.1933,-1388.6893 876.0492,-1392.5244"/>
<text text-anchor="middle" x="790.5" y="-1581.8" font-family="Times,serif" font-size="14.00" fill="#000000">of_specimen</text>
</g>
<!-- diagnosis -->
<g id="node7" class="node">
<title>diagnosis</title>
<path fill="none" stroke="#000000" d="M1037.5,-1168.5C1037.5,-1168.5 1351.5,-1168.5 1351.5,-1168.5 1357.5,-1168.5 1363.5,-1174.5 1363.5,-1180.5 1363.5,-1180.5 1363.5,-1547.5 1363.5,-1547.5 1363.5,-1553.5 1357.5,-1559.5 1351.5,-1559.5 1351.5,-1559.5 1037.5,-1559.5 1037.5,-1559.5 1031.5,-1559.5 1025.5,-1553.5 1025.5,-1547.5 1025.5,-1547.5 1025.5,-1180.5 1025.5,-1180.5 1025.5,-1174.5 1031.5,-1168.5 1037.5,-1168.5"/>
<text text-anchor="middle" x="1067.5" y="-1360.3" font-family="Times,serif" font-size="14.00" fill="#000000">diagnosis</text>
<polyline fill="none" stroke="#000000" points="1109.5,-1168.5 1109.5,-1559.5 "/>
<text text-anchor="middle" x="1120" y="-1360.3" font-family="Times,serif" font-size="14.00" fill="#000000"> </text>
<polyline fill="none" stroke="#000000" points="1130.5,-1168.5 1130.5,-1559.5 "/>
<text text-anchor="middle" x="1236.5" y="-1544.3" font-family="Times,serif" font-size="14.00" fill="#000000">age_at_diagnosis</text>
<polyline fill="none" stroke="#000000" points="1130.5,-1536.5 1342.5,-1536.5 "/>
<text text-anchor="middle" x="1236.5" y="-1521.3" font-family="Times,serif" font-size="14.00" fill="#000000">days_to_last_followup</text>
<polyline fill="none" stroke="#000000" points="1130.5,-1513.5 1342.5,-1513.5 "/>
<text text-anchor="middle" x="1236.5" y="-1498.3" font-family="Times,serif" font-size="14.00" fill="#000000">days_to_last_known_status</text>
<polyline fill="none" stroke="#000000" points="1130.5,-1490.5 1342.5,-1490.5 "/>
<text text-anchor="middle" x="1236.5" y="-1475.3" font-family="Times,serif" font-size="14.00" fill="#000000">days_to_recurrence</text>
<polyline fill="none" stroke="#000000" points="1130.5,-1467.5 1342.5,-1467.5 "/>
<text text-anchor="middle" x="1236.5" y="-1452.3" font-family="Times,serif" font-size="14.00" fill="#000000">diagnosis_id</text>
<polyline fill="none" stroke="#000000" points="1130.5,-1444.5 1342.5,-1444.5 "/>
<text text-anchor="middle" x="1236.5" y="-1429.3" font-family="Times,serif" font-size="14.00" fill="#000000">disease_type</text>
<polyline fill="none" stroke="#000000" points="1130.5,-1421.5 1342.5,-1421.5 "/>
<text text-anchor="middle" x="1236.5" y="-1406.3" font-family="Times,serif" font-size="14.00" fill="#000000">incidence_type</text>
<polyline fill="none" stroke="#000000" points="1130.5,-1398.5 1342.5,-1398.5 "/>
<text text-anchor="middle" x="1236.5" y="-1383.3" font-family="Times,serif" font-size="14.00" fill="#000000">last_known_disease_status</text>
<polyline fill="none" stroke="#000000" points="1130.5,-1375.5 1342.5,-1375.5 "/>
<text text-anchor="middle" x="1236.5" y="-1360.3" font-family="Times,serif" font-size="14.00" fill="#000000">morphology</text>
<polyline fill="none" stroke="#000000" points="1130.5,-1352.5 1342.5,-1352.5 "/>
<text text-anchor="middle" x="1236.5" y="-1337.3" font-family="Times,serif" font-size="14.00" fill="#000000">primary_diagnosis</text>
<polyline fill="none" stroke="#000000" points="1130.5,-1329.5 1342.5,-1329.5 "/>
<text text-anchor="middle" x="1236.5" y="-1314.3" font-family="Times,serif" font-size="14.00" fill="#000000">primary_site</text>
<polyline fill="none" stroke="#000000" points="1130.5,-1306.5 1342.5,-1306.5 "/>
<text text-anchor="middle" x="1236.5" y="-1291.3" font-family="Times,serif" font-size="14.00" fill="#000000">progression_or_recurrence</text>
<polyline fill="none" stroke="#000000" points="1130.5,-1283.5 1342.5,-1283.5 "/>
<text text-anchor="middle" x="1236.5" y="-1268.3" font-family="Times,serif" font-size="14.00" fill="#000000">tumor_grade</text>
<polyline fill="none" stroke="#000000" points="1130.5,-1260.5 1342.5,-1260.5 "/>
<text text-anchor="middle" x="1236.5" y="-1245.3" font-family="Times,serif" font-size="14.00" fill="#000000">tumor_stage_clinical_m</text>
<polyline fill="none" stroke="#000000" points="1130.5,-1237.5 1342.5,-1237.5 "/>
<text text-anchor="middle" x="1236.5" y="-1222.3" font-family="Times,serif" font-size="14.00" fill="#000000">tumor_stage_clinical_n</text>
<polyline fill="none" stroke="#000000" points="1130.5,-1214.5 1342.5,-1214.5 "/>
<text text-anchor="middle" x="1236.5" y="-1199.3" font-family="Times,serif" font-size="14.00" fill="#000000">tumor_stage_clinical_t</text>
<polyline fill="none" stroke="#000000" points="1130.5,-1191.5 1342.5,-1191.5 "/>
<text text-anchor="middle" x="1236.5" y="-1176.3" font-family="Times,serif" font-size="14.00" fill="#000000">vital_status</text>
<polyline fill="none" stroke="#000000" points="1342.5,-1168.5 1342.5,-1559.5 "/>
<text text-anchor="middle" x="1353" y="-1360.3" font-family="Times,serif" font-size="14.00" fill="#000000"> </text>
</g>
<!-- diagnosis&#45;&gt;participant -->
<g id="edge10" class="edge">
<title>diagnosis&#45;&gt;participant</title>
<path fill="none" stroke="#000000" d="M1030.0292,-1168.3433C1018.6232,-1156.788 1007.0614,-1145.5768 995.5,-1135 991.139,-1131.0104 986.5676,-1127.0394 981.8748,-1123.1252"/>
<polygon fill="#000000" stroke="#000000" points="983.8385,-1120.2102 973.8783,-1116.5983 979.4122,-1125.6331 983.8385,-1120.2102"/>
<text text-anchor="middle" x="1057" y="-1138.8" font-family="Times,serif" font-size="14.00" fill="#000000">of_participant</text>
</g>
<!-- program -->
<g id="node8" class="node">
<title>program</title>
<path fill="none" stroke="#000000" d="M736.5,-.5C736.5,-.5 1044.5,-.5 1044.5,-.5 1050.5,-.5 1056.5,-6.5 1056.5,-12.5 1056.5,-12.5 1056.5,-126.5 1056.5,-126.5 1056.5,-132.5 1050.5,-138.5 1044.5,-138.5 1044.5,-138.5 736.5,-138.5 736.5,-138.5 730.5,-138.5 724.5,-132.5 724.5,-126.5 724.5,-126.5 724.5,-12.5 724.5,-12.5 724.5,-6.5 730.5,-.5 736.5,-.5"/>
<text text-anchor="middle" x="763.5" y="-65.8" font-family="Times,serif" font-size="14.00" fill="#000000">program</text>
<polyline fill="none" stroke="#000000" points="802.5,-.5 802.5,-138.5 "/>
<text text-anchor="middle" x="813" y="-65.8" font-family="Times,serif" font-size="14.00" fill="#000000"> </text>
<polyline fill="none" stroke="#000000" points="823.5,-.5 823.5,-138.5 "/>
<text text-anchor="middle" x="929.5" y="-123.3" font-family="Times,serif" font-size="14.00" fill="#000000">program_acronym</text>
<polyline fill="none" stroke="#000000" points="823.5,-115.5 1035.5,-115.5 "/>
<text text-anchor="middle" x="929.5" y="-100.3" font-family="Times,serif" font-size="14.00" fill="#000000">program_external_url</text>
<polyline fill="none" stroke="#000000" points="823.5,-92.5 1035.5,-92.5 "/>
<text text-anchor="middle" x="929.5" y="-77.3" font-family="Times,serif" font-size="14.00" fill="#000000">program_full_description</text>
<polyline fill="none" stroke="#000000" points="823.5,-69.5 1035.5,-69.5 "/>
<text text-anchor="middle" x="929.5" y="-54.3" font-family="Times,serif" font-size="14.00" fill="#000000">program_name</text>
<polyline fill="none" stroke="#000000" points="823.5,-46.5 1035.5,-46.5 "/>
<text text-anchor="middle" x="929.5" y="-31.3" font-family="Times,serif" font-size="14.00" fill="#000000">program_short_description</text>
<polyline fill="none" stroke="#000000" points="823.5,-23.5 1035.5,-23.5 "/>
<text text-anchor="middle" x="929.5" y="-8.3" font-family="Times,serif" font-size="14.00" fill="#000000">program_sort_order</text>
<polyline fill="none" stroke="#000000" points="1035.5,-.5 1035.5,-138.5 "/>
<text text-anchor="middle" x="1046" y="-65.8" font-family="Times,serif" font-size="14.00" fill="#000000"> </text>
</g>
<!-- study&#45;&gt;program -->
<g id="edge7" class="edge">
<title>study&#45;&gt;program</title>
<path fill="none" stroke="#000000" d="M890.5,-190.338C890.5,-175.5265 890.5,-161.5495 890.5,-148.7219"/>
<polygon fill="#000000" stroke="#000000" points="894.0001,-148.6868 890.5,-138.6868 887.0001,-148.6869 894.0001,-148.6868"/>
<text text-anchor="middle" x="932" y="-160.8" font-family="Times,serif" font-size="14.00" fill="#000000">of_program</text>
</g>
<!-- file&#45;&gt;methylation -->
<g id="edge6" class="edge">
<title>file&#45;&gt;methylation</title>
<path fill="none" stroke="#000000" d="M436.2222,-2031.6721C438.4451,-2037.8387 440.5609,-2043.9872 442.5,-2050 448.5731,-2068.8313 453.8451,-2090.3304 457.7046,-2107.7018"/>
<polygon fill="#000000" stroke="#000000" points="454.3812,-2108.892 459.9197,-2117.9239 461.2224,-2107.4094 454.3812,-2108.892"/>
<text text-anchor="middle" x="511" y="-2053.8" font-family="Times,serif" font-size="14.00" fill="#000000">from_methylation</text>
</g>
<!-- file&#45;&gt;genomic_info -->
<g id="edge1" class="edge">
<title>file&#45;&gt;genomic_info</title>
<path fill="none" stroke="#000000" d="M255.1504,-1847.3669C240.4141,-1832.006 227.5486,-1814.8514 218.5,-1796 180.0804,-1715.9587 204.9489,-1624.0322 245.4117,-1545.6094"/>
<polygon fill="#000000" stroke="#000000" points="248.5916,-1547.0825 250.1567,-1536.6039 242.3986,-1543.8194 248.5916,-1547.0825"/>
<text text-anchor="middle" x="287" y="-1699.8" font-family="Times,serif" font-size="14.00" fill="#000000">from_genomic_info</text>
</g>
<!-- file&#45;&gt;sample -->
<g id="edge4" class="edge">
<title>file&#45;&gt;sample</title>
<path fill="none" stroke="#000000" d="M498.7489,-1847.2423C514.8666,-1832.5559 531.598,-1817.3103 547.8773,-1802.4766"/>
<polygon fill="#000000" stroke="#000000" points="550.2871,-1805.016 555.3214,-1795.6936 545.5724,-1799.8418 550.2871,-1805.016"/>
<text text-anchor="middle" x="581" y="-1817.8" font-family="Times,serif" font-size="14.00" fill="#000000">from_sample</text>
</g>
</g>
</svg>
