<svg width="1157pt" height="2385pt"
 viewBox="0.00 0.00 1156.50 2385.00" xmlns="http://www.w3.org/2000/svg" xmlns:xlink="http://www.w3.org/1999/xlink">
<g id="graph0" class="graph" transform="scale(1 1) rotate(0) translate(4 2381)">
<title>Perl</title>
<polygon fill="#ffffff" stroke="transparent" points="-4,4 -4,-2381 1152.5,-2381 1152.5,4 -4,4"/>
<!-- file -->
<g id="node1" class="node">
<title>file</title>
<path fill="none" stroke="#000000" d="M413,-1749.5C413,-1749.5 793,-1749.5 793,-1749.5 799,-1749.5 805,-1755.5 805,-1761.5 805,-1761.5 805,-1944.5 805,-1944.5 805,-1950.5 799,-1956.5 793,-1956.5 793,-1956.5 413,-1956.5 413,-1956.5 407,-1956.5 401,-1950.5 401,-1944.5 401,-1944.5 401,-1761.5 401,-1761.5 401,-1755.5 407,-1749.5 413,-1749.5"/>
<text text-anchor="middle" x="420.5" y="-1849.3" font-family="Times,serif" font-size="14.00" fill="#000000">file</text>
<polyline fill="none" stroke="#000000" points="440,-1749.5 440,-1956.5 "/>
<text text-anchor="middle" x="450.5" y="-1849.3" font-family="Times,serif" font-size="14.00" fill="#000000"> </text>
<polyline fill="none" stroke="#000000" points="461,-1749.5 461,-1956.5 "/>
<text text-anchor="middle" x="622.5" y="-1941.3" font-family="Times,serif" font-size="14.00" fill="#000000">experimental_strategy_and_data_subtypes</text>
<polyline fill="none" stroke="#000000" points="461,-1933.5 784,-1933.5 "/>
<text text-anchor="middle" x="622.5" y="-1918.3" font-family="Times,serif" font-size="14.00" fill="#000000">file_description</text>
<polyline fill="none" stroke="#000000" points="461,-1910.5 784,-1910.5 "/>
<text text-anchor="middle" x="622.5" y="-1895.3" font-family="Times,serif" font-size="14.00" fill="#000000">file_id</text>
<polyline fill="none" stroke="#000000" points="461,-1887.5 784,-1887.5 "/>
<text text-anchor="middle" x="622.5" y="-1872.3" font-family="Times,serif" font-size="14.00" fill="#000000">file_name</text>
<polyline fill="none" stroke="#000000" points="461,-1864.5 784,-1864.5 "/>
<text text-anchor="middle" x="622.5" y="-1849.3" font-family="Times,serif" font-size="14.00" fill="#000000">file_size</text>
<polyline fill="none" stroke="#000000" points="461,-1841.5 784,-1841.5 "/>
<text text-anchor="middle" x="622.5" y="-1826.3" font-family="Times,serif" font-size="14.00" fill="#000000">file_type</text>
<polyline fill="none" stroke="#000000" points="461,-1818.5 784,-1818.5 "/>
<text text-anchor="middle" x="622.5" y="-1803.3" font-family="Times,serif" font-size="14.00" fill="#000000">file_url_in_cds</text>
<polyline fill="none" stroke="#000000" points="461,-1795.5 784,-1795.5 "/>
<text text-anchor="middle" x="622.5" y="-1780.3" font-family="Times,serif" font-size="14.00" fill="#000000">md5sum</text>
<polyline fill="none" stroke="#000000" points="461,-1772.5 784,-1772.5 "/>
<text text-anchor="middle" x="622.5" y="-1757.3" font-family="Times,serif" font-size="14.00" fill="#000000">submission_version</text>
<polyline fill="none" stroke="#000000" points="784,-1749.5 784,-1956.5 "/>
<text text-anchor="middle" x="794.5" y="-1849.3" font-family="Times,serif" font-size="14.00" fill="#000000"> </text>
</g>
<!-- study -->
<g id="node4" class="node">
<title>study</title>
<path fill="none" stroke="#000000" d="M445,-213.5C445,-213.5 761,-213.5 761,-213.5 767,-213.5 773,-219.5 773,-225.5 773,-225.5 773,-1029.5 773,-1029.5 773,-1035.5 767,-1041.5 761,-1041.5 761,-1041.5 445,-1041.5 445,-1041.5 439,-1041.5 433,-1035.5 433,-1029.5 433,-1029.5 433,-225.5 433,-225.5 433,-219.5 439,-213.5 445,-213.5"/>
<text text-anchor="middle" x="461" y="-623.8" font-family="Times,serif" font-size="14.00" fill="#000000">study</text>
<polyline fill="none" stroke="#000000" points="489,-213.5 489,-1041.5 "/>
<text text-anchor="middle" x="499.5" y="-623.8" font-family="Times,serif" font-size="14.00" fill="#000000"> </text>
<polyline fill="none" stroke="#000000" points="510,-213.5 510,-1041.5 "/>
<text text-anchor="middle" x="631" y="-1026.3" font-family="Times,serif" font-size="14.00" fill="#000000">acl</text>
<polyline fill="none" stroke="#000000" points="510,-1018.5 752,-1018.5 "/>
<text text-anchor="middle" x="631" y="-1003.3" font-family="Times,serif" font-size="14.00" fill="#000000">adult_or_childhood_study</text>
<polyline fill="none" stroke="#000000" points="510,-995.5 752,-995.5 "/>
<text text-anchor="middle" x="631" y="-980.3" font-family="Times,serif" font-size="14.00" fill="#000000">authz</text>
<polyline fill="none" stroke="#000000" points="510,-972.5 752,-972.5 "/>
<text text-anchor="middle" x="631" y="-957.3" font-family="Times,serif" font-size="14.00" fill="#000000">bioproject_accession</text>
<polyline fill="none" stroke="#000000" points="510,-949.5 752,-949.5 "/>
<text text-anchor="middle" x="631" y="-934.3" font-family="Times,serif" font-size="14.00" fill="#000000">cds_primary_bucket</text>
<polyline fill="none" stroke="#000000" points="510,-926.5 752,-926.5 "/>
<text text-anchor="middle" x="631" y="-911.3" font-family="Times,serif" font-size="14.00" fill="#000000">cds_requestor</text>
<polyline fill="none" stroke="#000000" points="510,-903.5 752,-903.5 "/>
<text text-anchor="middle" x="631" y="-888.3" font-family="Times,serif" font-size="14.00" fill="#000000">cds_secondary_bucket</text>
<polyline fill="none" stroke="#000000" points="510,-880.5 752,-880.5 "/>
<text text-anchor="middle" x="631" y="-865.3" font-family="Times,serif" font-size="14.00" fill="#000000">cds_tertiary_bucket</text>
<polyline fill="none" stroke="#000000" points="510,-857.5 752,-857.5 "/>
<text text-anchor="middle" x="631" y="-842.3" font-family="Times,serif" font-size="14.00" fill="#000000">clinical_trial_arm</text>
<polyline fill="none" stroke="#000000" points="510,-834.5 752,-834.5 "/>
<text text-anchor="middle" x="631" y="-819.3" font-family="Times,serif" font-size="14.00" fill="#000000">clinical_trial_identifier</text>
<polyline fill="none" stroke="#000000" points="510,-811.5 752,-811.5 "/>
<text text-anchor="middle" x="631" y="-796.3" font-family="Times,serif" font-size="14.00" fill="#000000">clinical_trial_system</text>
<polyline fill="none" stroke="#000000" points="510,-788.5 752,-788.5 "/>
<text text-anchor="middle" x="631" y="-773.3" font-family="Times,serif" font-size="14.00" fill="#000000">co_investigator_email</text>
<polyline fill="none" stroke="#000000" points="510,-765.5 752,-765.5 "/>
<text text-anchor="middle" x="631" y="-750.3" font-family="Times,serif" font-size="14.00" fill="#000000">co_investigator_name</text>
<polyline fill="none" stroke="#000000" points="510,-742.5 752,-742.5 "/>
<text text-anchor="middle" x="631" y="-727.3" font-family="Times,serif" font-size="14.00" fill="#000000">data_access_level</text>
<polyline fill="none" stroke="#000000" points="510,-719.5 752,-719.5 "/>
<text text-anchor="middle" x="631" y="-704.3" font-family="Times,serif" font-size="14.00" fill="#000000">data_types</text>
<polyline fill="none" stroke="#000000" points="510,-696.5 752,-696.5 "/>
<text text-anchor="middle" x="631" y="-681.3" font-family="Times,serif" font-size="14.00" fill="#000000">file_types</text>
<polyline fill="none" stroke="#000000" points="510,-673.5 752,-673.5 "/>
<text text-anchor="middle" x="631" y="-658.3" font-family="Times,serif" font-size="14.00" fill="#000000">file_types_and_format</text>
<polyline fill="none" stroke="#000000" points="510,-650.5 752,-650.5 "/>
<text text-anchor="middle" x="631" y="-635.3" font-family="Times,serif" font-size="14.00" fill="#000000">funding_agency</text>
<polyline fill="none" stroke="#000000" points="510,-627.5 752,-627.5 "/>
<text text-anchor="middle" x="631" y="-612.3" font-family="Times,serif" font-size="14.00" fill="#000000">funding_source_program_name</text>
<polyline fill="none" stroke="#000000" points="510,-604.5 752,-604.5 "/>
<text text-anchor="middle" x="631" y="-589.3" font-family="Times,serif" font-size="14.00" fill="#000000">grant_id</text>
<polyline fill="none" stroke="#000000" points="510,-581.5 752,-581.5 "/>
<text text-anchor="middle" x="631" y="-566.3" font-family="Times,serif" font-size="14.00" fill="#000000">index_date</text>
<polyline fill="none" stroke="#000000" points="510,-558.5 752,-558.5 "/>
<text text-anchor="middle" x="631" y="-543.3" font-family="Times,serif" font-size="14.00" fill="#000000">number_of_participants</text>
<polyline fill="none" stroke="#000000" points="510,-535.5 752,-535.5 "/>
<text text-anchor="middle" x="631" y="-520.3" font-family="Times,serif" font-size="14.00" fill="#000000">number_of_samples</text>
<polyline fill="none" stroke="#000000" points="510,-512.5 752,-512.5 "/>
<text text-anchor="middle" x="631" y="-497.3" font-family="Times,serif" font-size="14.00" fill="#000000">organism_species</text>
<polyline fill="none" stroke="#000000" points="510,-489.5 752,-489.5 "/>
<text text-anchor="middle" x="631" y="-474.3" font-family="Times,serif" font-size="14.00" fill="#000000">phs_accession</text>
<polyline fill="none" stroke="#000000" points="510,-466.5 752,-466.5 "/>
<text text-anchor="middle" x="631" y="-451.3" font-family="Times,serif" font-size="14.00" fill="#000000">primary_investigator_email</text>
<polyline fill="none" stroke="#000000" points="510,-443.5 752,-443.5 "/>
<text text-anchor="middle" x="631" y="-428.3" font-family="Times,serif" font-size="14.00" fill="#000000">primary_investigator_name</text>
<polyline fill="none" stroke="#000000" points="510,-420.5 752,-420.5 "/>
<text text-anchor="middle" x="631" y="-405.3" font-family="Times,serif" font-size="14.00" fill="#000000">short_description</text>
<polyline fill="none" stroke="#000000" points="510,-397.5 752,-397.5 "/>
<text text-anchor="middle" x="631" y="-382.3" font-family="Times,serif" font-size="14.00" fill="#000000">size_of_data_being_uploaded</text>
<polyline fill="none" stroke="#000000" points="510,-374.5 752,-374.5 "/>
<text text-anchor="middle" x="631" y="-359.3" font-family="Times,serif" font-size="14.00" fill="#000000">study_access</text>
<polyline fill="none" stroke="#000000" points="510,-351.5 752,-351.5 "/>
<text text-anchor="middle" x="631" y="-336.3" font-family="Times,serif" font-size="14.00" fill="#000000">study_acronym</text>
<polyline fill="none" stroke="#000000" points="510,-328.5 752,-328.5 "/>
<text text-anchor="middle" x="631" y="-313.3" font-family="Times,serif" font-size="14.00" fill="#000000">study_data_types</text>
<polyline fill="none" stroke="#000000" points="510,-305.5 752,-305.5 "/>
<text text-anchor="middle" x="631" y="-290.3" font-family="Times,serif" font-size="14.00" fill="#000000">study_description</text>
<polyline fill="none" stroke="#000000" points="510,-282.5 752,-282.5 "/>
<text text-anchor="middle" x="631" y="-267.3" font-family="Times,serif" font-size="14.00" fill="#000000">study_external_url</text>
<polyline fill="none" stroke="#000000" points="510,-259.5 752,-259.5 "/>
<text text-anchor="middle" x="631" y="-244.3" font-family="Times,serif" font-size="14.00" fill="#000000">study_name</text>
<polyline fill="none" stroke="#000000" points="510,-236.5 752,-236.5 "/>
<text text-anchor="middle" x="631" y="-221.3" font-family="Times,serif" font-size="14.00" fill="#000000">study_version</text>
<polyline fill="none" stroke="#000000" points="752,-213.5 752,-1041.5 "/>
<text text-anchor="middle" x="762.5" y="-623.8" font-family="Times,serif" font-size="14.00" fill="#000000"> </text>
</g>
<!-- file&#45;&gt;study -->
<g id="edge3" class="edge">
<title>file&#45;&gt;study</title>
<path fill="none" stroke="#000000" d="M661.762,-1749.3572C668.0628,-1732.6872 672.9407,-1715.2351 675,-1698 700.3458,-1485.8689 688.5287,-1248.9425 667.7607,-1052.0179"/>
<polygon fill="#000000" stroke="#000000" points="671.21,-1051.3553 666.6694,-1041.7828 664.2494,-1052.0975 671.21,-1051.3553"/>
<text text-anchor="middle" x="714.5" y="-1253.8" font-family="Times,serif" font-size="14.00" fill="#000000">of_study</text>
</g>
<!-- sample -->
<g id="node6" class="node">
<title>sample</title>
<path fill="none" stroke="#000000" d="M368,-1410C368,-1410 654,-1410 654,-1410 660,-1410 666,-1416 666,-1422 666,-1422 666,-1559 666,-1559 666,-1565 660,-1571 654,-1571 654,-1571 368,-1571 368,-1571 362,-1571 356,-1565 356,-1559 356,-1559 356,-1422 356,-1422 356,-1416 362,-1410 368,-1410"/>
<text text-anchor="middle" x="390" y="-1486.8" font-family="Times,serif" font-size="14.00" fill="#000000">sample</text>
<polyline fill="none" stroke="#000000" points="424,-1410 424,-1571 "/>
<text text-anchor="middle" x="434.5" y="-1486.8" font-family="Times,serif" font-size="14.00" fill="#000000"> </text>
<polyline fill="none" stroke="#000000" points="445,-1410 445,-1571 "/>
<text text-anchor="middle" x="545" y="-1555.8" font-family="Times,serif" font-size="14.00" fill="#000000">biosample_accession</text>
<polyline fill="none" stroke="#000000" points="445,-1548 645,-1548 "/>
<text text-anchor="middle" x="545" y="-1532.8" font-family="Times,serif" font-size="14.00" fill="#000000">derived_from_specimen</text>
<polyline fill="none" stroke="#000000" points="445,-1525 645,-1525 "/>
<text text-anchor="middle" x="545" y="-1509.8" font-family="Times,serif" font-size="14.00" fill="#000000">sample_age_at_collection</text>
<polyline fill="none" stroke="#000000" points="445,-1502 645,-1502 "/>
<text text-anchor="middle" x="545" y="-1486.8" font-family="Times,serif" font-size="14.00" fill="#000000">sample_anatomic_site</text>
<polyline fill="none" stroke="#000000" points="445,-1479 645,-1479 "/>
<text text-anchor="middle" x="545" y="-1463.8" font-family="Times,serif" font-size="14.00" fill="#000000">sample_id</text>
<polyline fill="none" stroke="#000000" points="445,-1456 645,-1456 "/>
<text text-anchor="middle" x="545" y="-1440.8" font-family="Times,serif" font-size="14.00" fill="#000000">sample_tumor_status</text>
<polyline fill="none" stroke="#000000" points="445,-1433 645,-1433 "/>
<text text-anchor="middle" x="545" y="-1417.8" font-family="Times,serif" font-size="14.00" fill="#000000">sample_type</text>
<polyline fill="none" stroke="#000000" points="645,-1410 645,-1571 "/>
<text text-anchor="middle" x="655.5" y="-1486.8" font-family="Times,serif" font-size="14.00" fill="#000000"> </text>
</g>
<!-- file&#45;&gt;sample -->
<g id="edge5" class="edge">
<title>file&#45;&gt;sample</title>
<path fill="none" stroke="#000000" d="M576.6365,-1749.122C563.1433,-1695.9559 546.875,-1631.8555 533.9104,-1580.7721"/>
<polygon fill="#000000" stroke="#000000" points="537.299,-1579.8956 531.4466,-1571.0639 530.5141,-1581.6176 537.299,-1579.8956"/>
<text text-anchor="middle" x="616.5" y="-1719.8" font-family="Times,serif" font-size="14.00" fill="#000000">from_sample</text>
</g>
<!-- genomic_info -->
<g id="node2" class="node">
<title>genomic_info</title>
<path fill="none" stroke="#000000" d="M376.5,-2008.5C376.5,-2008.5 829.5,-2008.5 829.5,-2008.5 835.5,-2008.5 841.5,-2014.5 841.5,-2020.5 841.5,-2020.5 841.5,-2364.5 841.5,-2364.5 841.5,-2370.5 835.5,-2376.5 829.5,-2376.5 829.5,-2376.5 376.5,-2376.5 376.5,-2376.5 370.5,-2376.5 364.5,-2370.5 364.5,-2364.5 364.5,-2364.5 364.5,-2020.5 364.5,-2020.5 364.5,-2014.5 370.5,-2008.5 376.5,-2008.5"/>
<text text-anchor="middle" x="420.5" y="-2188.8" font-family="Times,serif" font-size="14.00" fill="#000000">genomic_info</text>
<polyline fill="none" stroke="#000000" points="476.5,-2008.5 476.5,-2376.5 "/>
<text text-anchor="middle" x="487" y="-2188.8" font-family="Times,serif" font-size="14.00" fill="#000000"> </text>
<polyline fill="none" stroke="#000000" points="497.5,-2008.5 497.5,-2376.5 "/>
<text text-anchor="middle" x="659" y="-2361.3" font-family="Times,serif" font-size="14.00" fill="#000000">avg_read_length</text>
<polyline fill="none" stroke="#000000" points="497.5,-2353.5 820.5,-2353.5 "/>
<text text-anchor="middle" x="659" y="-2338.3" font-family="Times,serif" font-size="14.00" fill="#000000">bases</text>
<polyline fill="none" stroke="#000000" points="497.5,-2330.5 820.5,-2330.5 "/>
<text text-anchor="middle" x="659" y="-2315.3" font-family="Times,serif" font-size="14.00" fill="#000000">coverage</text>
<polyline fill="none" stroke="#000000" points="497.5,-2307.5 820.5,-2307.5 "/>
<text text-anchor="middle" x="659" y="-2292.3" font-family="Times,serif" font-size="14.00" fill="#000000">custom_assembly_fasta_file_for_alignment</text>
<polyline fill="none" stroke="#000000" points="497.5,-2284.5 820.5,-2284.5 "/>
<text text-anchor="middle" x="659" y="-2269.3" font-family="Times,serif" font-size="14.00" fill="#000000">design_description</text>
<polyline fill="none" stroke="#000000" points="497.5,-2261.5 820.5,-2261.5 "/>
<text text-anchor="middle" x="659" y="-2246.3" font-family="Times,serif" font-size="14.00" fill="#000000">genomic_info_id</text>
<polyline fill="none" stroke="#000000" points="497.5,-2238.5 820.5,-2238.5 "/>
<text text-anchor="middle" x="659" y="-2223.3" font-family="Times,serif" font-size="14.00" fill="#000000">instrument_model</text>
<polyline fill="none" stroke="#000000" points="497.5,-2215.5 820.5,-2215.5 "/>
<text text-anchor="middle" x="659" y="-2200.3" font-family="Times,serif" font-size="14.00" fill="#000000">library_id</text>
<polyline fill="none" stroke="#000000" points="497.5,-2192.5 820.5,-2192.5 "/>
<text text-anchor="middle" x="659" y="-2177.3" font-family="Times,serif" font-size="14.00" fill="#000000">library_layout</text>
<polyline fill="none" stroke="#000000" points="497.5,-2169.5 820.5,-2169.5 "/>
<text text-anchor="middle" x="659" y="-2154.3" font-family="Times,serif" font-size="14.00" fill="#000000">library_selection</text>
<polyline fill="none" stroke="#000000" points="497.5,-2146.5 820.5,-2146.5 "/>
<text text-anchor="middle" x="659" y="-2131.3" font-family="Times,serif" font-size="14.00" fill="#000000">library_source</text>
<polyline fill="none" stroke="#000000" points="497.5,-2123.5 820.5,-2123.5 "/>
<text text-anchor="middle" x="659" y="-2108.3" font-family="Times,serif" font-size="14.00" fill="#000000">library_strategy</text>
<polyline fill="none" stroke="#000000" points="497.5,-2100.5 820.5,-2100.5 "/>
<text text-anchor="middle" x="659" y="-2085.3" font-family="Times,serif" font-size="14.00" fill="#000000">number_of_reads</text>
<polyline fill="none" stroke="#000000" points="497.5,-2077.5 820.5,-2077.5 "/>
<text text-anchor="middle" x="659" y="-2062.3" font-family="Times,serif" font-size="14.00" fill="#000000">platform</text>
<polyline fill="none" stroke="#000000" points="497.5,-2054.5 820.5,-2054.5 "/>
<text text-anchor="middle" x="659" y="-2039.3" font-family="Times,serif" font-size="14.00" fill="#000000">reference_genome_assembly</text>
<polyline fill="none" stroke="#000000" points="497.5,-2031.5 820.5,-2031.5 "/>
<text text-anchor="middle" x="659" y="-2016.3" font-family="Times,serif" font-size="14.00" fill="#000000">sequence_alignment_software</text>
<polyline fill="none" stroke="#000000" points="820.5,-2008.5 820.5,-2376.5 "/>
<text text-anchor="middle" x="831" y="-2188.8" font-family="Times,serif" font-size="14.00" fill="#000000"> </text>
</g>
<!-- genomic_info&#45;&gt;file -->
<g id="edge6" class="edge">
<title>genomic_info&#45;&gt;file</title>
<path fill="none" stroke="#000000" d="M603,-2008.3433C603,-1994.3068 603,-1980.4026 603,-1967.0183"/>
<polygon fill="#000000" stroke="#000000" points="606.5001,-1966.891 603,-1956.891 599.5001,-1966.8911 606.5001,-1966.891"/>
<text text-anchor="middle" x="625" y="-1978.8" font-family="Times,serif" font-size="14.00" fill="#000000">of_file</text>
</g>
<!-- program -->
<g id="node3" class="node">
<title>program</title>
<path fill="none" stroke="#000000" d="M449,-.5C449,-.5 757,-.5 757,-.5 763,-.5 769,-6.5 769,-12.5 769,-12.5 769,-149.5 769,-149.5 769,-155.5 763,-161.5 757,-161.5 757,-161.5 449,-161.5 449,-161.5 443,-161.5 437,-155.5 437,-149.5 437,-149.5 437,-12.5 437,-12.5 437,-6.5 443,-.5 449,-.5"/>
<text text-anchor="middle" x="476" y="-77.3" font-family="Times,serif" font-size="14.00" fill="#000000">program</text>
<polyline fill="none" stroke="#000000" points="515,-.5 515,-161.5 "/>
<text text-anchor="middle" x="525.5" y="-77.3" font-family="Times,serif" font-size="14.00" fill="#000000"> </text>
<polyline fill="none" stroke="#000000" points="536,-.5 536,-161.5 "/>
<text text-anchor="middle" x="642" y="-146.3" font-family="Times,serif" font-size="14.00" fill="#000000">institution</text>
<polyline fill="none" stroke="#000000" points="536,-138.5 748,-138.5 "/>
<text text-anchor="middle" x="642" y="-123.3" font-family="Times,serif" font-size="14.00" fill="#000000">program_acronym</text>
<polyline fill="none" stroke="#000000" points="536,-115.5 748,-115.5 "/>
<text text-anchor="middle" x="642" y="-100.3" font-family="Times,serif" font-size="14.00" fill="#000000">program_external_url</text>
<polyline fill="none" stroke="#000000" points="536,-92.5 748,-92.5 "/>
<text text-anchor="middle" x="642" y="-77.3" font-family="Times,serif" font-size="14.00" fill="#000000">program_full_description</text>
<polyline fill="none" stroke="#000000" points="536,-69.5 748,-69.5 "/>
<text text-anchor="middle" x="642" y="-54.3" font-family="Times,serif" font-size="14.00" fill="#000000">program_name</text>
<polyline fill="none" stroke="#000000" points="536,-46.5 748,-46.5 "/>
<text text-anchor="middle" x="642" y="-31.3" font-family="Times,serif" font-size="14.00" fill="#000000">program_short_description</text>
<polyline fill="none" stroke="#000000" points="536,-23.5 748,-23.5 "/>
<text text-anchor="middle" x="642" y="-8.3" font-family="Times,serif" font-size="14.00" fill="#000000">program_sort_order</text>
<polyline fill="none" stroke="#000000" points="748,-.5 748,-161.5 "/>
<text text-anchor="middle" x="758.5" y="-77.3" font-family="Times,serif" font-size="14.00" fill="#000000"> </text>
</g>
<!-- study&#45;&gt;program -->
<g id="edge7" class="edge">
<title>study&#45;&gt;program</title>
<path fill="none" stroke="#000000" d="M603,-213.2924C603,-198.6089 603,-184.6733 603,-171.7422"/>
<polygon fill="#000000" stroke="#000000" points="606.5001,-171.592 603,-161.592 599.5001,-171.5921 606.5001,-171.592"/>
<text text-anchor="middle" x="644.5" y="-183.8" font-family="Times,serif" font-size="14.00" fill="#000000">of_program</text>
</g>
<!-- diagnosis -->
<g id="node5" class="node">
<title>diagnosis</title>
<path fill="none" stroke="#000000" d="M12,-1283.5C12,-1283.5 326,-1283.5 326,-1283.5 332,-1283.5 338,-1289.5 338,-1295.5 338,-1295.5 338,-1685.5 338,-1685.5 338,-1691.5 332,-1697.5 326,-1697.5 326,-1697.5 12,-1697.5 12,-1697.5 6,-1697.5 0,-1691.5 0,-1685.5 0,-1685.5 0,-1295.5 0,-1295.5 0,-1289.5 6,-1283.5 12,-1283.5"/>
<text text-anchor="middle" x="42" y="-1486.8" font-family="Times,serif" font-size="14.00" fill="#000000">diagnosis</text>
<polyline fill="none" stroke="#000000" points="84,-1283.5 84,-1697.5 "/>
<text text-anchor="middle" x="94.5" y="-1486.8" font-family="Times,serif" font-size="14.00" fill="#000000"> </text>
<polyline fill="none" stroke="#000000" points="105,-1283.5 105,-1697.5 "/>
<text text-anchor="middle" x="211" y="-1682.3" font-family="Times,serif" font-size="14.00" fill="#000000">age_at_diagnosis</text>
<polyline fill="none" stroke="#000000" points="105,-1674.5 317,-1674.5 "/>
<text text-anchor="middle" x="211" y="-1659.3" font-family="Times,serif" font-size="14.00" fill="#000000">days_to_last_followup</text>
<polyline fill="none" stroke="#000000" points="105,-1651.5 317,-1651.5 "/>
<text text-anchor="middle" x="211" y="-1636.3" font-family="Times,serif" font-size="14.00" fill="#000000">days_to_last_known_status</text>
<polyline fill="none" stroke="#000000" points="105,-1628.5 317,-1628.5 "/>
<text text-anchor="middle" x="211" y="-1613.3" font-family="Times,serif" font-size="14.00" fill="#000000">days_to_recurrence</text>
<polyline fill="none" stroke="#000000" points="105,-1605.5 317,-1605.5 "/>
<text text-anchor="middle" x="211" y="-1590.3" font-family="Times,serif" font-size="14.00" fill="#000000">diagnosis_id</text>
<polyline fill="none" stroke="#000000" points="105,-1582.5 317,-1582.5 "/>
<text text-anchor="middle" x="211" y="-1567.3" font-family="Times,serif" font-size="14.00" fill="#000000">disease_type</text>
<polyline fill="none" stroke="#000000" points="105,-1559.5 317,-1559.5 "/>
<text text-anchor="middle" x="211" y="-1544.3" font-family="Times,serif" font-size="14.00" fill="#000000">incidence_type</text>
<polyline fill="none" stroke="#000000" points="105,-1536.5 317,-1536.5 "/>
<text text-anchor="middle" x="211" y="-1521.3" font-family="Times,serif" font-size="14.00" fill="#000000">last_known_disease_status</text>
<polyline fill="none" stroke="#000000" points="105,-1513.5 317,-1513.5 "/>
<text text-anchor="middle" x="211" y="-1498.3" font-family="Times,serif" font-size="14.00" fill="#000000">morphology</text>
<polyline fill="none" stroke="#000000" points="105,-1490.5 317,-1490.5 "/>
<text text-anchor="middle" x="211" y="-1475.3" font-family="Times,serif" font-size="14.00" fill="#000000">primary_diagnosis</text>
<polyline fill="none" stroke="#000000" points="105,-1467.5 317,-1467.5 "/>
<text text-anchor="middle" x="211" y="-1452.3" font-family="Times,serif" font-size="14.00" fill="#000000">primary_site</text>
<polyline fill="none" stroke="#000000" points="105,-1444.5 317,-1444.5 "/>
<text text-anchor="middle" x="211" y="-1429.3" font-family="Times,serif" font-size="14.00" fill="#000000">progression_or_recurrence</text>
<polyline fill="none" stroke="#000000" points="105,-1421.5 317,-1421.5 "/>
<text text-anchor="middle" x="211" y="-1406.3" font-family="Times,serif" font-size="14.00" fill="#000000">study_diagnosis_id</text>
<polyline fill="none" stroke="#000000" points="105,-1398.5 317,-1398.5 "/>
<text text-anchor="middle" x="211" y="-1383.3" font-family="Times,serif" font-size="14.00" fill="#000000">tumor_grade</text>
<polyline fill="none" stroke="#000000" points="105,-1375.5 317,-1375.5 "/>
<text text-anchor="middle" x="211" y="-1360.3" font-family="Times,serif" font-size="14.00" fill="#000000">tumor_stage_clinical_m</text>
<polyline fill="none" stroke="#000000" points="105,-1352.5 317,-1352.5 "/>
<text text-anchor="middle" x="211" y="-1337.3" font-family="Times,serif" font-size="14.00" fill="#000000">tumor_stage_clinical_n</text>
<polyline fill="none" stroke="#000000" points="105,-1329.5 317,-1329.5 "/>
<text text-anchor="middle" x="211" y="-1314.3" font-family="Times,serif" font-size="14.00" fill="#000000">tumor_stage_clinical_t</text>
<polyline fill="none" stroke="#000000" points="105,-1306.5 317,-1306.5 "/>
<text text-anchor="middle" x="211" y="-1291.3" font-family="Times,serif" font-size="14.00" fill="#000000">vital_status</text>
<polyline fill="none" stroke="#000000" points="317,-1283.5 317,-1697.5 "/>
<text text-anchor="middle" x="327.5" y="-1486.8" font-family="Times,serif" font-size="14.00" fill="#000000"> </text>
</g>
<!-- participant -->
<g id="node7" class="node">
<title>participant</title>
<path fill="none" stroke="#000000" d="M372,-1093.5C372,-1093.5 650,-1093.5 650,-1093.5 656,-1093.5 662,-1099.5 662,-1105.5 662,-1105.5 662,-1219.5 662,-1219.5 662,-1225.5 656,-1231.5 650,-1231.5 650,-1231.5 372,-1231.5 372,-1231.5 366,-1231.5 360,-1225.5 360,-1219.5 360,-1219.5 360,-1105.5 360,-1105.5 360,-1099.5 366,-1093.5 372,-1093.5"/>
<text text-anchor="middle" x="408" y="-1158.8" font-family="Times,serif" font-size="14.00" fill="#000000">participant</text>
<polyline fill="none" stroke="#000000" points="456,-1093.5 456,-1231.5 "/>
<text text-anchor="middle" x="466.5" y="-1158.8" font-family="Times,serif" font-size="14.00" fill="#000000"> </text>
<polyline fill="none" stroke="#000000" points="477,-1093.5 477,-1231.5 "/>
<text text-anchor="middle" x="559" y="-1216.3" font-family="Times,serif" font-size="14.00" fill="#000000">dbGaP_subject_id</text>
<polyline fill="none" stroke="#000000" points="477,-1208.5 641,-1208.5 "/>
<text text-anchor="middle" x="559" y="-1193.3" font-family="Times,serif" font-size="14.00" fill="#000000">ethnicity</text>
<polyline fill="none" stroke="#000000" points="477,-1185.5 641,-1185.5 "/>
<text text-anchor="middle" x="559" y="-1170.3" font-family="Times,serif" font-size="14.00" fill="#000000">gender</text>
<polyline fill="none" stroke="#000000" points="477,-1162.5 641,-1162.5 "/>
<text text-anchor="middle" x="559" y="-1147.3" font-family="Times,serif" font-size="14.00" fill="#000000">participant_id</text>
<polyline fill="none" stroke="#000000" points="477,-1139.5 641,-1139.5 "/>
<text text-anchor="middle" x="559" y="-1124.3" font-family="Times,serif" font-size="14.00" fill="#000000">race</text>
<polyline fill="none" stroke="#000000" points="477,-1116.5 641,-1116.5 "/>
<text text-anchor="middle" x="559" y="-1101.3" font-family="Times,serif" font-size="14.00" fill="#000000">study_participant_id</text>
<polyline fill="none" stroke="#000000" points="641,-1093.5 641,-1231.5 "/>
<text text-anchor="middle" x="651.5" y="-1158.8" font-family="Times,serif" font-size="14.00" fill="#000000"> </text>
</g>
<!-- diagnosis&#45;&gt;participant -->
<g id="edge2" class="edge">
<title>diagnosis&#45;&gt;participant</title>
<path fill="none" stroke="#000000" d="M338.1294,-1291.3634C341.0839,-1288.5331 344.0419,-1285.7432 347,-1283 363.7744,-1267.4442 382.555,-1252.0486 401.2538,-1237.7274"/>
<polygon fill="#000000" stroke="#000000" points="403.4036,-1240.4897 409.2565,-1231.6582 399.1737,-1234.9122 403.4036,-1240.4897"/>
<text text-anchor="middle" x="435.5" y="-1253.8" font-family="Times,serif" font-size="14.00" fill="#000000">of_participant</text>
</g>
<!-- sample&#45;&gt;participant -->
<g id="edge1" class="edge">
<title>sample&#45;&gt;participant</title>
<path fill="none" stroke="#000000" d="M511,-1409.8421C511,-1358.7344 511,-1292.9196 511,-1242.0303"/>
<polygon fill="#000000" stroke="#000000" points="514.5001,-1241.7346 511,-1231.7347 507.5001,-1241.7347 514.5001,-1241.7346"/>
<text text-anchor="middle" x="561.5" y="-1253.8" font-family="Times,serif" font-size="14.00" fill="#000000">of_participant</text>
</g>
<!-- participant&#45;&gt;study -->
<g id="edge4" class="edge">
<title>participant&#45;&gt;study</title>
<path fill="none" stroke="#000000" d="M522.886,-1093.3802C525.0676,-1080.6937 527.4829,-1066.6481 530.0742,-1051.5795"/>
<polygon fill="#000000" stroke="#000000" points="533.5563,-1051.9821 531.8017,-1041.5335 526.6575,-1050.7957 533.5563,-1051.9821"/>
<text text-anchor="middle" x="558.5" y="-1063.8" font-family="Times,serif" font-size="14.00" fill="#000000">of_study</text>
</g>
<!-- treatment -->
<g id="node8" class="node">
<title>treatment</title>
<path fill="none" stroke="#000000" d="M871.5,-2135C871.5,-2135 1136.5,-2135 1136.5,-2135 1142.5,-2135 1148.5,-2141 1148.5,-2147 1148.5,-2147 1148.5,-2238 1148.5,-2238 1148.5,-2244 1142.5,-2250 1136.5,-2250 1136.5,-2250 871.5,-2250 871.5,-2250 865.5,-2250 859.5,-2244 859.5,-2238 859.5,-2238 859.5,-2147 859.5,-2147 859.5,-2141 865.5,-2135 871.5,-2135"/>
<text text-anchor="middle" x="904" y="-2188.8" font-family="Times,serif" font-size="14.00" fill="#000000">treatment</text>
<polyline fill="none" stroke="#000000" points="948.5,-2135 948.5,-2250 "/>
<text text-anchor="middle" x="959" y="-2188.8" font-family="Times,serif" font-size="14.00" fill="#000000"> </text>
<polyline fill="none" stroke="#000000" points="969.5,-2135 969.5,-2250 "/>
<text text-anchor="middle" x="1048.5" y="-2234.8" font-family="Times,serif" font-size="14.00" fill="#000000">days_to_treatment</text>
<polyline fill="none" stroke="#000000" points="969.5,-2227 1127.5,-2227 "/>
<text text-anchor="middle" x="1048.5" y="-2211.8" font-family="Times,serif" font-size="14.00" fill="#000000">therapeutic_agents</text>
<polyline fill="none" stroke="#000000" points="969.5,-2204 1127.5,-2204 "/>
<text text-anchor="middle" x="1048.5" y="-2188.8" font-family="Times,serif" font-size="14.00" fill="#000000">treatment_id</text>
<polyline fill="none" stroke="#000000" points="969.5,-2181 1127.5,-2181 "/>
<text text-anchor="middle" x="1048.5" y="-2165.8" font-family="Times,serif" font-size="14.00" fill="#000000">treatment_outcome</text>
<polyline fill="none" stroke="#000000" points="969.5,-2158 1127.5,-2158 "/>
<text text-anchor="middle" x="1048.5" y="-2142.8" font-family="Times,serif" font-size="14.00" fill="#000000">treatment_type</text>
<polyline fill="none" stroke="#000000" points="1127.5,-2135 1127.5,-2250 "/>
<text text-anchor="middle" x="1138" y="-2188.8" font-family="Times,serif" font-size="14.00" fill="#000000"> </text>
</g>
</g>
</svg>
