<svg width="1406pt" height="1850pt"
 viewBox="0.00 0.00 1405.50 1850.00" xmlns="http://www.w3.org/2000/svg" xmlns:xlink="http://www.w3.org/1999/xlink">
<g id="graph0" class="graph" transform="scale(1 1) rotate(0) translate(4 1846)">
<title>Perl</title>
<polygon fill="#ffffff" stroke="transparent" points="-4,4 -4,-1846 1401.5,-1846 1401.5,4 -4,4"/>
<!-- program -->
<g id="node1" class="node">
<title>program</title>
<path fill="none" stroke="#000000" d="M115.5,-.5C115.5,-.5 423.5,-.5 423.5,-.5 429.5,-.5 435.5,-6.5 435.5,-12.5 435.5,-12.5 435.5,-126.5 435.5,-126.5 435.5,-132.5 429.5,-138.5 423.5,-138.5 423.5,-138.5 115.5,-138.5 115.5,-138.5 109.5,-138.5 103.5,-132.5 103.5,-126.5 103.5,-126.5 103.5,-12.5 103.5,-12.5 103.5,-6.5 109.5,-.5 115.5,-.5"/>
<text text-anchor="middle" x="142.5" y="-65.8" font-family="Times,serif" font-size="14.00" fill="#000000">program</text>
<polyline fill="none" stroke="#000000" points="181.5,-.5 181.5,-138.5 "/>
<text text-anchor="middle" x="192" y="-65.8" font-family="Times,serif" font-size="14.00" fill="#000000"> </text>
<polyline fill="none" stroke="#000000" points="202.5,-.5 202.5,-138.5 "/>
<text text-anchor="middle" x="308.5" y="-123.3" font-family="Times,serif" font-size="14.00" fill="#000000">program_acronym</text>
<polyline fill="none" stroke="#000000" points="202.5,-115.5 414.5,-115.5 "/>
<text text-anchor="middle" x="308.5" y="-100.3" font-family="Times,serif" font-size="14.00" fill="#000000">program_external_url</text>
<polyline fill="none" stroke="#000000" points="202.5,-92.5 414.5,-92.5 "/>
<text text-anchor="middle" x="308.5" y="-77.3" font-family="Times,serif" font-size="14.00" fill="#000000">program_full_description</text>
<polyline fill="none" stroke="#000000" points="202.5,-69.5 414.5,-69.5 "/>
<text text-anchor="middle" x="308.5" y="-54.3" font-family="Times,serif" font-size="14.00" fill="#000000">program_name</text>
<polyline fill="none" stroke="#000000" points="202.5,-46.5 414.5,-46.5 "/>
<text text-anchor="middle" x="308.5" y="-31.3" font-family="Times,serif" font-size="14.00" fill="#000000">program_short_description</text>
<polyline fill="none" stroke="#000000" points="202.5,-23.5 414.5,-23.5 "/>
<text text-anchor="middle" x="308.5" y="-8.3" font-family="Times,serif" font-size="14.00" fill="#000000">program_sort_order</text>
<polyline fill="none" stroke="#000000" points="414.5,-.5 414.5,-138.5 "/>
<text text-anchor="middle" x="425" y="-65.8" font-family="Times,serif" font-size="14.00" fill="#000000"> </text>
</g>
<!-- treatment -->
<g id="node2" class="node">
<title>treatment</title>
<path fill="none" stroke="#000000" d="M812,-1703.5C812,-1703.5 1077,-1703.5 1077,-1703.5 1083,-1703.5 1089,-1709.5 1089,-1715.5 1089,-1715.5 1089,-1806.5 1089,-1806.5 1089,-1812.5 1083,-1818.5 1077,-1818.5 1077,-1818.5 812,-1818.5 812,-1818.5 806,-1818.5 800,-1812.5 800,-1806.5 800,-1806.5 800,-1715.5 800,-1715.5 800,-1709.5 806,-1703.5 812,-1703.5"/>
<text text-anchor="middle" x="844.5" y="-1757.3" font-family="Times,serif" font-size="14.00" fill="#000000">treatment</text>
<polyline fill="none" stroke="#000000" points="889,-1703.5 889,-1818.5 "/>
<text text-anchor="middle" x="899.5" y="-1757.3" font-family="Times,serif" font-size="14.00" fill="#000000"> </text>
<polyline fill="none" stroke="#000000" points="910,-1703.5 910,-1818.5 "/>
<text text-anchor="middle" x="989" y="-1803.3" font-family="Times,serif" font-size="14.00" fill="#000000">days_to_treatment</text>
<polyline fill="none" stroke="#000000" points="910,-1795.5 1068,-1795.5 "/>
<text text-anchor="middle" x="989" y="-1780.3" font-family="Times,serif" font-size="14.00" fill="#000000">therapeutic_agents</text>
<polyline fill="none" stroke="#000000" points="910,-1772.5 1068,-1772.5 "/>
<text text-anchor="middle" x="989" y="-1757.3" font-family="Times,serif" font-size="14.00" fill="#000000">treatment_id</text>
<polyline fill="none" stroke="#000000" points="910,-1749.5 1068,-1749.5 "/>
<text text-anchor="middle" x="989" y="-1734.3" font-family="Times,serif" font-size="14.00" fill="#000000">treatment_outcome</text>
<polyline fill="none" stroke="#000000" points="910,-1726.5 1068,-1726.5 "/>
<text text-anchor="middle" x="989" y="-1711.3" font-family="Times,serif" font-size="14.00" fill="#000000">treatment_type</text>
<polyline fill="none" stroke="#000000" points="1068,-1703.5 1068,-1818.5 "/>
<text text-anchor="middle" x="1078.5" y="-1757.3" font-family="Times,serif" font-size="14.00" fill="#000000"> </text>
</g>
<!-- diagnosis -->
<g id="node3" class="node">
<title>diagnosis</title>
<path fill="none" stroke="#000000" d="M400.5,-1237.5C400.5,-1237.5 714.5,-1237.5 714.5,-1237.5 720.5,-1237.5 726.5,-1243.5 726.5,-1249.5 726.5,-1249.5 726.5,-1616.5 726.5,-1616.5 726.5,-1622.5 720.5,-1628.5 714.5,-1628.5 714.5,-1628.5 400.5,-1628.5 400.5,-1628.5 394.5,-1628.5 388.5,-1622.5 388.5,-1616.5 388.5,-1616.5 388.5,-1249.5 388.5,-1249.5 388.5,-1243.5 394.5,-1237.5 400.5,-1237.5"/>
<text text-anchor="middle" x="430.5" y="-1429.3" font-family="Times,serif" font-size="14.00" fill="#000000">diagnosis</text>
<polyline fill="none" stroke="#000000" points="472.5,-1237.5 472.5,-1628.5 "/>
<text text-anchor="middle" x="483" y="-1429.3" font-family="Times,serif" font-size="14.00" fill="#000000"> </text>
<polyline fill="none" stroke="#000000" points="493.5,-1237.5 493.5,-1628.5 "/>
<text text-anchor="middle" x="599.5" y="-1613.3" font-family="Times,serif" font-size="14.00" fill="#000000">age_at_diagnosis</text>
<polyline fill="none" stroke="#000000" points="493.5,-1605.5 705.5,-1605.5 "/>
<text text-anchor="middle" x="599.5" y="-1590.3" font-family="Times,serif" font-size="14.00" fill="#000000">days_to_last_followup</text>
<polyline fill="none" stroke="#000000" points="493.5,-1582.5 705.5,-1582.5 "/>
<text text-anchor="middle" x="599.5" y="-1567.3" font-family="Times,serif" font-size="14.00" fill="#000000">days_to_last_known_status</text>
<polyline fill="none" stroke="#000000" points="493.5,-1559.5 705.5,-1559.5 "/>
<text text-anchor="middle" x="599.5" y="-1544.3" font-family="Times,serif" font-size="14.00" fill="#000000">days_to_recurrence</text>
<polyline fill="none" stroke="#000000" points="493.5,-1536.5 705.5,-1536.5 "/>
<text text-anchor="middle" x="599.5" y="-1521.3" font-family="Times,serif" font-size="14.00" fill="#000000">diagnosis_id</text>
<polyline fill="none" stroke="#000000" points="493.5,-1513.5 705.5,-1513.5 "/>
<text text-anchor="middle" x="599.5" y="-1498.3" font-family="Times,serif" font-size="14.00" fill="#000000">disease_type</text>
<polyline fill="none" stroke="#000000" points="493.5,-1490.5 705.5,-1490.5 "/>
<text text-anchor="middle" x="599.5" y="-1475.3" font-family="Times,serif" font-size="14.00" fill="#000000">incidence_type</text>
<polyline fill="none" stroke="#000000" points="493.5,-1467.5 705.5,-1467.5 "/>
<text text-anchor="middle" x="599.5" y="-1452.3" font-family="Times,serif" font-size="14.00" fill="#000000">last_known_disease_status</text>
<polyline fill="none" stroke="#000000" points="493.5,-1444.5 705.5,-1444.5 "/>
<text text-anchor="middle" x="599.5" y="-1429.3" font-family="Times,serif" font-size="14.00" fill="#000000">morphology</text>
<polyline fill="none" stroke="#000000" points="493.5,-1421.5 705.5,-1421.5 "/>
<text text-anchor="middle" x="599.5" y="-1406.3" font-family="Times,serif" font-size="14.00" fill="#000000">primary_diagnosis</text>
<polyline fill="none" stroke="#000000" points="493.5,-1398.5 705.5,-1398.5 "/>
<text text-anchor="middle" x="599.5" y="-1383.3" font-family="Times,serif" font-size="14.00" fill="#000000">primary_site</text>
<polyline fill="none" stroke="#000000" points="493.5,-1375.5 705.5,-1375.5 "/>
<text text-anchor="middle" x="599.5" y="-1360.3" font-family="Times,serif" font-size="14.00" fill="#000000">progression_or_recurrence</text>
<polyline fill="none" stroke="#000000" points="493.5,-1352.5 705.5,-1352.5 "/>
<text text-anchor="middle" x="599.5" y="-1337.3" font-family="Times,serif" font-size="14.00" fill="#000000">tumor_grade</text>
<polyline fill="none" stroke="#000000" points="493.5,-1329.5 705.5,-1329.5 "/>
<text text-anchor="middle" x="599.5" y="-1314.3" font-family="Times,serif" font-size="14.00" fill="#000000">tumor_stage_clinical_m</text>
<polyline fill="none" stroke="#000000" points="493.5,-1306.5 705.5,-1306.5 "/>
<text text-anchor="middle" x="599.5" y="-1291.3" font-family="Times,serif" font-size="14.00" fill="#000000">tumor_stage_clinical_n</text>
<polyline fill="none" stroke="#000000" points="493.5,-1283.5 705.5,-1283.5 "/>
<text text-anchor="middle" x="599.5" y="-1268.3" font-family="Times,serif" font-size="14.00" fill="#000000">tumor_stage_clinical_t</text>
<polyline fill="none" stroke="#000000" points="493.5,-1260.5 705.5,-1260.5 "/>
<text text-anchor="middle" x="599.5" y="-1245.3" font-family="Times,serif" font-size="14.00" fill="#000000">vital_status</text>
<polyline fill="none" stroke="#000000" points="705.5,-1237.5 705.5,-1628.5 "/>
<text text-anchor="middle" x="716" y="-1429.3" font-family="Times,serif" font-size="14.00" fill="#000000"> </text>
</g>
<!-- participant -->
<g id="node7" class="node">
<title>participant</title>
<path fill="none" stroke="#000000" d="M140,-1047.5C140,-1047.5 399,-1047.5 399,-1047.5 405,-1047.5 411,-1053.5 411,-1059.5 411,-1059.5 411,-1150.5 411,-1150.5 411,-1156.5 405,-1162.5 399,-1162.5 399,-1162.5 140,-1162.5 140,-1162.5 134,-1162.5 128,-1156.5 128,-1150.5 128,-1150.5 128,-1059.5 128,-1059.5 128,-1053.5 134,-1047.5 140,-1047.5"/>
<text text-anchor="middle" x="176" y="-1101.3" font-family="Times,serif" font-size="14.00" fill="#000000">participant</text>
<polyline fill="none" stroke="#000000" points="224,-1047.5 224,-1162.5 "/>
<text text-anchor="middle" x="234.5" y="-1101.3" font-family="Times,serif" font-size="14.00" fill="#000000"> </text>
<polyline fill="none" stroke="#000000" points="245,-1047.5 245,-1162.5 "/>
<text text-anchor="middle" x="317.5" y="-1147.3" font-family="Times,serif" font-size="14.00" fill="#000000">dbGaP_subject_id</text>
<polyline fill="none" stroke="#000000" points="245,-1139.5 390,-1139.5 "/>
<text text-anchor="middle" x="317.5" y="-1124.3" font-family="Times,serif" font-size="14.00" fill="#000000">ethnicity</text>
<polyline fill="none" stroke="#000000" points="245,-1116.5 390,-1116.5 "/>
<text text-anchor="middle" x="317.5" y="-1101.3" font-family="Times,serif" font-size="14.00" fill="#000000">gender</text>
<polyline fill="none" stroke="#000000" points="245,-1093.5 390,-1093.5 "/>
<text text-anchor="middle" x="317.5" y="-1078.3" font-family="Times,serif" font-size="14.00" fill="#000000">participant_id</text>
<polyline fill="none" stroke="#000000" points="245,-1070.5 390,-1070.5 "/>
<text text-anchor="middle" x="317.5" y="-1055.3" font-family="Times,serif" font-size="14.00" fill="#000000">race</text>
<polyline fill="none" stroke="#000000" points="390,-1047.5 390,-1162.5 "/>
<text text-anchor="middle" x="400.5" y="-1101.3" font-family="Times,serif" font-size="14.00" fill="#000000"> </text>
</g>
<!-- diagnosis&#45;&gt;participant -->
<g id="edge6" class="edge">
<title>diagnosis&#45;&gt;participant</title>
<path fill="none" stroke="#000000" d="M388.3034,-1240.3038C366.3722,-1215.3266 345.2457,-1191.266 327.0451,-1170.5375"/>
<polygon fill="#000000" stroke="#000000" points="329.4453,-1167.9664 320.2172,-1162.7612 324.1852,-1172.585 329.4453,-1167.9664"/>
<text text-anchor="middle" x="414" y="-1207.8" font-family="Times,serif" font-size="14.00" fill="#000000">of_participant</text>
</g>
<!-- study -->
<g id="node4" class="node">
<title>study</title>
<path fill="none" stroke="#000000" d="M71,-190.5C71,-190.5 468,-190.5 468,-190.5 474,-190.5 480,-196.5 480,-202.5 480,-202.5 480,-960.5 480,-960.5 480,-966.5 474,-972.5 468,-972.5 468,-972.5 71,-972.5 71,-972.5 65,-972.5 59,-966.5 59,-960.5 59,-960.5 59,-202.5 59,-202.5 59,-196.5 65,-190.5 71,-190.5"/>
<text text-anchor="middle" x="87" y="-577.8" font-family="Times,serif" font-size="14.00" fill="#000000">study</text>
<polyline fill="none" stroke="#000000" points="115,-190.5 115,-972.5 "/>
<text text-anchor="middle" x="125.5" y="-577.8" font-family="Times,serif" font-size="14.00" fill="#000000"> </text>
<polyline fill="none" stroke="#000000" points="136,-190.5 136,-972.5 "/>
<text text-anchor="middle" x="297.5" y="-957.3" font-family="Times,serif" font-size="14.00" fill="#000000">acl</text>
<polyline fill="none" stroke="#000000" points="136,-949.5 459,-949.5 "/>
<text text-anchor="middle" x="297.5" y="-934.3" font-family="Times,serif" font-size="14.00" fill="#000000">adult_or_childhood_study</text>
<polyline fill="none" stroke="#000000" points="136,-926.5 459,-926.5 "/>
<text text-anchor="middle" x="297.5" y="-911.3" font-family="Times,serif" font-size="14.00" fill="#000000">bioproject_accession</text>
<polyline fill="none" stroke="#000000" points="136,-903.5 459,-903.5 "/>
<text text-anchor="middle" x="297.5" y="-888.3" font-family="Times,serif" font-size="14.00" fill="#000000">cds_primary_bucket</text>
<polyline fill="none" stroke="#000000" points="136,-880.5 459,-880.5 "/>
<text text-anchor="middle" x="297.5" y="-865.3" font-family="Times,serif" font-size="14.00" fill="#000000">cds_requestor</text>
<polyline fill="none" stroke="#000000" points="136,-857.5 459,-857.5 "/>
<text text-anchor="middle" x="297.5" y="-842.3" font-family="Times,serif" font-size="14.00" fill="#000000">cds_secondary_bucket</text>
<polyline fill="none" stroke="#000000" points="136,-834.5 459,-834.5 "/>
<text text-anchor="middle" x="297.5" y="-819.3" font-family="Times,serif" font-size="14.00" fill="#000000">cds_tertiary_bucket</text>
<polyline fill="none" stroke="#000000" points="136,-811.5 459,-811.5 "/>
<text text-anchor="middle" x="297.5" y="-796.3" font-family="Times,serif" font-size="14.00" fill="#000000">clinical_trial_arm</text>
<polyline fill="none" stroke="#000000" points="136,-788.5 459,-788.5 "/>
<text text-anchor="middle" x="297.5" y="-773.3" font-family="Times,serif" font-size="14.00" fill="#000000">clinical_trial_identifier</text>
<polyline fill="none" stroke="#000000" points="136,-765.5 459,-765.5 "/>
<text text-anchor="middle" x="297.5" y="-750.3" font-family="Times,serif" font-size="14.00" fill="#000000">clinical_trial_system</text>
<polyline fill="none" stroke="#000000" points="136,-742.5 459,-742.5 "/>
<text text-anchor="middle" x="297.5" y="-727.3" font-family="Times,serif" font-size="14.00" fill="#000000">co_investigator_email</text>
<polyline fill="none" stroke="#000000" points="136,-719.5 459,-719.5 "/>
<text text-anchor="middle" x="297.5" y="-704.3" font-family="Times,serif" font-size="14.00" fill="#000000">co_investigator_name</text>
<polyline fill="none" stroke="#000000" points="136,-696.5 459,-696.5 "/>
<text text-anchor="middle" x="297.5" y="-681.3" font-family="Times,serif" font-size="14.00" fill="#000000">data_access_level</text>
<polyline fill="none" stroke="#000000" points="136,-673.5 459,-673.5 "/>
<text text-anchor="middle" x="297.5" y="-658.3" font-family="Times,serif" font-size="14.00" fill="#000000">data_types</text>
<polyline fill="none" stroke="#000000" points="136,-650.5 459,-650.5 "/>
<text text-anchor="middle" x="297.5" y="-635.3" font-family="Times,serif" font-size="14.00" fill="#000000">experimental_strategy_and_data_subtypes</text>
<polyline fill="none" stroke="#000000" points="136,-627.5 459,-627.5 "/>
<text text-anchor="middle" x="297.5" y="-612.3" font-family="Times,serif" font-size="14.00" fill="#000000">file_types</text>
<polyline fill="none" stroke="#000000" points="136,-604.5 459,-604.5 "/>
<text text-anchor="middle" x="297.5" y="-589.3" font-family="Times,serif" font-size="14.00" fill="#000000">file_types_and_format</text>
<polyline fill="none" stroke="#000000" points="136,-581.5 459,-581.5 "/>
<text text-anchor="middle" x="297.5" y="-566.3" font-family="Times,serif" font-size="14.00" fill="#000000">funding_agency</text>
<polyline fill="none" stroke="#000000" points="136,-558.5 459,-558.5 "/>
<text text-anchor="middle" x="297.5" y="-543.3" font-family="Times,serif" font-size="14.00" fill="#000000">funding_source_program_name</text>
<polyline fill="none" stroke="#000000" points="136,-535.5 459,-535.5 "/>
<text text-anchor="middle" x="297.5" y="-520.3" font-family="Times,serif" font-size="14.00" fill="#000000">grant_id</text>
<polyline fill="none" stroke="#000000" points="136,-512.5 459,-512.5 "/>
<text text-anchor="middle" x="297.5" y="-497.3" font-family="Times,serif" font-size="14.00" fill="#000000">index_date</text>
<polyline fill="none" stroke="#000000" points="136,-489.5 459,-489.5 "/>
<text text-anchor="middle" x="297.5" y="-474.3" font-family="Times,serif" font-size="14.00" fill="#000000">number_of_participants</text>
<polyline fill="none" stroke="#000000" points="136,-466.5 459,-466.5 "/>
<text text-anchor="middle" x="297.5" y="-451.3" font-family="Times,serif" font-size="14.00" fill="#000000">number_of_samples</text>
<polyline fill="none" stroke="#000000" points="136,-443.5 459,-443.5 "/>
<text text-anchor="middle" x="297.5" y="-428.3" font-family="Times,serif" font-size="14.00" fill="#000000">organism_species</text>
<polyline fill="none" stroke="#000000" points="136,-420.5 459,-420.5 "/>
<text text-anchor="middle" x="297.5" y="-405.3" font-family="Times,serif" font-size="14.00" fill="#000000">phs_accession</text>
<polyline fill="none" stroke="#000000" points="136,-397.5 459,-397.5 "/>
<text text-anchor="middle" x="297.5" y="-382.3" font-family="Times,serif" font-size="14.00" fill="#000000">primary_investigator_email</text>
<polyline fill="none" stroke="#000000" points="136,-374.5 459,-374.5 "/>
<text text-anchor="middle" x="297.5" y="-359.3" font-family="Times,serif" font-size="14.00" fill="#000000">primary_investigator_name</text>
<polyline fill="none" stroke="#000000" points="136,-351.5 459,-351.5 "/>
<text text-anchor="middle" x="297.5" y="-336.3" font-family="Times,serif" font-size="14.00" fill="#000000">short_description</text>
<polyline fill="none" stroke="#000000" points="136,-328.5 459,-328.5 "/>
<text text-anchor="middle" x="297.5" y="-313.3" font-family="Times,serif" font-size="14.00" fill="#000000">size_of_data_being_uploaded</text>
<polyline fill="none" stroke="#000000" points="136,-305.5 459,-305.5 "/>
<text text-anchor="middle" x="297.5" y="-290.3" font-family="Times,serif" font-size="14.00" fill="#000000">study_acronym</text>
<polyline fill="none" stroke="#000000" points="136,-282.5 459,-282.5 "/>
<text text-anchor="middle" x="297.5" y="-267.3" font-family="Times,serif" font-size="14.00" fill="#000000">study_data_types</text>
<polyline fill="none" stroke="#000000" points="136,-259.5 459,-259.5 "/>
<text text-anchor="middle" x="297.5" y="-244.3" font-family="Times,serif" font-size="14.00" fill="#000000">study_description</text>
<polyline fill="none" stroke="#000000" points="136,-236.5 459,-236.5 "/>
<text text-anchor="middle" x="297.5" y="-221.3" font-family="Times,serif" font-size="14.00" fill="#000000">study_external_url</text>
<polyline fill="none" stroke="#000000" points="136,-213.5 459,-213.5 "/>
<text text-anchor="middle" x="297.5" y="-198.3" font-family="Times,serif" font-size="14.00" fill="#000000">study_name</text>
<polyline fill="none" stroke="#000000" points="459,-190.5 459,-972.5 "/>
<text text-anchor="middle" x="469.5" y="-577.8" font-family="Times,serif" font-size="14.00" fill="#000000"> </text>
</g>
<!-- study&#45;&gt;program -->
<g id="edge10" class="edge">
<title>study&#45;&gt;program</title>
<path fill="none" stroke="#000000" d="M269.5,-190.1885C269.5,-175.355 269.5,-161.3721 269.5,-148.5489"/>
<polygon fill="#000000" stroke="#000000" points="273.0001,-148.5194 269.5,-138.5194 266.0001,-148.5195 273.0001,-148.5194"/>
<text text-anchor="middle" x="311" y="-160.8" font-family="Times,serif" font-size="14.00" fill="#000000">of_program</text>
</g>
<!-- genomic_info -->
<g id="node5" class="node">
<title>genomic_info</title>
<path fill="none" stroke="#000000" d="M757,-1260.5C757,-1260.5 1210,-1260.5 1210,-1260.5 1216,-1260.5 1222,-1266.5 1222,-1272.5 1222,-1272.5 1222,-1593.5 1222,-1593.5 1222,-1599.5 1216,-1605.5 1210,-1605.5 1210,-1605.5 757,-1605.5 757,-1605.5 751,-1605.5 745,-1599.5 745,-1593.5 745,-1593.5 745,-1272.5 745,-1272.5 745,-1266.5 751,-1260.5 757,-1260.5"/>
<text text-anchor="middle" x="801" y="-1429.3" font-family="Times,serif" font-size="14.00" fill="#000000">genomic_info</text>
<polyline fill="none" stroke="#000000" points="857,-1260.5 857,-1605.5 "/>
<text text-anchor="middle" x="867.5" y="-1429.3" font-family="Times,serif" font-size="14.00" fill="#000000"> </text>
<polyline fill="none" stroke="#000000" points="878,-1260.5 878,-1605.5 "/>
<text text-anchor="middle" x="1039.5" y="-1590.3" font-family="Times,serif" font-size="14.00" fill="#000000">avg_read_length</text>
<polyline fill="none" stroke="#000000" points="878,-1582.5 1201,-1582.5 "/>
<text text-anchor="middle" x="1039.5" y="-1567.3" font-family="Times,serif" font-size="14.00" fill="#000000">bases</text>
<polyline fill="none" stroke="#000000" points="878,-1559.5 1201,-1559.5 "/>
<text text-anchor="middle" x="1039.5" y="-1544.3" font-family="Times,serif" font-size="14.00" fill="#000000">coverage</text>
<polyline fill="none" stroke="#000000" points="878,-1536.5 1201,-1536.5 "/>
<text text-anchor="middle" x="1039.5" y="-1521.3" font-family="Times,serif" font-size="14.00" fill="#000000">custom_assembly_fasta_file_for_alignment</text>
<polyline fill="none" stroke="#000000" points="878,-1513.5 1201,-1513.5 "/>
<text text-anchor="middle" x="1039.5" y="-1498.3" font-family="Times,serif" font-size="14.00" fill="#000000">design_description</text>
<polyline fill="none" stroke="#000000" points="878,-1490.5 1201,-1490.5 "/>
<text text-anchor="middle" x="1039.5" y="-1475.3" font-family="Times,serif" font-size="14.00" fill="#000000">instrument_model</text>
<polyline fill="none" stroke="#000000" points="878,-1467.5 1201,-1467.5 "/>
<text text-anchor="middle" x="1039.5" y="-1452.3" font-family="Times,serif" font-size="14.00" fill="#000000">library_id</text>
<polyline fill="none" stroke="#000000" points="878,-1444.5 1201,-1444.5 "/>
<text text-anchor="middle" x="1039.5" y="-1429.3" font-family="Times,serif" font-size="14.00" fill="#000000">library_layout</text>
<polyline fill="none" stroke="#000000" points="878,-1421.5 1201,-1421.5 "/>
<text text-anchor="middle" x="1039.5" y="-1406.3" font-family="Times,serif" font-size="14.00" fill="#000000">library_selection</text>
<polyline fill="none" stroke="#000000" points="878,-1398.5 1201,-1398.5 "/>
<text text-anchor="middle" x="1039.5" y="-1383.3" font-family="Times,serif" font-size="14.00" fill="#000000">library_source</text>
<polyline fill="none" stroke="#000000" points="878,-1375.5 1201,-1375.5 "/>
<text text-anchor="middle" x="1039.5" y="-1360.3" font-family="Times,serif" font-size="14.00" fill="#000000">library_strategy</text>
<polyline fill="none" stroke="#000000" points="878,-1352.5 1201,-1352.5 "/>
<text text-anchor="middle" x="1039.5" y="-1337.3" font-family="Times,serif" font-size="14.00" fill="#000000">number_of_reads</text>
<polyline fill="none" stroke="#000000" points="878,-1329.5 1201,-1329.5 "/>
<text text-anchor="middle" x="1039.5" y="-1314.3" font-family="Times,serif" font-size="14.00" fill="#000000">platform</text>
<polyline fill="none" stroke="#000000" points="878,-1306.5 1201,-1306.5 "/>
<text text-anchor="middle" x="1039.5" y="-1291.3" font-family="Times,serif" font-size="14.00" fill="#000000">reference_genome_assembly</text>
<polyline fill="none" stroke="#000000" points="878,-1283.5 1201,-1283.5 "/>
<text text-anchor="middle" x="1039.5" y="-1268.3" font-family="Times,serif" font-size="14.00" fill="#000000">sequence_alignment_software</text>
<polyline fill="none" stroke="#000000" points="1201,-1260.5 1201,-1605.5 "/>
<text text-anchor="middle" x="1211.5" y="-1429.3" font-family="Times,serif" font-size="14.00" fill="#000000"> </text>
</g>
<!-- file -->
<g id="node9" class="node">
<title>file</title>
<path fill="none" stroke="#000000" d="M958,-1024.5C958,-1024.5 1143,-1024.5 1143,-1024.5 1149,-1024.5 1155,-1030.5 1155,-1036.5 1155,-1036.5 1155,-1173.5 1155,-1173.5 1155,-1179.5 1149,-1185.5 1143,-1185.5 1143,-1185.5 958,-1185.5 958,-1185.5 952,-1185.5 946,-1179.5 946,-1173.5 946,-1173.5 946,-1036.5 946,-1036.5 946,-1030.5 952,-1024.5 958,-1024.5"/>
<text text-anchor="middle" x="965.5" y="-1101.3" font-family="Times,serif" font-size="14.00" fill="#000000">file</text>
<polyline fill="none" stroke="#000000" points="985,-1024.5 985,-1185.5 "/>
<text text-anchor="middle" x="995.5" y="-1101.3" font-family="Times,serif" font-size="14.00" fill="#000000"> </text>
<polyline fill="none" stroke="#000000" points="1006,-1024.5 1006,-1185.5 "/>
<text text-anchor="middle" x="1070" y="-1170.3" font-family="Times,serif" font-size="14.00" fill="#000000">file_description</text>
<polyline fill="none" stroke="#000000" points="1006,-1162.5 1134,-1162.5 "/>
<text text-anchor="middle" x="1070" y="-1147.3" font-family="Times,serif" font-size="14.00" fill="#000000">file_id</text>
<polyline fill="none" stroke="#000000" points="1006,-1139.5 1134,-1139.5 "/>
<text text-anchor="middle" x="1070" y="-1124.3" font-family="Times,serif" font-size="14.00" fill="#000000">file_name</text>
<polyline fill="none" stroke="#000000" points="1006,-1116.5 1134,-1116.5 "/>
<text text-anchor="middle" x="1070" y="-1101.3" font-family="Times,serif" font-size="14.00" fill="#000000">file_size</text>
<polyline fill="none" stroke="#000000" points="1006,-1093.5 1134,-1093.5 "/>
<text text-anchor="middle" x="1070" y="-1078.3" font-family="Times,serif" font-size="14.00" fill="#000000">file_type</text>
<polyline fill="none" stroke="#000000" points="1006,-1070.5 1134,-1070.5 "/>
<text text-anchor="middle" x="1070" y="-1055.3" font-family="Times,serif" font-size="14.00" fill="#000000">file_url_in_cds</text>
<polyline fill="none" stroke="#000000" points="1006,-1047.5 1134,-1047.5 "/>
<text text-anchor="middle" x="1070" y="-1032.3" font-family="Times,serif" font-size="14.00" fill="#000000">md5sum</text>
<polyline fill="none" stroke="#000000" points="1134,-1024.5 1134,-1185.5 "/>
<text text-anchor="middle" x="1144.5" y="-1101.3" font-family="Times,serif" font-size="14.00" fill="#000000"> </text>
</g>
<!-- genomic_info&#45;&gt;file -->
<g id="edge9" class="edge">
<title>genomic_info&#45;&gt;file</title>
<path fill="none" stroke="#000000" d="M969.4178,-1260.2387C971.322,-1241.0005 974.8096,-1221.9042 980.5,-1204 981.4574,-1200.9877 982.5433,-1197.9882 983.7393,-1195.0103"/>
<polygon fill="#000000" stroke="#000000" points="987.0644,-1196.1455 987.9112,-1185.5845 980.6633,-1193.3123 987.0644,-1196.1455"/>
<text text-anchor="middle" x="1002.5" y="-1207.8" font-family="Times,serif" font-size="14.00" fill="#000000">of_file</text>
</g>
<!-- specimen -->
<g id="node6" class="node">
<title>specimen</title>
<path fill="none" stroke="#000000" d="M12,-1415C12,-1415 221,-1415 221,-1415 227,-1415 233,-1421 233,-1427 233,-1427 233,-1439 233,-1439 233,-1445 227,-1451 221,-1451 221,-1451 12,-1451 12,-1451 6,-1451 0,-1445 0,-1439 0,-1439 0,-1427 0,-1427 0,-1421 6,-1415 12,-1415"/>
<text text-anchor="middle" x="42.5" y="-1429.3" font-family="Times,serif" font-size="14.00" fill="#000000">specimen</text>
<polyline fill="none" stroke="#000000" points="85,-1415 85,-1451 "/>
<text text-anchor="middle" x="95.5" y="-1429.3" font-family="Times,serif" font-size="14.00" fill="#000000"> </text>
<polyline fill="none" stroke="#000000" points="106,-1415 106,-1451 "/>
<text text-anchor="middle" x="159" y="-1429.3" font-family="Times,serif" font-size="14.00" fill="#000000">specimen_id</text>
<polyline fill="none" stroke="#000000" points="212,-1415 212,-1451 "/>
<text text-anchor="middle" x="222.5" y="-1429.3" font-family="Times,serif" font-size="14.00" fill="#000000"> </text>
</g>
<!-- specimen&#45;&gt;participant -->
<g id="edge7" class="edge">
<title>specimen&#45;&gt;participant</title>
<path fill="none" stroke="#000000" d="M115.4775,-1414.7009C114.0285,-1374.0065 115.0941,-1274.0806 154.5,-1204 161.4241,-1191.6861 170.4934,-1180.187 180.5054,-1169.7017"/>
<polygon fill="#000000" stroke="#000000" points="182.9949,-1172.1619 187.5726,-1162.6071 178.0355,-1167.2218 182.9949,-1172.1619"/>
<text text-anchor="middle" x="205" y="-1207.8" font-family="Times,serif" font-size="14.00" fill="#000000">of_participant</text>
</g>
<!-- participant&#45;&gt;study -->
<g id="edge1" class="edge">
<title>participant&#45;&gt;study</title>
<path fill="none" stroke="#000000" d="M269.5,-1047.4788C269.5,-1029.0368 269.5,-1007.0269 269.5,-982.7562"/>
<polygon fill="#000000" stroke="#000000" points="273.0001,-982.5989 269.5,-972.5989 266.0001,-982.599 273.0001,-982.5989"/>
<text text-anchor="middle" x="300" y="-994.8" font-family="Times,serif" font-size="14.00" fill="#000000">of_study</text>
</g>
<!-- sample -->
<g id="node8" class="node">
<title>sample</title>
<path fill="none" stroke="#000000" d="M483.5,-1680.5C483.5,-1680.5 769.5,-1680.5 769.5,-1680.5 775.5,-1680.5 781.5,-1686.5 781.5,-1692.5 781.5,-1692.5 781.5,-1829.5 781.5,-1829.5 781.5,-1835.5 775.5,-1841.5 769.5,-1841.5 769.5,-1841.5 483.5,-1841.5 483.5,-1841.5 477.5,-1841.5 471.5,-1835.5 471.5,-1829.5 471.5,-1829.5 471.5,-1692.5 471.5,-1692.5 471.5,-1686.5 477.5,-1680.5 483.5,-1680.5"/>
<text text-anchor="middle" x="505.5" y="-1757.3" font-family="Times,serif" font-size="14.00" fill="#000000">sample</text>
<polyline fill="none" stroke="#000000" points="539.5,-1680.5 539.5,-1841.5 "/>
<text text-anchor="middle" x="550" y="-1757.3" font-family="Times,serif" font-size="14.00" fill="#000000"> </text>
<polyline fill="none" stroke="#000000" points="560.5,-1680.5 560.5,-1841.5 "/>
<text text-anchor="middle" x="660.5" y="-1826.3" font-family="Times,serif" font-size="14.00" fill="#000000">biosample_accession</text>
<polyline fill="none" stroke="#000000" points="560.5,-1818.5 760.5,-1818.5 "/>
<text text-anchor="middle" x="660.5" y="-1803.3" font-family="Times,serif" font-size="14.00" fill="#000000">derived_from_specimen</text>
<polyline fill="none" stroke="#000000" points="560.5,-1795.5 760.5,-1795.5 "/>
<text text-anchor="middle" x="660.5" y="-1780.3" font-family="Times,serif" font-size="14.00" fill="#000000">sample_age_at_collection</text>
<polyline fill="none" stroke="#000000" points="560.5,-1772.5 760.5,-1772.5 "/>
<text text-anchor="middle" x="660.5" y="-1757.3" font-family="Times,serif" font-size="14.00" fill="#000000">sample_anatomic_site</text>
<polyline fill="none" stroke="#000000" points="560.5,-1749.5 760.5,-1749.5 "/>
<text text-anchor="middle" x="660.5" y="-1734.3" font-family="Times,serif" font-size="14.00" fill="#000000">sample_id</text>
<polyline fill="none" stroke="#000000" points="560.5,-1726.5 760.5,-1726.5 "/>
<text text-anchor="middle" x="660.5" y="-1711.3" font-family="Times,serif" font-size="14.00" fill="#000000">sample_tumor_status</text>
<polyline fill="none" stroke="#000000" points="560.5,-1703.5 760.5,-1703.5 "/>
<text text-anchor="middle" x="660.5" y="-1688.3" font-family="Times,serif" font-size="14.00" fill="#000000">sample_type</text>
<polyline fill="none" stroke="#000000" points="760.5,-1680.5 760.5,-1841.5 "/>
<text text-anchor="middle" x="771" y="-1757.3" font-family="Times,serif" font-size="14.00" fill="#000000"> </text>
</g>
<!-- sample&#45;&gt;genomic_info -->
<g id="edge4" class="edge">
<title>sample&#45;&gt;genomic_info</title>
<path fill="none" stroke="#000000" d="M714.2893,-1680.3421C736.9318,-1659.5388 762.2266,-1636.2988 787.9985,-1612.6205"/>
<polygon fill="#000000" stroke="#000000" points="790.6464,-1614.9406 795.6423,-1605.5975 785.9105,-1609.7859 790.6464,-1614.9406"/>
<text text-anchor="middle" x="800" y="-1650.8" font-family="Times,serif" font-size="14.00" fill="#000000">in_genomic_info</text>
</g>
<!-- sample&#45;&gt;specimen -->
<g id="edge8" class="edge">
<title>sample&#45;&gt;specimen</title>
<path fill="none" stroke="#000000" d="M471.2615,-1745.7373C354.7122,-1731.0644 208.1731,-1704.7048 165.5,-1662 111.3972,-1607.857 110.3688,-1509.5019 113.6126,-1461.2427"/>
<polygon fill="#000000" stroke="#000000" points="117.1081,-1461.4366 114.4008,-1451.1935 110.1295,-1460.8892 117.1081,-1461.4366"/>
<text text-anchor="middle" x="210.5" y="-1650.8" font-family="Times,serif" font-size="14.00" fill="#000000">of_specimen</text>
</g>
<!-- sample&#45;&gt;participant -->
<g id="edge5" class="edge">
<title>sample&#45;&gt;participant</title>
<path fill="none" stroke="#000000" d="M471.2866,-1720.6612C389.9634,-1696.0898 302.3756,-1662.9642 278.5,-1629 228.1785,-1557.4153 248.3934,-1297.596 261.5582,-1172.8084"/>
<polygon fill="#000000" stroke="#000000" points="265.0654,-1172.9273 262.6501,-1162.6114 258.1052,-1172.1819 265.0654,-1172.9273"/>
<text text-anchor="middle" x="329" y="-1429.3" font-family="Times,serif" font-size="14.00" fill="#000000">of_participant</text>
</g>
<!-- file&#45;&gt;genomic_info -->
<g id="edge3" class="edge">
<title>file&#45;&gt;genomic_info</title>
<path fill="none" stroke="#000000" d="M1035.1021,-1185.6845C1032.915,-1196.8808 1030.6712,-1208.2312 1028.5,-1219 1026.4175,-1229.329 1024.2576,-1239.9337 1022.0616,-1250.6328"/>
<polygon fill="#000000" stroke="#000000" points="1018.6228,-1249.9797 1020.036,-1260.4799 1025.4792,-1251.3902 1018.6228,-1249.9797"/>
<text text-anchor="middle" x="1099" y="-1207.8" font-family="Times,serif" font-size="14.00" fill="#000000">from_genomic_info</text>
</g>
<!-- file&#45;&gt;sample -->
<g id="edge2" class="edge">
<title>file&#45;&gt;sample</title>
<path fill="none" stroke="#000000" d="M1155.3542,-1156.8775C1185.513,-1177.3953 1214.7555,-1204.0643 1231.5,-1237 1310.4562,-1392.3039 1347.3847,-1498.9073 1231.5,-1629 1166.0272,-1702.5 885.9377,-1652.2427 791.5,-1680 791.3995,-1680.0295 791.2991,-1680.0591 791.1986,-1680.0888"/>
<polygon fill="#000000" stroke="#000000" points="790.3307,-1676.6932 781.8208,-1683.0045 792.4091,-1683.3776 790.3307,-1676.6932"/>
<text text-anchor="middle" x="1351" y="-1429.3" font-family="Times,serif" font-size="14.00" fill="#000000">from_sample</text>
</g>
</g>
</svg>
