<svg width="1454pt" height="1827pt"
 viewBox="0.00 0.00 1453.91 1827.00" xmlns="http://www.w3.org/2000/svg" xmlns:xlink="http://www.w3.org/1999/xlink">
<g id="graph0" class="graph" transform="scale(1 1) rotate(0) translate(4 1823)">
<title>Perl</title>
<polygon fill="#ffffff" stroke="transparent" points="-4,4 -4,-1823 1449.9134,-1823 1449.9134,4 -4,4"/>
<!-- study -->
<g id="node1" class="node">
<title>study</title>
<path fill="none" stroke="#000000" d="M103.4134,-190.5C103.4134,-190.5 500.4134,-190.5 500.4134,-190.5 506.4134,-190.5 512.4134,-196.5 512.4134,-202.5 512.4134,-202.5 512.4134,-937.5 512.4134,-937.5 512.4134,-943.5 506.4134,-949.5 500.4134,-949.5 500.4134,-949.5 103.4134,-949.5 103.4134,-949.5 97.4134,-949.5 91.4134,-943.5 91.4134,-937.5 91.4134,-937.5 91.4134,-202.5 91.4134,-202.5 91.4134,-196.5 97.4134,-190.5 103.4134,-190.5"/>
<text text-anchor="middle" x="119.4134" y="-566.3" font-family="Times,serif" font-size="14.00" fill="#000000">study</text>
<polyline fill="none" stroke="#000000" points="147.4134,-190.5 147.4134,-949.5 "/>
<text text-anchor="middle" x="157.9134" y="-566.3" font-family="Times,serif" font-size="14.00" fill="#000000"> </text>
<polyline fill="none" stroke="#000000" points="168.4134,-190.5 168.4134,-949.5 "/>
<text text-anchor="middle" x="329.9134" y="-934.3" font-family="Times,serif" font-size="14.00" fill="#000000">adult_or_childhood_study</text>
<polyline fill="none" stroke="#000000" points="168.4134,-926.5 491.4134,-926.5 "/>
<text text-anchor="middle" x="329.9134" y="-911.3" font-family="Times,serif" font-size="14.00" fill="#000000">bioproject_accession</text>
<polyline fill="none" stroke="#000000" points="168.4134,-903.5 491.4134,-903.5 "/>
<text text-anchor="middle" x="329.9134" y="-888.3" font-family="Times,serif" font-size="14.00" fill="#000000">cds_primary_bucket</text>
<polyline fill="none" stroke="#000000" points="168.4134,-880.5 491.4134,-880.5 "/>
<text text-anchor="middle" x="329.9134" y="-865.3" font-family="Times,serif" font-size="14.00" fill="#000000">cds_requestor</text>
<polyline fill="none" stroke="#000000" points="168.4134,-857.5 491.4134,-857.5 "/>
<text text-anchor="middle" x="329.9134" y="-842.3" font-family="Times,serif" font-size="14.00" fill="#000000">cds_secondary_bucket</text>
<polyline fill="none" stroke="#000000" points="168.4134,-834.5 491.4134,-834.5 "/>
<text text-anchor="middle" x="329.9134" y="-819.3" font-family="Times,serif" font-size="14.00" fill="#000000">cds_tertiary_bucket</text>
<polyline fill="none" stroke="#000000" points="168.4134,-811.5 491.4134,-811.5 "/>
<text text-anchor="middle" x="329.9134" y="-796.3" font-family="Times,serif" font-size="14.00" fill="#000000">clinical_trial_arm</text>
<polyline fill="none" stroke="#000000" points="168.4134,-788.5 491.4134,-788.5 "/>
<text text-anchor="middle" x="329.9134" y="-773.3" font-family="Times,serif" font-size="14.00" fill="#000000">clinical_trial_identifier</text>
<polyline fill="none" stroke="#000000" points="168.4134,-765.5 491.4134,-765.5 "/>
<text text-anchor="middle" x="329.9134" y="-750.3" font-family="Times,serif" font-size="14.00" fill="#000000">clinical_trial_system</text>
<polyline fill="none" stroke="#000000" points="168.4134,-742.5 491.4134,-742.5 "/>
<text text-anchor="middle" x="329.9134" y="-727.3" font-family="Times,serif" font-size="14.00" fill="#000000">co_investigator_email</text>
<polyline fill="none" stroke="#000000" points="168.4134,-719.5 491.4134,-719.5 "/>
<text text-anchor="middle" x="329.9134" y="-704.3" font-family="Times,serif" font-size="14.00" fill="#000000">co_investigator_name</text>
<polyline fill="none" stroke="#000000" points="168.4134,-696.5 491.4134,-696.5 "/>
<text text-anchor="middle" x="329.9134" y="-681.3" font-family="Times,serif" font-size="14.00" fill="#000000">data_access_level</text>
<polyline fill="none" stroke="#000000" points="168.4134,-673.5 491.4134,-673.5 "/>
<text text-anchor="middle" x="329.9134" y="-658.3" font-family="Times,serif" font-size="14.00" fill="#000000">data_types</text>
<polyline fill="none" stroke="#000000" points="168.4134,-650.5 491.4134,-650.5 "/>
<text text-anchor="middle" x="329.9134" y="-635.3" font-family="Times,serif" font-size="14.00" fill="#000000">experimental_strategy_and_data_subtypes</text>
<polyline fill="none" stroke="#000000" points="168.4134,-627.5 491.4134,-627.5 "/>
<text text-anchor="middle" x="329.9134" y="-612.3" font-family="Times,serif" font-size="14.00" fill="#000000">file_types</text>
<polyline fill="none" stroke="#000000" points="168.4134,-604.5 491.4134,-604.5 "/>
<text text-anchor="middle" x="329.9134" y="-589.3" font-family="Times,serif" font-size="14.00" fill="#000000">file_types_and_format</text>
<polyline fill="none" stroke="#000000" points="168.4134,-581.5 491.4134,-581.5 "/>
<text text-anchor="middle" x="329.9134" y="-566.3" font-family="Times,serif" font-size="14.00" fill="#000000">funding_agency</text>
<polyline fill="none" stroke="#000000" points="168.4134,-558.5 491.4134,-558.5 "/>
<text text-anchor="middle" x="329.9134" y="-543.3" font-family="Times,serif" font-size="14.00" fill="#000000">funding_source_program_name</text>
<polyline fill="none" stroke="#000000" points="168.4134,-535.5 491.4134,-535.5 "/>
<text text-anchor="middle" x="329.9134" y="-520.3" font-family="Times,serif" font-size="14.00" fill="#000000">grant_id</text>
<polyline fill="none" stroke="#000000" points="168.4134,-512.5 491.4134,-512.5 "/>
<text text-anchor="middle" x="329.9134" y="-497.3" font-family="Times,serif" font-size="14.00" fill="#000000">index_date</text>
<polyline fill="none" stroke="#000000" points="168.4134,-489.5 491.4134,-489.5 "/>
<text text-anchor="middle" x="329.9134" y="-474.3" font-family="Times,serif" font-size="14.00" fill="#000000">number_of_participants</text>
<polyline fill="none" stroke="#000000" points="168.4134,-466.5 491.4134,-466.5 "/>
<text text-anchor="middle" x="329.9134" y="-451.3" font-family="Times,serif" font-size="14.00" fill="#000000">number_of_samples</text>
<polyline fill="none" stroke="#000000" points="168.4134,-443.5 491.4134,-443.5 "/>
<text text-anchor="middle" x="329.9134" y="-428.3" font-family="Times,serif" font-size="14.00" fill="#000000">organism_species</text>
<polyline fill="none" stroke="#000000" points="168.4134,-420.5 491.4134,-420.5 "/>
<text text-anchor="middle" x="329.9134" y="-405.3" font-family="Times,serif" font-size="14.00" fill="#000000">phs_accession</text>
<polyline fill="none" stroke="#000000" points="168.4134,-397.5 491.4134,-397.5 "/>
<text text-anchor="middle" x="329.9134" y="-382.3" font-family="Times,serif" font-size="14.00" fill="#000000">primary_investigator_email</text>
<polyline fill="none" stroke="#000000" points="168.4134,-374.5 491.4134,-374.5 "/>
<text text-anchor="middle" x="329.9134" y="-359.3" font-family="Times,serif" font-size="14.00" fill="#000000">primary_investigator_name</text>
<polyline fill="none" stroke="#000000" points="168.4134,-351.5 491.4134,-351.5 "/>
<text text-anchor="middle" x="329.9134" y="-336.3" font-family="Times,serif" font-size="14.00" fill="#000000">short_description</text>
<polyline fill="none" stroke="#000000" points="168.4134,-328.5 491.4134,-328.5 "/>
<text text-anchor="middle" x="329.9134" y="-313.3" font-family="Times,serif" font-size="14.00" fill="#000000">size_of_data_being_uploaded</text>
<polyline fill="none" stroke="#000000" points="168.4134,-305.5 491.4134,-305.5 "/>
<text text-anchor="middle" x="329.9134" y="-290.3" font-family="Times,serif" font-size="14.00" fill="#000000">study_acronym</text>
<polyline fill="none" stroke="#000000" points="168.4134,-282.5 491.4134,-282.5 "/>
<text text-anchor="middle" x="329.9134" y="-267.3" font-family="Times,serif" font-size="14.00" fill="#000000">study_data_types</text>
<polyline fill="none" stroke="#000000" points="168.4134,-259.5 491.4134,-259.5 "/>
<text text-anchor="middle" x="329.9134" y="-244.3" font-family="Times,serif" font-size="14.00" fill="#000000">study_description</text>
<polyline fill="none" stroke="#000000" points="168.4134,-236.5 491.4134,-236.5 "/>
<text text-anchor="middle" x="329.9134" y="-221.3" font-family="Times,serif" font-size="14.00" fill="#000000">study_external_url</text>
<polyline fill="none" stroke="#000000" points="168.4134,-213.5 491.4134,-213.5 "/>
<text text-anchor="middle" x="329.9134" y="-198.3" font-family="Times,serif" font-size="14.00" fill="#000000">study_name</text>
<polyline fill="none" stroke="#000000" points="491.4134,-190.5 491.4134,-949.5 "/>
<text text-anchor="middle" x="501.9134" y="-566.3" font-family="Times,serif" font-size="14.00" fill="#000000"> </text>
</g>
<!-- program -->
<g id="node8" class="node">
<title>program</title>
<path fill="none" stroke="#000000" d="M147.9134,-.5C147.9134,-.5 455.9134,-.5 455.9134,-.5 461.9134,-.5 467.9134,-6.5 467.9134,-12.5 467.9134,-12.5 467.9134,-126.5 467.9134,-126.5 467.9134,-132.5 461.9134,-138.5 455.9134,-138.5 455.9134,-138.5 147.9134,-138.5 147.9134,-138.5 141.9134,-138.5 135.9134,-132.5 135.9134,-126.5 135.9134,-126.5 135.9134,-12.5 135.9134,-12.5 135.9134,-6.5 141.9134,-.5 147.9134,-.5"/>
<text text-anchor="middle" x="174.9134" y="-65.8" font-family="Times,serif" font-size="14.00" fill="#000000">program</text>
<polyline fill="none" stroke="#000000" points="213.9134,-.5 213.9134,-138.5 "/>
<text text-anchor="middle" x="224.4134" y="-65.8" font-family="Times,serif" font-size="14.00" fill="#000000"> </text>
<polyline fill="none" stroke="#000000" points="234.9134,-.5 234.9134,-138.5 "/>
<text text-anchor="middle" x="340.9134" y="-123.3" font-family="Times,serif" font-size="14.00" fill="#000000">program_acronym</text>
<polyline fill="none" stroke="#000000" points="234.9134,-115.5 446.9134,-115.5 "/>
<text text-anchor="middle" x="340.9134" y="-100.3" font-family="Times,serif" font-size="14.00" fill="#000000">program_external_url</text>
<polyline fill="none" stroke="#000000" points="234.9134,-92.5 446.9134,-92.5 "/>
<text text-anchor="middle" x="340.9134" y="-77.3" font-family="Times,serif" font-size="14.00" fill="#000000">program_full_description</text>
<polyline fill="none" stroke="#000000" points="234.9134,-69.5 446.9134,-69.5 "/>
<text text-anchor="middle" x="340.9134" y="-54.3" font-family="Times,serif" font-size="14.00" fill="#000000">program_name</text>
<polyline fill="none" stroke="#000000" points="234.9134,-46.5 446.9134,-46.5 "/>
<text text-anchor="middle" x="340.9134" y="-31.3" font-family="Times,serif" font-size="14.00" fill="#000000">program_short_description</text>
<polyline fill="none" stroke="#000000" points="234.9134,-23.5 446.9134,-23.5 "/>
<text text-anchor="middle" x="340.9134" y="-8.3" font-family="Times,serif" font-size="14.00" fill="#000000">program_sort_order</text>
<polyline fill="none" stroke="#000000" points="446.9134,-.5 446.9134,-138.5 "/>
<text text-anchor="middle" x="457.4134" y="-65.8" font-family="Times,serif" font-size="14.00" fill="#000000"> </text>
</g>
<!-- study&#45;&gt;program -->
<g id="edge8" class="edge">
<title>study&#45;&gt;program</title>
<path fill="none" stroke="#000000" d="M301.9134,-190.338C301.9134,-175.5265 301.9134,-161.5495 301.9134,-148.7219"/>
<polygon fill="#000000" stroke="#000000" points="305.4135,-148.6868 301.9134,-138.6868 298.4135,-148.6869 305.4135,-148.6868"/>
<text text-anchor="middle" x="343.4134" y="-160.8" font-family="Times,serif" font-size="14.00" fill="#000000">of_program</text>
</g>
<!-- sample -->
<g id="node2" class="node">
<title>sample</title>
<path fill="none" stroke="#000000" d="M614.9134,-1657.5C614.9134,-1657.5 900.9134,-1657.5 900.9134,-1657.5 906.9134,-1657.5 912.9134,-1663.5 912.9134,-1669.5 912.9134,-1669.5 912.9134,-1806.5 912.9134,-1806.5 912.9134,-1812.5 906.9134,-1818.5 900.9134,-1818.5 900.9134,-1818.5 614.9134,-1818.5 614.9134,-1818.5 608.9134,-1818.5 602.9134,-1812.5 602.9134,-1806.5 602.9134,-1806.5 602.9134,-1669.5 602.9134,-1669.5 602.9134,-1663.5 608.9134,-1657.5 614.9134,-1657.5"/>
<text text-anchor="middle" x="636.9134" y="-1734.3" font-family="Times,serif" font-size="14.00" fill="#000000">sample</text>
<polyline fill="none" stroke="#000000" points="670.9134,-1657.5 670.9134,-1818.5 "/>
<text text-anchor="middle" x="681.4134" y="-1734.3" font-family="Times,serif" font-size="14.00" fill="#000000"> </text>
<polyline fill="none" stroke="#000000" points="691.9134,-1657.5 691.9134,-1818.5 "/>
<text text-anchor="middle" x="791.9134" y="-1803.3" font-family="Times,serif" font-size="14.00" fill="#000000">biosample_accession</text>
<polyline fill="none" stroke="#000000" points="691.9134,-1795.5 891.9134,-1795.5 "/>
<text text-anchor="middle" x="791.9134" y="-1780.3" font-family="Times,serif" font-size="14.00" fill="#000000">derived_from_specimen</text>
<polyline fill="none" stroke="#000000" points="691.9134,-1772.5 891.9134,-1772.5 "/>
<text text-anchor="middle" x="791.9134" y="-1757.3" font-family="Times,serif" font-size="14.00" fill="#000000">sample_age_at_collection</text>
<polyline fill="none" stroke="#000000" points="691.9134,-1749.5 891.9134,-1749.5 "/>
<text text-anchor="middle" x="791.9134" y="-1734.3" font-family="Times,serif" font-size="14.00" fill="#000000">sample_anatomic_site</text>
<polyline fill="none" stroke="#000000" points="691.9134,-1726.5 891.9134,-1726.5 "/>
<text text-anchor="middle" x="791.9134" y="-1711.3" font-family="Times,serif" font-size="14.00" fill="#000000">sample_id</text>
<polyline fill="none" stroke="#000000" points="691.9134,-1703.5 891.9134,-1703.5 "/>
<text text-anchor="middle" x="791.9134" y="-1688.3" font-family="Times,serif" font-size="14.00" fill="#000000">sample_tumor_status</text>
<polyline fill="none" stroke="#000000" points="691.9134,-1680.5 891.9134,-1680.5 "/>
<text text-anchor="middle" x="791.9134" y="-1665.3" font-family="Times,serif" font-size="14.00" fill="#000000">sample_type</text>
<polyline fill="none" stroke="#000000" points="891.9134,-1657.5 891.9134,-1818.5 "/>
<text text-anchor="middle" x="902.4134" y="-1734.3" font-family="Times,serif" font-size="14.00" fill="#000000"> </text>
</g>
<!-- specimen -->
<g id="node3" class="node">
<title>specimen</title>
<path fill="none" stroke="#000000" d="M197.4134,-1392C197.4134,-1392 406.4134,-1392 406.4134,-1392 412.4134,-1392 418.4134,-1398 418.4134,-1404 418.4134,-1404 418.4134,-1416 418.4134,-1416 418.4134,-1422 412.4134,-1428 406.4134,-1428 406.4134,-1428 197.4134,-1428 197.4134,-1428 191.4134,-1428 185.4134,-1422 185.4134,-1416 185.4134,-1416 185.4134,-1404 185.4134,-1404 185.4134,-1398 191.4134,-1392 197.4134,-1392"/>
<text text-anchor="middle" x="227.9134" y="-1406.3" font-family="Times,serif" font-size="14.00" fill="#000000">specimen</text>
<polyline fill="none" stroke="#000000" points="270.4134,-1392 270.4134,-1428 "/>
<text text-anchor="middle" x="280.9134" y="-1406.3" font-family="Times,serif" font-size="14.00" fill="#000000"> </text>
<polyline fill="none" stroke="#000000" points="291.4134,-1392 291.4134,-1428 "/>
<text text-anchor="middle" x="344.4134" y="-1406.3" font-family="Times,serif" font-size="14.00" fill="#000000">specimen_id</text>
<polyline fill="none" stroke="#000000" points="397.4134,-1392 397.4134,-1428 "/>
<text text-anchor="middle" x="407.9134" y="-1406.3" font-family="Times,serif" font-size="14.00" fill="#000000"> </text>
</g>
<!-- sample&#45;&gt;specimen -->
<g id="edge2" class="edge">
<title>sample&#45;&gt;specimen</title>
<path fill="none" stroke="#000000" d="M602.7509,-1698.0329C543.6074,-1677.4201 478.3593,-1647.6333 427.9134,-1606 370.8681,-1558.9201 331.0343,-1479.1083 312.9261,-1437.3369"/>
<polygon fill="#000000" stroke="#000000" points="316.1187,-1435.9004 308.9922,-1428.0606 309.6743,-1438.6334 316.1187,-1435.9004"/>
<text text-anchor="middle" x="510.9134" y="-1627.8" font-family="Times,serif" font-size="14.00" fill="#000000">of_specimen</text>
</g>
<!-- participant -->
<g id="node6" class="node">
<title>participant</title>
<path fill="none" stroke="#000000" d="M172.4134,-1024.5C172.4134,-1024.5 431.4134,-1024.5 431.4134,-1024.5 437.4134,-1024.5 443.4134,-1030.5 443.4134,-1036.5 443.4134,-1036.5 443.4134,-1127.5 443.4134,-1127.5 443.4134,-1133.5 437.4134,-1139.5 431.4134,-1139.5 431.4134,-1139.5 172.4134,-1139.5 172.4134,-1139.5 166.4134,-1139.5 160.4134,-1133.5 160.4134,-1127.5 160.4134,-1127.5 160.4134,-1036.5 160.4134,-1036.5 160.4134,-1030.5 166.4134,-1024.5 172.4134,-1024.5"/>
<text text-anchor="middle" x="208.4134" y="-1078.3" font-family="Times,serif" font-size="14.00" fill="#000000">participant</text>
<polyline fill="none" stroke="#000000" points="256.4134,-1024.5 256.4134,-1139.5 "/>
<text text-anchor="middle" x="266.9134" y="-1078.3" font-family="Times,serif" font-size="14.00" fill="#000000"> </text>
<polyline fill="none" stroke="#000000" points="277.4134,-1024.5 277.4134,-1139.5 "/>
<text text-anchor="middle" x="349.9134" y="-1124.3" font-family="Times,serif" font-size="14.00" fill="#000000">dbGaP_subject_id</text>
<polyline fill="none" stroke="#000000" points="277.4134,-1116.5 422.4134,-1116.5 "/>
<text text-anchor="middle" x="349.9134" y="-1101.3" font-family="Times,serif" font-size="14.00" fill="#000000">ethnicity</text>
<polyline fill="none" stroke="#000000" points="277.4134,-1093.5 422.4134,-1093.5 "/>
<text text-anchor="middle" x="349.9134" y="-1078.3" font-family="Times,serif" font-size="14.00" fill="#000000">gender</text>
<polyline fill="none" stroke="#000000" points="277.4134,-1070.5 422.4134,-1070.5 "/>
<text text-anchor="middle" x="349.9134" y="-1055.3" font-family="Times,serif" font-size="14.00" fill="#000000">participant_id</text>
<polyline fill="none" stroke="#000000" points="277.4134,-1047.5 422.4134,-1047.5 "/>
<text text-anchor="middle" x="349.9134" y="-1032.3" font-family="Times,serif" font-size="14.00" fill="#000000">race</text>
<polyline fill="none" stroke="#000000" points="422.4134,-1024.5 422.4134,-1139.5 "/>
<text text-anchor="middle" x="432.9134" y="-1078.3" font-family="Times,serif" font-size="14.00" fill="#000000"> </text>
</g>
<!-- sample&#45;&gt;participant -->
<g id="edge7" class="edge">
<title>sample&#45;&gt;participant</title>
<path fill="none" stroke="#000000" d="M602.5723,-1730.264C422.0617,-1717.642 140.4928,-1685.4671 74.9134,-1606 -35.9778,-1471.6254 -11.9633,-1365.0159 74.9134,-1214 92.7316,-1183.027 120.9186,-1158.6462 151.4546,-1139.7244"/>
<polygon fill="#000000" stroke="#000000" points="153.3433,-1142.673 160.123,-1134.5313 149.7459,-1136.6681 153.3433,-1142.673"/>
<text text-anchor="middle" x="125.4134" y="-1406.3" font-family="Times,serif" font-size="14.00" fill="#000000">of_participant</text>
</g>
<!-- genomic_info -->
<g id="node7" class="node">
<title>genomic_info</title>
<path fill="none" stroke="#000000" d="M805.4134,-1237.5C805.4134,-1237.5 1258.4134,-1237.5 1258.4134,-1237.5 1264.4134,-1237.5 1270.4134,-1243.5 1270.4134,-1249.5 1270.4134,-1249.5 1270.4134,-1570.5 1270.4134,-1570.5 1270.4134,-1576.5 1264.4134,-1582.5 1258.4134,-1582.5 1258.4134,-1582.5 805.4134,-1582.5 805.4134,-1582.5 799.4134,-1582.5 793.4134,-1576.5 793.4134,-1570.5 793.4134,-1570.5 793.4134,-1249.5 793.4134,-1249.5 793.4134,-1243.5 799.4134,-1237.5 805.4134,-1237.5"/>
<text text-anchor="middle" x="849.4134" y="-1406.3" font-family="Times,serif" font-size="14.00" fill="#000000">genomic_info</text>
<polyline fill="none" stroke="#000000" points="905.4134,-1237.5 905.4134,-1582.5 "/>
<text text-anchor="middle" x="915.9134" y="-1406.3" font-family="Times,serif" font-size="14.00" fill="#000000"> </text>
<polyline fill="none" stroke="#000000" points="926.4134,-1237.5 926.4134,-1582.5 "/>
<text text-anchor="middle" x="1087.9134" y="-1567.3" font-family="Times,serif" font-size="14.00" fill="#000000">avg_read_length</text>
<polyline fill="none" stroke="#000000" points="926.4134,-1559.5 1249.4134,-1559.5 "/>
<text text-anchor="middle" x="1087.9134" y="-1544.3" font-family="Times,serif" font-size="14.00" fill="#000000">bases</text>
<polyline fill="none" stroke="#000000" points="926.4134,-1536.5 1249.4134,-1536.5 "/>
<text text-anchor="middle" x="1087.9134" y="-1521.3" font-family="Times,serif" font-size="14.00" fill="#000000">coverage</text>
<polyline fill="none" stroke="#000000" points="926.4134,-1513.5 1249.4134,-1513.5 "/>
<text text-anchor="middle" x="1087.9134" y="-1498.3" font-family="Times,serif" font-size="14.00" fill="#000000">custom_assembly_fasta_file_for_alignment</text>
<polyline fill="none" stroke="#000000" points="926.4134,-1490.5 1249.4134,-1490.5 "/>
<text text-anchor="middle" x="1087.9134" y="-1475.3" font-family="Times,serif" font-size="14.00" fill="#000000">design_description</text>
<polyline fill="none" stroke="#000000" points="926.4134,-1467.5 1249.4134,-1467.5 "/>
<text text-anchor="middle" x="1087.9134" y="-1452.3" font-family="Times,serif" font-size="14.00" fill="#000000">instrument_model</text>
<polyline fill="none" stroke="#000000" points="926.4134,-1444.5 1249.4134,-1444.5 "/>
<text text-anchor="middle" x="1087.9134" y="-1429.3" font-family="Times,serif" font-size="14.00" fill="#000000">library_id</text>
<polyline fill="none" stroke="#000000" points="926.4134,-1421.5 1249.4134,-1421.5 "/>
<text text-anchor="middle" x="1087.9134" y="-1406.3" font-family="Times,serif" font-size="14.00" fill="#000000">library_layout</text>
<polyline fill="none" stroke="#000000" points="926.4134,-1398.5 1249.4134,-1398.5 "/>
<text text-anchor="middle" x="1087.9134" y="-1383.3" font-family="Times,serif" font-size="14.00" fill="#000000">library_selection</text>
<polyline fill="none" stroke="#000000" points="926.4134,-1375.5 1249.4134,-1375.5 "/>
<text text-anchor="middle" x="1087.9134" y="-1360.3" font-family="Times,serif" font-size="14.00" fill="#000000">library_source</text>
<polyline fill="none" stroke="#000000" points="926.4134,-1352.5 1249.4134,-1352.5 "/>
<text text-anchor="middle" x="1087.9134" y="-1337.3" font-family="Times,serif" font-size="14.00" fill="#000000">library_strategy</text>
<polyline fill="none" stroke="#000000" points="926.4134,-1329.5 1249.4134,-1329.5 "/>
<text text-anchor="middle" x="1087.9134" y="-1314.3" font-family="Times,serif" font-size="14.00" fill="#000000">number_of_reads</text>
<polyline fill="none" stroke="#000000" points="926.4134,-1306.5 1249.4134,-1306.5 "/>
<text text-anchor="middle" x="1087.9134" y="-1291.3" font-family="Times,serif" font-size="14.00" fill="#000000">platform</text>
<polyline fill="none" stroke="#000000" points="926.4134,-1283.5 1249.4134,-1283.5 "/>
<text text-anchor="middle" x="1087.9134" y="-1268.3" font-family="Times,serif" font-size="14.00" fill="#000000">reference_genome_assembly</text>
<polyline fill="none" stroke="#000000" points="926.4134,-1260.5 1249.4134,-1260.5 "/>
<text text-anchor="middle" x="1087.9134" y="-1245.3" font-family="Times,serif" font-size="14.00" fill="#000000">sequence_alignment_software</text>
<polyline fill="none" stroke="#000000" points="1249.4134,-1237.5 1249.4134,-1582.5 "/>
<text text-anchor="middle" x="1259.9134" y="-1406.3" font-family="Times,serif" font-size="14.00" fill="#000000"> </text>
</g>
<!-- sample&#45;&gt;genomic_info -->
<g id="edge4" class="edge">
<title>sample&#45;&gt;genomic_info</title>
<path fill="none" stroke="#000000" d="M825.2923,-1657.3421C842.4469,-1636.8067 861.585,-1613.8968 881.1008,-1590.5349"/>
<polygon fill="#000000" stroke="#000000" points="884.0064,-1592.516 887.7313,-1582.5975 878.6342,-1588.0282 884.0064,-1592.516"/>
<text text-anchor="middle" x="904.4134" y="-1627.8" font-family="Times,serif" font-size="14.00" fill="#000000">in_genomic_info</text>
</g>
<!-- specimen&#45;&gt;participant -->
<g id="edge6" class="edge">
<title>specimen&#45;&gt;participant</title>
<path fill="none" stroke="#000000" d="M301.9134,-1391.8981C301.9134,-1346.5915 301.9134,-1226.45 301.9134,-1149.7595"/>
<polygon fill="#000000" stroke="#000000" points="305.4135,-1149.7032 301.9134,-1139.7032 298.4135,-1149.7032 305.4135,-1149.7032"/>
<text text-anchor="middle" x="352.4134" y="-1184.8" font-family="Times,serif" font-size="14.00" fill="#000000">of_participant</text>
</g>
<!-- treatment -->
<g id="node4" class="node">
<title>treatment</title>
<path fill="none" stroke="#000000" d="M943.4134,-1680.5C943.4134,-1680.5 1208.4134,-1680.5 1208.4134,-1680.5 1214.4134,-1680.5 1220.4134,-1686.5 1220.4134,-1692.5 1220.4134,-1692.5 1220.4134,-1783.5 1220.4134,-1783.5 1220.4134,-1789.5 1214.4134,-1795.5 1208.4134,-1795.5 1208.4134,-1795.5 943.4134,-1795.5 943.4134,-1795.5 937.4134,-1795.5 931.4134,-1789.5 931.4134,-1783.5 931.4134,-1783.5 931.4134,-1692.5 931.4134,-1692.5 931.4134,-1686.5 937.4134,-1680.5 943.4134,-1680.5"/>
<text text-anchor="middle" x="975.9134" y="-1734.3" font-family="Times,serif" font-size="14.00" fill="#000000">treatment</text>
<polyline fill="none" stroke="#000000" points="1020.4134,-1680.5 1020.4134,-1795.5 "/>
<text text-anchor="middle" x="1030.9134" y="-1734.3" font-family="Times,serif" font-size="14.00" fill="#000000"> </text>
<polyline fill="none" stroke="#000000" points="1041.4134,-1680.5 1041.4134,-1795.5 "/>
<text text-anchor="middle" x="1120.4134" y="-1780.3" font-family="Times,serif" font-size="14.00" fill="#000000">days_to_treatment</text>
<polyline fill="none" stroke="#000000" points="1041.4134,-1772.5 1199.4134,-1772.5 "/>
<text text-anchor="middle" x="1120.4134" y="-1757.3" font-family="Times,serif" font-size="14.00" fill="#000000">therapeutic_agents</text>
<polyline fill="none" stroke="#000000" points="1041.4134,-1749.5 1199.4134,-1749.5 "/>
<text text-anchor="middle" x="1120.4134" y="-1734.3" font-family="Times,serif" font-size="14.00" fill="#000000">treatment_id</text>
<polyline fill="none" stroke="#000000" points="1041.4134,-1726.5 1199.4134,-1726.5 "/>
<text text-anchor="middle" x="1120.4134" y="-1711.3" font-family="Times,serif" font-size="14.00" fill="#000000">treatment_outcome</text>
<polyline fill="none" stroke="#000000" points="1041.4134,-1703.5 1199.4134,-1703.5 "/>
<text text-anchor="middle" x="1120.4134" y="-1688.3" font-family="Times,serif" font-size="14.00" fill="#000000">treatment_type</text>
<polyline fill="none" stroke="#000000" points="1199.4134,-1680.5 1199.4134,-1795.5 "/>
<text text-anchor="middle" x="1209.9134" y="-1734.3" font-family="Times,serif" font-size="14.00" fill="#000000"> </text>
</g>
<!-- diagnosis -->
<g id="node5" class="node">
<title>diagnosis</title>
<path fill="none" stroke="#000000" d="M448.9134,-1214.5C448.9134,-1214.5 762.9134,-1214.5 762.9134,-1214.5 768.9134,-1214.5 774.9134,-1220.5 774.9134,-1226.5 774.9134,-1226.5 774.9134,-1593.5 774.9134,-1593.5 774.9134,-1599.5 768.9134,-1605.5 762.9134,-1605.5 762.9134,-1605.5 448.9134,-1605.5 448.9134,-1605.5 442.9134,-1605.5 436.9134,-1599.5 436.9134,-1593.5 436.9134,-1593.5 436.9134,-1226.5 436.9134,-1226.5 436.9134,-1220.5 442.9134,-1214.5 448.9134,-1214.5"/>
<text text-anchor="middle" x="478.9134" y="-1406.3" font-family="Times,serif" font-size="14.00" fill="#000000">diagnosis</text>
<polyline fill="none" stroke="#000000" points="520.9134,-1214.5 520.9134,-1605.5 "/>
<text text-anchor="middle" x="531.4134" y="-1406.3" font-family="Times,serif" font-size="14.00" fill="#000000"> </text>
<polyline fill="none" stroke="#000000" points="541.9134,-1214.5 541.9134,-1605.5 "/>
<text text-anchor="middle" x="647.9134" y="-1590.3" font-family="Times,serif" font-size="14.00" fill="#000000">age_at_diagnosis</text>
<polyline fill="none" stroke="#000000" points="541.9134,-1582.5 753.9134,-1582.5 "/>
<text text-anchor="middle" x="647.9134" y="-1567.3" font-family="Times,serif" font-size="14.00" fill="#000000">days_to_last_followup</text>
<polyline fill="none" stroke="#000000" points="541.9134,-1559.5 753.9134,-1559.5 "/>
<text text-anchor="middle" x="647.9134" y="-1544.3" font-family="Times,serif" font-size="14.00" fill="#000000">days_to_last_known_status</text>
<polyline fill="none" stroke="#000000" points="541.9134,-1536.5 753.9134,-1536.5 "/>
<text text-anchor="middle" x="647.9134" y="-1521.3" font-family="Times,serif" font-size="14.00" fill="#000000">days_to_recurrence</text>
<polyline fill="none" stroke="#000000" points="541.9134,-1513.5 753.9134,-1513.5 "/>
<text text-anchor="middle" x="647.9134" y="-1498.3" font-family="Times,serif" font-size="14.00" fill="#000000">diagnosis_id</text>
<polyline fill="none" stroke="#000000" points="541.9134,-1490.5 753.9134,-1490.5 "/>
<text text-anchor="middle" x="647.9134" y="-1475.3" font-family="Times,serif" font-size="14.00" fill="#000000">disease_type</text>
<polyline fill="none" stroke="#000000" points="541.9134,-1467.5 753.9134,-1467.5 "/>
<text text-anchor="middle" x="647.9134" y="-1452.3" font-family="Times,serif" font-size="14.00" fill="#000000">incidence_type</text>
<polyline fill="none" stroke="#000000" points="541.9134,-1444.5 753.9134,-1444.5 "/>
<text text-anchor="middle" x="647.9134" y="-1429.3" font-family="Times,serif" font-size="14.00" fill="#000000">last_known_disease_status</text>
<polyline fill="none" stroke="#000000" points="541.9134,-1421.5 753.9134,-1421.5 "/>
<text text-anchor="middle" x="647.9134" y="-1406.3" font-family="Times,serif" font-size="14.00" fill="#000000">morphology</text>
<polyline fill="none" stroke="#000000" points="541.9134,-1398.5 753.9134,-1398.5 "/>
<text text-anchor="middle" x="647.9134" y="-1383.3" font-family="Times,serif" font-size="14.00" fill="#000000">primary_diagnosis</text>
<polyline fill="none" stroke="#000000" points="541.9134,-1375.5 753.9134,-1375.5 "/>
<text text-anchor="middle" x="647.9134" y="-1360.3" font-family="Times,serif" font-size="14.00" fill="#000000">primary_site</text>
<polyline fill="none" stroke="#000000" points="541.9134,-1352.5 753.9134,-1352.5 "/>
<text text-anchor="middle" x="647.9134" y="-1337.3" font-family="Times,serif" font-size="14.00" fill="#000000">progression_or_recurrence</text>
<polyline fill="none" stroke="#000000" points="541.9134,-1329.5 753.9134,-1329.5 "/>
<text text-anchor="middle" x="647.9134" y="-1314.3" font-family="Times,serif" font-size="14.00" fill="#000000">tumor_grade</text>
<polyline fill="none" stroke="#000000" points="541.9134,-1306.5 753.9134,-1306.5 "/>
<text text-anchor="middle" x="647.9134" y="-1291.3" font-family="Times,serif" font-size="14.00" fill="#000000">tumor_stage_clinical_m</text>
<polyline fill="none" stroke="#000000" points="541.9134,-1283.5 753.9134,-1283.5 "/>
<text text-anchor="middle" x="647.9134" y="-1268.3" font-family="Times,serif" font-size="14.00" fill="#000000">tumor_stage_clinical_n</text>
<polyline fill="none" stroke="#000000" points="541.9134,-1260.5 753.9134,-1260.5 "/>
<text text-anchor="middle" x="647.9134" y="-1245.3" font-family="Times,serif" font-size="14.00" fill="#000000">tumor_stage_clinical_t</text>
<polyline fill="none" stroke="#000000" points="541.9134,-1237.5 753.9134,-1237.5 "/>
<text text-anchor="middle" x="647.9134" y="-1222.3" font-family="Times,serif" font-size="14.00" fill="#000000">vital_status</text>
<polyline fill="none" stroke="#000000" points="753.9134,-1214.5 753.9134,-1605.5 "/>
<text text-anchor="middle" x="764.4134" y="-1406.3" font-family="Times,serif" font-size="14.00" fill="#000000"> </text>
</g>
<!-- diagnosis&#45;&gt;participant -->
<g id="edge5" class="edge">
<title>diagnosis&#45;&gt;participant</title>
<path fill="none" stroke="#000000" d="M438.1189,-1214.2344C427.6738,-1202.8853 417.2192,-1191.7327 406.9134,-1181 395.9919,-1169.6261 384.0941,-1157.861 372.3601,-1146.5845"/>
<polygon fill="#000000" stroke="#000000" points="374.7337,-1144.0116 365.0854,-1139.6342 369.8981,-1149.0729 374.7337,-1144.0116"/>
<text text-anchor="middle" x="469.4134" y="-1184.8" font-family="Times,serif" font-size="14.00" fill="#000000">of_participant</text>
</g>
<!-- participant&#45;&gt;study -->
<g id="edge1" class="edge">
<title>participant&#45;&gt;study</title>
<path fill="none" stroke="#000000" d="M301.9134,-1024.2624C301.9134,-1005.8164 301.9134,-983.8319 301.9134,-959.6339"/>
<polygon fill="#000000" stroke="#000000" points="305.4135,-959.5094 301.9134,-949.5094 298.4135,-959.5094 305.4135,-959.5094"/>
<text text-anchor="middle" x="332.4134" y="-971.8" font-family="Times,serif" font-size="14.00" fill="#000000">of_study</text>
</g>
<!-- file -->
<g id="node9" class="node">
<title>file</title>
<path fill="none" stroke="#000000" d="M1006.4134,-1001.5C1006.4134,-1001.5 1191.4134,-1001.5 1191.4134,-1001.5 1197.4134,-1001.5 1203.4134,-1007.5 1203.4134,-1013.5 1203.4134,-1013.5 1203.4134,-1150.5 1203.4134,-1150.5 1203.4134,-1156.5 1197.4134,-1162.5 1191.4134,-1162.5 1191.4134,-1162.5 1006.4134,-1162.5 1006.4134,-1162.5 1000.4134,-1162.5 994.4134,-1156.5 994.4134,-1150.5 994.4134,-1150.5 994.4134,-1013.5 994.4134,-1013.5 994.4134,-1007.5 1000.4134,-1001.5 1006.4134,-1001.5"/>
<text text-anchor="middle" x="1013.9134" y="-1078.3" font-family="Times,serif" font-size="14.00" fill="#000000">file</text>
<polyline fill="none" stroke="#000000" points="1033.4134,-1001.5 1033.4134,-1162.5 "/>
<text text-anchor="middle" x="1043.9134" y="-1078.3" font-family="Times,serif" font-size="14.00" fill="#000000"> </text>
<polyline fill="none" stroke="#000000" points="1054.4134,-1001.5 1054.4134,-1162.5 "/>
<text text-anchor="middle" x="1118.4134" y="-1147.3" font-family="Times,serif" font-size="14.00" fill="#000000">file_description</text>
<polyline fill="none" stroke="#000000" points="1054.4134,-1139.5 1182.4134,-1139.5 "/>
<text text-anchor="middle" x="1118.4134" y="-1124.3" font-family="Times,serif" font-size="14.00" fill="#000000">file_id</text>
<polyline fill="none" stroke="#000000" points="1054.4134,-1116.5 1182.4134,-1116.5 "/>
<text text-anchor="middle" x="1118.4134" y="-1101.3" font-family="Times,serif" font-size="14.00" fill="#000000">file_name</text>
<polyline fill="none" stroke="#000000" points="1054.4134,-1093.5 1182.4134,-1093.5 "/>
<text text-anchor="middle" x="1118.4134" y="-1078.3" font-family="Times,serif" font-size="14.00" fill="#000000">file_size</text>
<polyline fill="none" stroke="#000000" points="1054.4134,-1070.5 1182.4134,-1070.5 "/>
<text text-anchor="middle" x="1118.4134" y="-1055.3" font-family="Times,serif" font-size="14.00" fill="#000000">file_type</text>
<polyline fill="none" stroke="#000000" points="1054.4134,-1047.5 1182.4134,-1047.5 "/>
<text text-anchor="middle" x="1118.4134" y="-1032.3" font-family="Times,serif" font-size="14.00" fill="#000000">file_url_in_cds</text>
<polyline fill="none" stroke="#000000" points="1054.4134,-1024.5 1182.4134,-1024.5 "/>
<text text-anchor="middle" x="1118.4134" y="-1009.3" font-family="Times,serif" font-size="14.00" fill="#000000">md5sum</text>
<polyline fill="none" stroke="#000000" points="1182.4134,-1001.5 1182.4134,-1162.5 "/>
<text text-anchor="middle" x="1192.9134" y="-1078.3" font-family="Times,serif" font-size="14.00" fill="#000000"> </text>
</g>
<!-- genomic_info&#45;&gt;file -->
<g id="edge10" class="edge">
<title>genomic_info&#45;&gt;file</title>
<path fill="none" stroke="#000000" d="M1017.8312,-1237.2387C1019.7354,-1218.0005 1023.223,-1198.9042 1028.9134,-1181 1029.8708,-1177.9877 1030.9567,-1174.9882 1032.1528,-1172.0103"/>
<polygon fill="#000000" stroke="#000000" points="1035.4778,-1173.1455 1036.3247,-1162.5845 1029.0767,-1170.3123 1035.4778,-1173.1455"/>
<text text-anchor="middle" x="1050.9134" y="-1184.8" font-family="Times,serif" font-size="14.00" fill="#000000">of_file</text>
</g>
<!-- file&#45;&gt;sample -->
<g id="edge3" class="edge">
<title>file&#45;&gt;sample</title>
<path fill="none" stroke="#000000" d="M1203.7676,-1133.8775C1233.9264,-1154.3953 1263.169,-1181.0643 1279.9134,-1214 1358.8697,-1369.3039 1394.0641,-1474.3831 1279.9134,-1606 1227.4064,-1666.5411 999.4937,-1633.3845 922.9134,-1657 922.8134,-1657.0309 922.7133,-1657.0618 922.6132,-1657.0927"/>
<polygon fill="#000000" stroke="#000000" points="921.7028,-1653.7085 913.2696,-1660.1218 923.8615,-1660.3673 921.7028,-1653.7085"/>
<text text-anchor="middle" x="1399.4134" y="-1406.3" font-family="Times,serif" font-size="14.00" fill="#000000">from_sample</text>
</g>
<!-- file&#45;&gt;genomic_info -->
<g id="edge9" class="edge">
<title>file&#45;&gt;genomic_info</title>
<path fill="none" stroke="#000000" d="M1083.5156,-1162.6845C1081.3284,-1173.8808 1079.0846,-1185.2312 1076.9134,-1196 1074.8309,-1206.329 1072.6711,-1216.9337 1070.4751,-1227.6328"/>
<polygon fill="#000000" stroke="#000000" points="1067.0362,-1226.9797 1068.4494,-1237.4799 1073.8926,-1228.3902 1067.0362,-1226.9797"/>
<text text-anchor="middle" x="1147.4134" y="-1184.8" font-family="Times,serif" font-size="14.00" fill="#000000">from_genomic_info</text>
</g>
</g>
</svg>
